<?xml version="1.0" encoding="UTF-8"?>
<!--Generator: Apple Native CoreSVG 175-->
<!DOCTYPE svg
PUBLIC "-//W3C//DTD SVG 1.1//EN"
       "http://www.w3.org/Graphics/SVG/1.1/DTD/svg11.dtd">
<svg version="1.1" xmlns="http://www.w3.org/2000/svg" xmlns:xlink="http://www.w3.org/1999/xlink" width="3300" height="2200">
 <!--glyph: "uni10031E.medium", point size: 100.0, font version: "17.3d3e1", template writer version: "65.1"-->
 <g id="Notes">
  <rect height="2200" id="artboard" style="fill:white;opacity:1" width="3300" x="0" y="0"/>
  <line style="fill:none;stroke:black;opacity:1;stroke-width:0.5;" x1="263" x2="3036" y1="292" y2="292"/>
  <text style="stroke:none;fill:black;font-family:sans-serif;font-size:13;font-weight:bold;" transform="matrix(1 0 0 1 263 322)">Weight/Scale Variations</text>
  <text style="stroke:none;fill:black;font-family:sans-serif;font-size:13;text-anchor:middle;" transform="matrix(1 0 0 1 559.711 322)">Ultralight</text>
  <text style="stroke:none;fill:black;font-family:sans-serif;font-size:13;text-anchor:middle;" transform="matrix(1 0 0 1 856.422 322)">Thin</text>
  <text style="stroke:none;fill:black;font-family:sans-serif;font-size:13;text-anchor:middle;" transform="matrix(1 0 0 1 1153.13 322)">Light</text>
  <text style="stroke:none;fill:black;font-family:sans-serif;font-size:13;text-anchor:middle;" transform="matrix(1 0 0 1 1449.84 322)">Regular</text>
  <text style="stroke:none;fill:black;font-family:sans-serif;font-size:13;text-anchor:middle;" transform="matrix(1 0 0 1 1746.56 322)">Medium</text>
  <text style="stroke:none;fill:black;font-family:sans-serif;font-size:13;text-anchor:middle;" transform="matrix(1 0 0 1 2043.27 322)">Semibold</text>
  <text style="stroke:none;fill:black;font-family:sans-serif;font-size:13;text-anchor:middle;" transform="matrix(1 0 0 1 2339.98 322)">Bold</text>
  <text style="stroke:none;fill:black;font-family:sans-serif;font-size:13;text-anchor:middle;" transform="matrix(1 0 0 1 2636.69 322)">Heavy</text>
  <text style="stroke:none;fill:black;font-family:sans-serif;font-size:13;text-anchor:middle;" transform="matrix(1 0 0 1 2933.4 322)">Black</text>
  <line style="fill:none;stroke:black;opacity:1;stroke-width:0.5;" x1="263" x2="3036" y1="1903" y2="1903"/>
  <g transform="matrix(1 0 0 1 263 1933)">
   <path d="M9.24805 0.830078Q10.8691 0.830078 12.2949 0.214844Q13.7207-0.400391 14.8096-1.49414Q15.8984-2.58789 16.5186-4.01367Q17.1387-5.43945 17.1387-7.05078Q17.1387-8.66211 16.5186-10.0879Q15.8984-11.5137 14.8047-12.6074Q13.7109-13.7012 12.2852-14.3164Q10.8594-14.9316 9.23828-14.9316Q7.62695-14.9316 6.20117-14.3164Q4.77539-13.7012 3.69141-12.6074Q2.60742-11.5137 1.9873-10.0879Q1.36719-8.66211 1.36719-7.05078Q1.36719-5.43945 1.9873-4.01367Q2.60742-2.58789 3.69629-1.49414Q4.78516-0.400391 6.21094 0.214844Q7.63672 0.830078 9.24805 0.830078ZM9.24805-0.654297Q7.91992-0.654297 6.7627-1.14746Q5.60547-1.64062 4.73145-2.51953Q3.85742-3.39844 3.36426-4.56055Q2.87109-5.72266 2.87109-7.05078Q2.87109-8.37891 3.35938-9.54102Q3.84766-10.7031 4.72168-11.582Q5.5957-12.4609 6.75293-12.9541Q7.91016-13.4473 9.23828-13.4473Q10.5762-13.4473 11.7334-12.9541Q12.8906-12.4609 13.7695-11.582Q14.6484-10.7031 15.1465-9.54102Q15.6445-8.37891 15.6445-7.05078Q15.6445-5.72266 15.1514-4.56055Q14.6582-3.39844 13.7842-2.51953Q12.9102-1.64062 11.748-1.14746Q10.5859-0.654297 9.24805-0.654297ZM5.6543-7.05078Q5.6543-6.72852 5.85938-6.52832Q6.06445-6.32812 6.40625-6.32812L8.51562-6.32812L8.51562-4.20898Q8.51562-3.88672 8.71094-3.67676Q8.90625-3.4668 9.23828-3.4668Q9.56055-3.4668 9.77051-3.67676Q9.98047-3.88672 9.98047-4.20898L9.98047-6.32812L12.0898-6.32812Q12.4219-6.32812 12.627-6.52832Q12.832-6.72852 12.832-7.05078Q12.832-7.38281 12.627-7.58789Q12.4219-7.79297 12.0898-7.79297L9.98047-7.79297L9.98047-9.90234Q9.98047-10.2344 9.77051-10.4443Q9.56055-10.6543 9.23828-10.6543Q8.90625-10.6543 8.71094-10.4443Q8.51562-10.2344 8.51562-9.90234L8.51562-7.79297L6.40625-7.79297Q6.06445-7.79297 5.85938-7.58789Q5.6543-7.38281 5.6543-7.05078Z"/>
  </g>
  <g transform="matrix(1 0 0 1 281.867 1933)">
   <path d="M11.709 2.91016Q13.75 2.91016 15.5518 2.12891Q17.3535 1.34766 18.7305-0.0292969Q20.1074-1.40625 20.8887-3.20801Q21.6699-5.00977 21.6699-7.05078Q21.6699-9.0918 20.8887-10.8936Q20.1074-12.6953 18.7305-14.0723Q17.3535-15.4492 15.5469-16.2305Q13.7402-17.0117 11.6992-17.0117Q9.6582-17.0117 7.85645-16.2305Q6.05469-15.4492 4.68262-14.0723Q3.31055-12.6953 2.5293-10.8936Q1.74805-9.0918 1.74805-7.05078Q1.74805-5.00977 2.5293-3.20801Q3.31055-1.40625 4.6875-0.0292969Q6.06445 1.34766 7.86621 2.12891Q9.66797 2.91016 11.709 2.91016ZM11.709 1.25Q9.98047 1.25 8.47656 0.605469Q6.97266-0.0390625 5.83496-1.17676Q4.69727-2.31445 4.05762-3.81836Q3.41797-5.32227 3.41797-7.05078Q3.41797-8.7793 4.05762-10.2832Q4.69727-11.7871 5.83008-12.9297Q6.96289-14.0723 8.4668-14.7119Q9.9707-15.3516 11.6992-15.3516Q13.4277-15.3516 14.9316-14.7119Q16.4355-14.0723 17.5781-12.9297Q18.7207-11.7871 19.3652-10.2832Q20.0098-8.7793 20.0098-7.05078Q20.0098-5.32227 19.3701-3.81836Q18.7305-2.31445 17.5928-1.17676Q16.4551-0.0390625 14.9463 0.605469Q13.4375 1.25 11.709 1.25ZM7.17773-7.05078Q7.17773-6.69922 7.41211-6.47461Q7.64648-6.25 8.01758-6.25L10.8887-6.25L10.8887-3.36914Q10.8887-2.99805 11.1133-2.76855Q11.3379-2.53906 11.6895-2.53906Q12.0605-2.53906 12.29-2.76855Q12.5195-2.99805 12.5195-3.36914L12.5195-6.25L15.4004-6.25Q15.7715-6.25 16.001-6.47461Q16.2305-6.69922 16.2305-7.05078Q16.2305-7.42188 16.001-7.65137Q15.7715-7.88086 15.4004-7.88086L12.5195-7.88086L12.5195-10.752Q12.5195-11.1328 12.29-11.3623Q12.0605-11.5918 11.6895-11.5918Q11.3379-11.5918 11.1133-11.3574Q10.8887-11.123 10.8887-10.752L10.8887-7.88086L8.01758-7.88086Q7.63672-7.88086 7.40723-7.65137Q7.17773-7.42188 7.17773-7.05078Z"/>
  </g>
  <g transform="matrix(1 0 0 1 305.646 1933)">
   <path d="M14.9707 5.66406Q17.0605 5.66406 18.96 5.01465Q20.8594 4.36523 22.4512 3.19336Q24.043 2.02148 25.2197 0.429688Q26.3965-1.16211 27.0459-3.06641Q27.6953-4.9707 27.6953-7.05078Q27.6953-9.14062 27.0459-11.04Q26.3965-12.9395 25.2197-14.5312Q24.043-16.123 22.4512-17.2998Q20.8594-18.4766 18.9551-19.126Q17.0508-19.7754 14.9609-19.7754Q12.8711-19.7754 10.9717-19.126Q9.07227-18.4766 7.48535-17.2998Q5.89844-16.123 4.72168-14.5312Q3.54492-12.9395 2.90039-11.04Q2.25586-9.14062 2.25586-7.05078Q2.25586-4.9707 2.90527-3.06641Q3.55469-1.16211 4.72656 0.429688Q5.89844 2.02148 7.49023 3.19336Q9.08203 4.36523 10.9814 5.01465Q12.8809 5.66406 14.9707 5.66406ZM14.9707 3.84766Q13.1641 3.84766 11.5283 3.2959Q9.89258 2.74414 8.53516 1.74805Q7.17773 0.751953 6.17676-0.610352Q5.17578-1.97266 4.62891-3.6084Q4.08203-5.24414 4.08203-7.05078Q4.08203-8.86719 4.62891-10.5029Q5.17578-12.1387 6.17188-13.501Q7.16797-14.8633 8.52539-15.8594Q9.88281-16.8555 11.5186-17.4023Q13.1543-17.9492 14.9609-17.9492Q16.7773-17.9492 18.4131-17.4023Q20.0488-16.8555 21.4111-15.8594Q22.7734-14.8633 23.7695-13.501Q24.7656-12.1387 25.3174-10.5029Q25.8691-8.86719 25.8691-7.05078Q25.8789-5.24414 25.332-3.6084Q24.7852-1.97266 23.7842-0.610352Q22.7832 0.751953 21.4209 1.74805Q20.0586 2.74414 18.4229 3.2959Q16.7871 3.84766 14.9707 3.84766ZM9.19922-7.05078Q9.19922-6.66992 9.45801-6.4209Q9.7168-6.17188 10.1172-6.17188L14.0625-6.17188L14.0625-2.2168Q14.0625-1.81641 14.3115-1.55762Q14.5605-1.29883 14.9512-1.29883Q15.3516-1.29883 15.6104-1.55273Q15.8691-1.80664 15.8691-2.2168L15.8691-6.17188L19.8242-6.17188Q20.2246-6.17188 20.4785-6.4209Q20.7324-6.66992 20.7324-7.05078Q20.7324-7.46094 20.4785-7.71484Q20.2246-7.96875 19.8242-7.96875L15.8691-7.96875L15.8691-11.9141Q15.8691-12.3242 15.6104-12.583Q15.3516-12.8418 14.9512-12.8418Q14.5605-12.8418 14.3115-12.583Q14.0625-12.3242 14.0625-11.9141L14.0625-7.96875L10.1172-7.96875Q9.70703-7.96875 9.45312-7.71484Q9.19922-7.46094 9.19922-7.05078Z"/>
  </g>
  <text style="stroke:none;fill:black;font-family:sans-serif;font-size:13;font-weight:bold;" transform="matrix(1 0 0 1 263 1953)">Design Variations</text>
  <text style="stroke:none;fill:black;font-family:sans-serif;font-size:13;" transform="matrix(1 0 0 1 263 1971)">Symbols are supported in up to nine weights and three scales.</text>
  <text style="stroke:none;fill:black;font-family:sans-serif;font-size:13;" transform="matrix(1 0 0 1 263 1989)">For optimal layout with text and other symbols, vertically align</text>
  <text style="stroke:none;fill:black;font-family:sans-serif;font-size:13;" transform="matrix(1 0 0 1 263 2007)">symbols with the adjacent text.</text>
  <line style="fill:none;stroke:#00AEEF;stroke-width:0.5;opacity:1.0;" x1="776" x2="776" y1="1919" y2="1933"/>
  <g transform="matrix(1 0 0 1 776 1933)">
   <path d="M3.31055 0.15625Q3.70117 0.15625 3.91602-0.00976562Q4.13086-0.175781 4.26758-0.585938L5.52734-4.0332L11.2891-4.0332L12.5488-0.585938Q12.6855-0.175781 12.9004-0.00976562Q13.1152 0.15625 13.4961 0.15625Q13.8867 0.15625 14.1162-0.0585938Q14.3457-0.273438 14.3457-0.644531Q14.3457-0.869141 14.2383-1.17188L9.6582-13.3691Q9.48242-13.8184 9.17969-14.043Q8.87695-14.2676 8.4082-14.2676Q7.5-14.2676 7.17773-13.3789L2.59766-1.16211Q2.49023-0.859375 2.49023-0.634766Q2.49023-0.263672 2.70996-0.0537109Q2.92969 0.15625 3.31055 0.15625ZM6.00586-5.51758L8.37891-12.0898L8.42773-12.0898L10.8008-5.51758Z"/>
  </g>
  <line style="fill:none;stroke:#00AEEF;stroke-width:0.5;opacity:1.0;" x1="793.197" x2="793.197" y1="1919" y2="1933"/>
  <text style="stroke:none;fill:black;font-family:sans-serif;font-size:13;font-weight:bold;" transform="matrix(1 0 0 1 776 1953)">Margins</text>
  <text style="stroke:none;fill:black;font-family:sans-serif;font-size:13;" transform="matrix(1 0 0 1 776 1971)">Leading and trailing margins on the left and right side of each symbol</text>
  <text style="stroke:none;fill:black;font-family:sans-serif;font-size:13;" transform="matrix(1 0 0 1 776 1989)">can be adjusted by modifying the x-location of the margin guidelines.</text>
  <text style="stroke:none;fill:black;font-family:sans-serif;font-size:13;" transform="matrix(1 0 0 1 776 2007)">Modifications are automatically applied proportionally to all</text>
  <text style="stroke:none;fill:black;font-family:sans-serif;font-size:13;" transform="matrix(1 0 0 1 776 2025)">scales and weights.</text>
  <g transform="matrix(1 0 0 1 1289 1933)">
   <path d="M2.8418 1.86523L4.54102 3.57422Q5.18555 4.22852 5.90332 4.17969Q6.62109 4.13086 7.31445 3.35938L18.0078-8.42773L17.041-9.4043L6.42578 2.27539Q6.16211 2.57812 5.89355 2.61719Q5.625 2.65625 5.27344 2.30469L4.10156 1.14258Q3.75 0.791016 3.79395 0.522461Q3.83789 0.253906 4.14062-0.0195312L15.6152-10.8203L14.6387-11.7871L3.04688-0.898438Q2.30469-0.214844 2.25098 0.498047Q2.19727 1.21094 2.8418 1.86523ZM9.25781-16.3281Q8.94531-16.0254 8.90625-15.6348Q8.86719-15.2441 9.04297-14.9512Q9.21875-14.6777 9.55566-14.541Q9.89258-14.4043 10.3809-14.5215Q11.4746-14.7754 12.5977-14.7314Q13.7207-14.6875 14.7949-13.9844L14.209-12.5293Q13.9551-11.9043 14.0674-11.4404Q14.1797-10.9766 14.5801-10.5664L16.875-8.25195Q17.2363-7.88086 17.5781-7.82227Q17.9199-7.76367 18.3398-7.8418L19.4043-8.03711L20.0684-7.36328L20.0293-6.80664Q20-6.43555 20.1221-6.12305Q20.2441-5.81055 20.6055-5.44922L21.3672-4.70703Q21.7285-4.3457 22.1533-4.33105Q22.5781-4.31641 22.9297-4.66797L25.8398-7.58789Q26.1914-7.93945 26.1816-8.35449Q26.1719-8.76953 25.8105-9.13086L25.0391-9.89258Q24.6875-10.2539 24.3799-10.3857Q24.0723-10.5176 23.7109-10.4883L23.1348-10.4395L22.4902-11.0742L22.7344-12.1973Q22.832-12.6172 22.6953-12.9834Q22.5586-13.3496 22.1191-13.7891L19.9219-15.9766Q18.6719-17.2168 17.2607-17.8369Q15.8496-18.457 14.4189-18.4814Q12.9883-18.5059 11.665-17.959Q10.3418-17.4121 9.25781-16.3281ZM10.752-15.957Q11.6602-16.6211 12.7002-16.9043Q13.7402-17.1875 14.8047-17.085Q15.8691-16.9824 16.8701-16.5137Q17.8711-16.0449 18.7012-15.2051L21.1328-12.793Q21.3086-12.6172 21.3525-12.4512Q21.3965-12.2852 21.3379-12.0312L21.0156-10.5469L22.5195-9.0625L23.5059-9.12109Q23.6914-9.13086 23.7891-9.09668Q23.8867-9.0625 24.0332-8.91602L24.6094-8.33984L22.168-5.89844L21.5918-6.47461Q21.4453-6.62109 21.4062-6.71875Q21.3672-6.81641 21.377-7.01172L21.4453-7.98828L19.9512-9.47266L18.4277-9.21875Q18.1836-9.16992 18.042-9.2041Q17.9004-9.23828 17.7148-9.41406L15.7129-11.416Q15.5176-11.5918 15.4932-11.7529Q15.4688-11.9141 15.5859-12.1875L16.4648-14.2773Q15.293-15.3711 13.8281-15.791Q12.3633-16.2109 10.8398-15.7617Q10.7227-15.7324 10.6885-15.8057Q10.6543-15.8789 10.752-15.957Z"/>
  </g>
  <text style="stroke:none;fill:black;font-family:sans-serif;font-size:13;font-weight:bold;" transform="matrix(1 0 0 1 1289 1953)">Exporting</text>
  <text style="stroke:none;fill:black;font-family:sans-serif;font-size:13;" transform="matrix(1 0 0 1 1289 1971)">Symbols should be outlined when exporting to ensure the</text>
  <text style="stroke:none;fill:black;font-family:sans-serif;font-size:13;" transform="matrix(1 0 0 1 1289 1989)">design is preserved when submitting to Xcode.</text>
  <text id="template-version" style="stroke:none;fill:black;font-family:sans-serif;font-size:13;text-anchor:end;" transform="matrix(1 0 0 1 3036 1933)">Template v.3.0</text>
  <text style="stroke:none;fill:black;font-family:sans-serif;font-size:13;text-anchor:end;" transform="matrix(1 0 0 1 3036 1951)">Requires Xcode 13 or greater</text>
  <text id="descriptive-name" style="stroke:none;fill:black;font-family:sans-serif;font-size:13;text-anchor:end;" transform="matrix(1 0 0 1 3036 1969)">Generated from camera</text>
  <text style="stroke:none;fill:black;font-family:sans-serif;font-size:13;text-anchor:end;" transform="matrix(1 0 0 1 3036 1987)">Typeset at 100 points</text>
  <text style="stroke:none;fill:black;font-family:sans-serif;font-size:13;" transform="matrix(1 0 0 1 263 726)">Small</text>
  <text style="stroke:none;fill:black;font-family:sans-serif;font-size:13;" transform="matrix(1 0 0 1 263 1156)">Medium</text>
  <text style="stroke:none;fill:black;font-family:sans-serif;font-size:13;" transform="matrix(1 0 0 1 263 1586)">Large</text>
 </g>
 <g id="Guides">
  <g id="H-reference" style="fill:#27AAE1;stroke:none;" transform="matrix(1 0 0 1 339 696)">
   <path d="M0.993347 0L3.6377 0L29.3282-67.1326L30.0301-67.1326L30.0301-70.459L28.1227-70.459ZM11.6882-24.4797L46.9818-24.4797L46.2311-26.7288L12.4382-26.7288ZM55.1193 0L57.7637 0L30.6381-70.459L29.4327-70.459L29.4327-67.1326Z"/>
  </g>
  <line id="Baseline-S" style="fill:none;stroke:#27AAE1;opacity:1;stroke-width:0.5;" x1="263" x2="3036" y1="696" y2="696"/>
  <line id="Capline-S" style="fill:none;stroke:#27AAE1;opacity:1;stroke-width:0.5;" x1="263" x2="3036" y1="625.541" y2="625.541"/>
  <g id="H-reference" style="fill:#27AAE1;stroke:none;" transform="matrix(1 0 0 1 339 1126)">
   <path d="M0.993347 0L3.6377 0L29.3282-67.1326L30.0301-67.1326L30.0301-70.459L28.1227-70.459ZM11.6882-24.4797L46.9818-24.4797L46.2311-26.7288L12.4382-26.7288ZM55.1193 0L57.7637 0L30.6381-70.459L29.4327-70.459L29.4327-67.1326Z"/>
  </g>
  <line id="Baseline-M" style="fill:none;stroke:#27AAE1;opacity:1;stroke-width:0.5;" x1="263" x2="3036" y1="1126" y2="1126"/>
  <line id="Capline-M" style="fill:none;stroke:#27AAE1;opacity:1;stroke-width:0.5;" x1="263" x2="3036" y1="1055.54" y2="1055.54"/>
  <g id="H-reference" style="fill:#27AAE1;stroke:none;" transform="matrix(1 0 0 1 339 1556)">
   <path d="M0.993347 0L3.6377 0L29.3282-67.1326L30.0301-67.1326L30.0301-70.459L28.1227-70.459ZM11.6882-24.4797L46.9818-24.4797L46.2311-26.7288L12.4382-26.7288ZM55.1193 0L57.7637 0L30.6381-70.459L29.4327-70.459L29.4327-67.1326Z"/>
  </g>
  <line id="Baseline-L" style="fill:none;stroke:#27AAE1;opacity:1;stroke-width:0.5;" x1="263" x2="3036" y1="1556" y2="1556"/>
  <line id="Capline-L" style="fill:none;stroke:#27AAE1;opacity:1;stroke-width:0.5;" x1="263" x2="3036" y1="1485.54" y2="1485.54"/>
  <line id="left-margin-Regular-M" style="fill:none;stroke:#00AEEF;stroke-width:0.5;opacity:1.0;" x1="1377.44" x2="1377.44" y1="1030.79" y2="1150.12"/>
  <line id="right-margin-Regular-M" style="fill:none;stroke:#00AEEF;stroke-width:0.5;opacity:1.0;" x1="1522.25" x2="1522.25" y1="1030.79" y2="1150.12"/>
 </g>
 <g id="Symbols">
  <g id="Black-L" transform="matrix(1 0 0 1 2837.7 1556)">
   <path d="M39.8559 26.4225L151.547 26.4225Q162.893 26.4225 169.105 20.23Q175.317 14.0375 175.317 2.71277L175.317-63.8416Q175.317-75.1663 169.105-81.3478Q162.893-87.5293 151.547-87.5293L136.846-87.5293Q133.201-87.5293 131.21-88.2257Q129.218-88.9222 126.439-91.3594L121.64-95.809Q118.835-98.3655 115.793-99.4361Q112.75-100.507 108.144-100.507L83.2078-100.507Q78.5812-100.507 75.5484-99.4361Q72.5157-98.3655 69.7124-95.809L64.8913-91.3594Q62.1735-88.9235 60.1518-88.2264Q58.1301-87.5293 54.506-87.5293L39.8559-87.5293Q28.5079-87.5293 22.2959-81.3478Q16.084-75.1663 16.084-63.8416L16.084 2.71277Q16.084 14.0375 22.2959 20.23Q28.5079 26.4225 39.8559 26.4225ZM42.5866 6.42133Q39.3825 6.42133 37.7235 4.87256Q36.0645 3.3238 36.0645-0.121591L36.0645-60.9852Q36.0645-64.4903 37.7235-66.0196Q39.3825-67.5489 42.5866-67.5489L61.7209-67.5489Q65.9637-67.5489 68.3029-68.3847Q70.642-69.2206 73.0948-71.7408L77.4436-76.2073Q79.943-78.7156 82.0904-79.6202Q84.2378-80.5249 88.273-80.5249L103.057-80.5249Q107.094-80.5249 109.222-79.6202Q111.351-78.7156 113.654-76.3825L118.257-71.7408Q120.689-69.279 123.058-68.4139Q125.426-67.5489 129.631-67.5489L148.816-67.5489Q152.058-67.5489 153.687-66.0196Q155.317-64.4903 155.317-60.9852L155.317-0.121591Q155.317 3.3238 153.687 4.87256Q152.058 6.42133 148.816 6.42133ZM95.7013 0.452841Q104.843 0.452841 112.256-3.96817Q119.67-8.38918 124.08-15.8609Q128.491-23.3326 128.491-32.4379Q128.491-41.5808 124.081-49.0344Q119.671-56.4879 112.258-60.8985Q104.844-65.3092 95.7013-65.3092Q86.6167-65.3092 79.1748-60.8985Q71.733-56.4879 67.312-49.0344Q62.891-41.5808 62.891-32.4379Q62.891-23.3326 67.312-15.8609Q71.733-8.38918 79.1748-3.96817Q86.6167 0.452841 95.7013 0.452841ZM95.7013-16.6582Q91.394-16.6582 87.7998-18.7892Q84.2056-20.9202 82.0935-24.5144Q79.9813-28.1086 79.9813-32.4379Q79.9813-36.8243 82.0935-40.4088Q84.2056-43.9932 87.7894-46.0956Q91.3732-48.1981 95.7013-48.1981Q100.067-48.1981 103.632-46.0956Q107.197-43.9932 109.299-40.4088Q111.4-36.8243 111.4-32.4379Q111.4-28.1086 109.299-24.5144Q107.197-20.9202 103.632-18.7892Q100.067-16.6582 95.7013-16.6582ZM129.269-53.1613Q129.269-49.3216 131.988-46.6155Q134.707-43.9095 138.526-43.9861Q142.34-44.0432 145.03-46.6837Q147.72-49.3242 147.72-53.1613Q147.72-56.8961 145.001-59.6163Q142.282-62.3366 138.526-62.3366Q134.766-62.3366 132.017-59.6163Q129.269-56.8961 129.269-53.1613Z"/>
  </g>
  <g id="Heavy-L" transform="matrix(1 0 0 1 2541.6 1556)">
   <path d="M38.8328 25.5158L151.34 25.5158Q162.283 25.5158 168.183 19.6396Q174.083 13.7633 174.083 2.85629L174.083-63.5616Q174.083-74.4686 168.183-80.327Q162.283-86.1853 151.34-86.1853L135.824-86.1853Q132.151-86.1853 130.221-86.9224Q128.291-87.6595 125.658-90.0934L120.794-94.8428Q118.08-97.4046 115.101-98.5408Q112.122-99.677 107.475-99.677L82.5288-99.677Q77.8528-99.677 74.8853-98.5408Q71.9179-97.4046 69.2106-94.8428L64.3101-90.0934Q61.734-87.6655 59.7788-86.9254Q57.8237-86.1853 54.1806-86.1853L38.8328-86.1853Q27.8839-86.1853 21.984-80.327Q16.084-74.4686 16.084-63.5616L16.084 2.85629Q16.084 13.7633 21.984 19.6396Q27.8839 25.5158 38.8328 25.5158ZM40.957 7.98818Q37.368 7.98818 35.4749 6.20086Q33.5818 4.41354 33.5818 0.583243L33.5818-61.2528Q33.5818-65.1337 35.4749-66.9106Q37.368-68.6875 40.957-68.6875L60.2322-68.6875Q64.4707-68.6875 66.8759-69.5526Q69.2811-70.4178 71.7206-72.9707L76.2134-77.7052Q78.7632-80.3238 80.8896-81.2484Q83.0161-82.1731 87.0633-82.1731L102.905-82.1731Q106.958-82.1731 109.077-81.2484Q111.196-80.3238 113.583-77.8391L118.284-72.9707Q120.693-70.4624 123.121-69.5749Q125.548-68.6875 129.772-68.6875L149.216-68.6875Q152.82-68.6875 154.69-66.9106Q156.561-65.1337 156.561-61.2528L156.561 0.583243Q156.561 4.41354 154.69 6.20086Q152.82 7.98818 149.216 7.98818ZM95.0864 1.22706Q104.32 1.22706 111.828-3.24694Q119.336-7.72095 123.795-15.2734Q128.254-22.8259 128.254-32.051Q128.254-41.2909 123.798-48.839Q119.342-56.3871 111.834-60.8462Q104.326-65.3053 95.0864-65.3053Q85.8911-65.3053 78.364-60.8462Q70.8368-56.3871 66.3628-48.839Q61.8888-41.2909 61.8888-32.051Q61.8888-22.8259 66.3628-15.2734Q70.8368-7.72095 78.364-3.24694Q85.8911 1.22706 95.0864 1.22706ZM95.0864-13.9684Q90.1409-13.9684 86.0242-16.4024Q81.9075-18.8363 79.481-22.953Q77.0545-27.0697 77.0545-32.051Q77.0545-37.0709 79.481-41.1757Q81.9075-45.2806 86.0093-47.6952Q90.1111-50.1099 95.0864-50.1099Q100.077-50.1099 104.171-47.6952Q108.265-45.2806 110.677-41.1757Q113.089-37.0709 113.089-32.051Q113.089-27.0697 110.677-22.953Q108.265-18.8363 104.171-16.4024Q100.077-13.9684 95.0864-13.9684ZM129.49-53.3434Q129.49-49.6329 132.112-47.0379Q134.734-44.4428 138.415-44.5051Q142.072-44.5437 144.671-47.0944Q147.271-49.645 147.271-53.3434Q147.271-56.9256 144.649-59.5536Q142.027-62.1817 138.415-62.1817Q134.779-62.1817 132.135-59.5536Q129.49-56.9256 129.49-53.3434Z"/>
  </g>
  <g id="Bold-L" transform="matrix(1 0 0 1 2245.74 1556)">
   <path d="M37.5443 24.3864L150.942 24.3864Q161.355 24.3864 166.872 18.8927Q172.388 13.3991 172.388 3.03698L172.388-63.2542Q172.388-73.6163 166.872-79.0843Q161.355-84.5524 150.942-84.5524L134.461-84.5524Q130.748-84.5524 128.888-85.322Q127.027-86.0916 124.538-88.5448L119.577-93.6527Q116.954-96.2318 114.067-97.4227Q111.18-98.6136 106.506-98.6136L81.6167-98.6136Q76.9055-98.6136 74.0298-97.4227Q71.1542-96.2318 68.5457-93.6527L63.5334-88.5448Q61.1014-86.1058 59.2192-85.3291Q57.3371-84.5524 53.6613-84.5524L37.5443-84.5524Q27.1168-84.5524 21.6004-79.0843Q16.084-73.6163 16.084-63.2542L16.084 3.03698Q16.084 13.3991 21.6004 18.8927Q27.1168 24.3864 37.5443 24.3864ZM38.9901 9.91361Q34.9043 9.91361 32.712 7.82346Q30.5198 5.73331 30.5198 1.40624L30.5198-61.5722Q30.5198-65.9427 32.712-68.0297Q34.9043-70.1166 38.9901-70.1166L58.3077-70.1166Q62.5472-70.1166 65.0163-71.0029Q67.4853-71.8893 69.9186-74.4904L74.6012-79.5536Q77.2044-82.2955 79.3032-83.2295Q81.402-84.1636 85.4279-84.1636L102.643-84.1636Q106.683-84.1636 108.786-83.2295Q110.889-82.2955 113.367-79.6412L118.204-74.4904Q120.6-71.9185 123.084-71.0175Q125.567-70.1166 129.815-70.1166L149.496-70.1166Q153.574-70.1166 155.752-68.0297Q157.93-65.9427 157.93-61.5722L157.93 1.40624Q157.93 5.73331 155.752 7.82346Q153.574 9.91361 149.496 9.91361ZM94.2432 2.1363Q103.586 2.1363 111.207-2.39986Q118.828-6.93602 123.345-14.5861Q127.863-22.2362 127.863-31.601Q127.863-40.958 123.353-48.619Q118.842-56.2801 111.221-60.7978Q103.6-65.3155 94.2432-65.3155Q84.9154-65.3155 77.2871-60.7978Q69.6587-56.2801 65.1225-48.619Q60.5864-40.958 60.5864-31.601Q60.5864-22.2362 65.1225-14.5861Q69.6587-6.93602 77.2871-2.39986Q84.9154 2.1363 94.2432 2.1363ZM94.2432-10.6659Q88.506-10.6659 83.743-13.4761Q78.9799-16.2864 76.1657-21.0495Q73.3516-25.8126 73.3516-31.601Q73.3516-37.4043 76.1657-42.156Q78.9799-46.9077 83.7245-49.7105Q88.4691-52.5133 94.2432-52.5133Q100.01-52.5133 104.758-49.7105Q109.507-46.9077 112.302-42.156Q115.098-37.4043 115.098-31.601Q115.098-25.8126 112.302-21.0495Q109.507-16.2864 104.758-13.4761Q100.01-10.6659 94.2432-10.6659ZM129.663-53.5154Q129.663-49.9611 132.168-47.5031Q134.673-45.0451 138.19-45.0829Q141.651-45.0978 144.141-47.5437Q146.631-49.9895 146.631-53.5154Q146.631-56.9097 144.126-59.4289Q141.621-61.948 138.19-61.948Q134.702-61.948 132.182-59.4289Q129.663-56.9097 129.663-53.5154Z"/>
  </g>
  <g id="Semibold-L" transform="matrix(1 0 0 1 1949.61 1556)">
   <path d="M36.6561 23.6077L150.668 23.6077Q160.716 23.6077 165.968 18.3778Q171.22 13.1479 171.22 3.16154L171.22-63.0423Q171.22-73.0286 165.968-78.2276Q160.716-83.4266 150.668-83.4266L133.522-83.4266Q129.781-83.4266 127.969-84.2186Q126.156-85.0107 123.765-87.4771L118.738-92.8322Q116.177-95.4233 113.354-96.6519Q110.53-97.8805 105.837-97.8805L80.9879-97.8805Q76.2524-97.8805 73.44-96.6519Q70.6277-95.4233 68.0873-92.8322L62.998-87.4771Q60.6652-85.0306 58.8334-84.2286Q57.0016-83.4266 53.3032-83.4266L36.6561-83.4266Q26.588-83.4266 21.336-78.2276Q16.084-73.0286 16.084-63.0423L16.084 3.16154Q16.084 13.1479 21.336 18.3778Q26.588 23.6077 36.6561 23.6077ZM37.6342 11.241Q33.2059 11.241 30.8073 8.94207Q28.4088 6.64315 28.4088 1.97361L28.4088-61.7925Q28.4088-66.5005 30.8073-68.8012Q33.2059-71.1018 37.6342-71.1018L56.981-71.1018Q61.2212-71.1018 63.7342-72.0028Q66.2473-72.9038 68.6763-75.5381L73.4897-80.8278Q76.1299-83.6548 78.2095-84.5953Q80.2892-85.5358 84.3006-85.5358L102.462-85.5358Q106.494-85.5358 108.585-84.5953Q110.676-83.6548 113.219-80.8835L118.149-75.5381Q120.536-72.9223 123.058-72.0121Q125.58-71.1018 129.844-71.1018L149.69-71.1018Q154.095-71.1018 156.484-68.8012Q158.873-66.5005 158.873-61.7925L158.873 1.97361Q158.873 6.64315 156.484 8.94207Q154.095 11.241 149.69 11.241ZM93.6619 2.76313Q103.08 2.76313 110.779-1.81588Q118.477-6.39489 123.035-14.1122Q127.593-21.8296 127.593-31.2907Q127.593-40.7284 123.045-48.4674Q118.497-56.2064 110.798-60.7644Q103.1-65.3224 93.6619-65.3224Q84.2428-65.3224 76.5447-60.7644Q68.8465-56.2064 64.2675-48.4674Q59.6885-40.7284 59.6885-31.2907Q59.6885-21.8296 64.2675-14.1122Q68.8465-6.39489 76.5447-1.81588Q84.2428 2.76313 93.6619 2.76313ZM93.6619-8.38913Q87.379-8.38913 82.1703-11.4588Q76.9616-14.5285 73.8802-19.7372Q70.7988-24.9459 70.7988-31.2907Q70.7988-37.6342 73.8802-42.8318Q76.9616-48.0295 82.1493-51.0998Q87.337-54.1702 93.6619-54.1702Q99.9634-54.1702 105.163-51.0998Q110.362-48.0295 113.423-42.8318Q116.483-37.6342 116.483-31.2907Q116.483-24.9459 113.423-19.7372Q110.362-14.5285 105.163-11.4588Q99.9634-8.38913 93.6619-8.38913ZM129.782-53.634Q129.782-50.1873 132.206-47.8238Q134.63-45.4604 138.035-45.4812Q141.36-45.4799 143.775-47.8535Q146.19-50.2271 146.19-53.634Q146.19-56.8988 143.766-59.3428Q141.342-61.7869 138.035-61.7869Q134.649-61.7869 132.215-59.3428Q129.782-56.8988 129.782-53.634Z"/>
  </g>
  <g id="Medium-L" transform="matrix(1 0 0 1 1653.34 1556)">
   <path d="M35.9826 23.0174L150.46 23.0174Q160.231 23.0174 165.283 17.9874Q170.334 12.9575 170.334 3.25599L170.334-62.8816Q170.334-72.5831 165.283-77.5781Q160.231-82.573 150.46-82.573L132.809-82.573Q129.048-82.573 127.272-83.3821Q125.495-84.1911 123.179-86.6676L118.101-92.2101Q115.588-94.8102 112.813-96.0674Q110.038-97.3246 105.33-97.3246L80.5111-97.3246Q75.7572-97.3246 72.9928-96.0674Q70.2284-94.8102 67.7397-92.2101L62.592-86.6676Q60.3345-84.2152 58.5409-83.3941Q56.7472-82.573 53.0317-82.573L35.9826-82.573Q26.187-82.573 21.1355-77.5781Q16.084-72.5831 16.084-62.8816L16.084 3.25599Q16.084 12.9575 21.1355 17.9874Q26.187 23.0174 35.9826 23.0174ZM36.606 12.2475Q31.9181 12.2475 29.3631 9.79025Q26.8081 7.33303 26.8081 2.40381L26.8081-61.9595Q26.8081-66.9234 29.3631-69.3861Q31.9181-71.8489 36.606-71.8489L55.9751-71.8489Q60.2157-71.8489 62.7622-72.7609Q65.3086-73.673 67.7343-76.3325L72.647-81.794Q75.3151-84.6854 77.3803-85.6309Q79.4455-86.5763 83.4457-86.5763L102.325-86.5763Q106.35-86.5763 108.433-85.6309Q110.515-84.6854 113.106-81.8255L118.107-76.3325Q120.487-73.6835 123.038-72.7662Q125.59-71.8489 129.866-71.8489L149.836-71.8489Q154.489-71.8489 157.039-69.3861Q159.588-66.9234 159.588-61.9595L159.588 2.40381Q159.588 7.33303 157.039 9.79025Q154.489 12.2475 149.836 12.2475ZM93.2212 3.23842Q102.696 3.23842 110.454-1.37308Q118.212-5.98459 122.8-13.7529Q127.389-21.5213 127.389-31.0554Q127.389-40.5544 122.812-48.3524Q118.236-56.1505 110.478-60.7391Q102.72-65.3277 93.2212-65.3277Q83.7327-65.3277 75.9817-60.7391Q68.2307-56.1505 63.6192-48.3524Q59.0077-40.5544 59.0077-31.0554Q59.0077-21.5213 63.6192-13.7529Q68.2307-5.98459 75.9817-1.37308Q83.7327 3.23842 93.2212 3.23842ZM93.2212-6.6628Q86.5244-6.6628 80.9778-9.9292Q75.4312-13.1956 72.1472-18.7422Q68.8632-24.2888 68.8632-31.0554Q68.8632-37.8085 72.1472-43.3443Q75.4312-48.88 80.9549-52.1533Q86.4787-55.4265 93.2212-55.4265Q99.9285-55.4265 105.47-52.1533Q111.011-48.88 114.272-43.3443Q117.533-37.8085 117.533-31.0554Q117.533-24.2888 114.272-18.7422Q111.011-13.1956 105.47-9.9292Q99.9285-6.6628 93.2212-6.6628ZM129.872-53.724Q129.872-50.3588 132.235-48.067Q134.598-45.7752 137.917-45.7832Q141.14-45.7695 143.498-48.0883Q145.856-50.4071 145.856-53.724Q145.856-56.8905 143.493-59.2776Q141.13-61.6648 137.917-61.6648Q134.608-61.6648 132.24-59.2776Q129.872-56.8905 129.872-53.724Z"/>
  </g>
  <g id="Regular-L" transform="matrix(1 0 0 1 1357.21 1556)">
   <path d="M35.1041 22.2473L150.188 22.2473Q159.599 22.2473 164.389 17.4782Q169.179 12.7092 169.179 3.37919L169.179-62.672Q169.179-72.0019 164.389-76.7308Q159.599-81.4596 150.188-81.4596L131.88-81.4596Q128.092-81.4596 126.363-82.2909Q124.634-83.1221 122.415-85.6117L117.272-91.3986Q114.82-94.0106 112.108-95.3051Q109.396-96.5995 104.669-96.5995L79.8892-96.5995Q75.1114-96.5995 72.4096-95.3051Q69.7077-94.0106 67.2863-91.3986L62.0624-85.6117Q59.9032-83.1518 58.1593-82.3057Q56.4154-81.4596 52.6776-81.4596L35.1041-81.4596Q25.664-81.4596 20.874-76.7308Q16.084-72.0019 16.084-62.672L16.084 3.37919Q16.084 12.7092 20.874 17.4782Q25.664 22.2473 35.1041 22.2473ZM35.265 13.5603Q30.2383 13.5603 27.4793 10.8966Q24.7203 8.23287 24.7203 2.96494L24.7203-62.1773Q24.7203-67.4749 27.4793-70.1491Q30.2383-72.8233 35.265-72.8233L54.6629-72.8233Q58.9042-72.8233 61.4942-73.7498Q64.0842-74.6763 66.5056-77.3687L71.5478-83.0542Q74.2523-86.0297 76.2986-86.9816Q78.3449-87.9334 82.3307-87.9334L102.147-87.9334Q106.162-87.9334 108.234-86.9816Q110.306-86.0297 112.959-83.0542L118.052-77.3687Q120.423-74.6763 123.013-73.7498Q125.603-72.8233 129.895-72.8233L150.028-72.8233Q155.004-72.8233 157.763-70.1491Q160.522-67.4749 160.522-62.1773L160.522 2.96494Q160.522 8.23287 157.763 10.8966Q155.004 13.5603 150.028 13.5603ZM92.6463 3.85836Q102.195 3.85836 110.03-0.795525Q117.865-5.44941 122.494-13.2843Q127.122-21.1191 127.122-30.7486Q127.122-40.3274 122.508-48.2024Q117.895-56.0775 110.06-60.7061Q102.225-65.3346 92.6463-65.3346Q83.0675-65.3346 75.2475-60.7061Q67.4275-56.0775 62.7736-48.2024Q58.1197-40.3274 58.1197-30.7486Q58.1197-21.1191 62.7736-13.2843Q67.4275-5.44941 75.2475-0.795525Q83.0675 3.85836 92.6463 3.85836ZM92.6463-4.41107Q85.4097-4.41107 79.4224-7.93405Q73.4351-11.457 69.8868-17.4443Q66.3385-23.4316 66.3385-30.7486Q66.3385-38.0358 69.8868-44.0126Q73.4351-49.9895 79.3971-53.5273Q85.359-57.0652 92.6463-57.0652Q99.8828-57.0652 105.87-53.5273Q111.857-49.9895 115.38-44.0126Q118.903-38.0358 118.903-30.7486Q118.903-23.4316 115.38-17.4443Q111.857-11.457 105.87-7.93405Q99.8828-4.41107 92.6463-4.41107ZM129.99-53.8413Q129.99-50.5826 132.273-48.3842Q134.556-46.1859 137.764-46.1771Q140.853-46.1473 143.136-48.3947Q145.419-50.6421 145.419-53.8413Q145.419-56.8796 143.136-59.1925Q140.853-61.5054 137.764-61.5054Q134.556-61.5054 132.273-59.1925Q129.99-56.8796 129.99-53.8413Z"/>
  </g>
  <g id="Light-L" transform="matrix(1 0 0 1 1061.62 1556)">
   <path d="M34.078 21.4264L148.998 21.4264Q157.854 21.4264 162.398 16.8626Q166.942 12.2987 166.942 3.52284L166.942-62.713Q166.942-71.4889 162.398-76.0125Q157.854-80.5362 148.998-80.5362L130.321-80.5362Q126.471-80.5362 124.742-81.275Q123.012-82.0139 120.65-84.6677L115.342-90.6188Q112.809-93.3128 110.251-94.4739Q107.692-95.635 103.088-95.635L78.8016-95.635Q74.1674-95.635 71.5989-94.4739Q69.0305-93.3128 66.5476-90.6188L61.1594-84.6677Q58.8976-82.0641 57.1435-81.3001Q55.3893-80.5362 51.5694-80.5362L34.078-80.5362Q25.1715-80.5362 20.6277-76.0125Q16.084-71.4889 16.084-62.713L16.084 3.52284Q16.084 12.2987 20.6277 16.8626Q25.1715 21.4264 34.078 21.4264ZM34.2389 14.7916Q28.7402 14.7916 25.7144 11.8714Q22.6887 8.95114 22.6887 3.21121L22.6887-62.3209Q22.6887-68.1111 25.7144-71.0213Q28.7402-73.9315 34.2389-73.9315L52.816-73.9315Q57.0983-73.9315 59.6165-74.7759Q62.1346-75.6203 64.6176-78.3948L69.865-84.2855Q72.549-87.2611 74.5645-88.1206Q76.58-88.9801 80.3196-88.9801L101.49-88.9801Q105.28-88.9801 107.31-88.1206Q109.341-87.2611 111.995-84.2855L117.272-78.3948Q119.725-75.6203 122.243-74.7759Q124.762-73.9315 129.074-73.9315L148.837-73.9315Q154.306-73.9315 157.332-71.0213Q160.357-68.1111 160.357-62.3209L160.357 3.21121Q160.357 8.95114 157.332 11.8714Q154.306 14.7916 148.837 14.7916ZM91.5381 4.16619Q101.128 4.16619 109.014-0.508217Q116.9-5.18262 121.56-13.0688Q126.219-20.955 126.219-30.6255Q126.219-40.2658 121.585-48.1922Q116.951-56.1186 109.065-60.7779Q101.178-65.4372 91.5381-65.4372Q81.8977-65.4372 74.0367-60.7779Q66.1757-56.1186 61.5013-48.1922Q56.8268-40.2658 56.8268-30.6255Q56.8268-20.955 61.5013-13.0688Q66.1757-5.18262 74.0367-0.508217Q81.8977 4.16619 91.5381 4.16619ZM91.5381-2.31783Q83.7474-2.31783 77.3189-6.1076Q70.8904-9.89736 67.0856-16.3259Q63.2807-22.7544 63.2807-30.6255Q63.2807-38.4463 67.0856-44.8848Q70.8904-51.3234 77.3038-55.1383Q83.7173-58.9532 91.5381-58.9532Q99.3287-58.9532 105.757-55.1383Q112.186-51.3234 115.976-44.8848Q119.765-38.4463 119.765-30.6255Q119.765-22.7544 115.976-16.3259Q112.186-9.89736 105.757-6.1076Q99.3287-2.31783 91.5381-2.31783ZM129.456-53.6155Q129.456-50.4389 131.678-48.3329Q133.899-46.2269 137.046-46.1566Q139.991-46.1063 142.213-48.3229Q144.434-50.5394 144.434-53.6155Q144.434-56.5308 142.213-58.8026Q139.991-61.0745 137.046-61.0745Q133.899-61.0745 131.678-58.8026Q129.456-56.5308 129.456-53.6155Z"/>
  </g>
  <g id="Thin-L" transform="matrix(1 0 0 1 766.381 1556)">
   <path d="M32.7209 20.3407L147.424 20.3407Q155.547 20.3407 159.765 16.0483Q163.983 11.7559 163.983 3.71284L163.983-62.7673Q163.983-70.8103 159.765-75.0625Q155.547-79.3148 147.424-79.3148L128.258-79.3148Q124.326-79.3148 122.597-79.9315Q120.868-80.5482 118.316-83.4192L112.791-89.5874Q110.149-92.39 107.795-93.3747Q105.44-94.3593 100.999-94.3593L77.363-94.3593Q72.9188-94.3593 70.5268-93.3747Q68.1348-92.39 65.5704-89.5874L59.9652-83.4192Q57.5677-80.6256 55.7999-79.9702Q54.0322-79.3148 50.1037-79.3148L32.7209-79.3148Q24.5201-79.3148 20.302-75.0625Q16.084-70.8103 16.084-62.7673L16.084 3.71284Q16.084 11.7559 20.302 16.0483Q24.5201 20.3407 32.7209 20.3407ZM32.8818 16.4201Q26.7588 16.4201 23.3802 13.1606Q20.0016 9.9011 20.0016 3.53691L20.0016-62.5109Q20.0016-68.9525 23.3802-72.1748Q26.7588-75.3971 32.8818-75.3971L50.3732-75.3971Q54.7098-75.3971 57.133-76.133Q59.5561-76.8688 62.1205-79.7519L67.6393-85.914Q70.2962-88.8896 72.271-89.6269Q74.2458-90.3643 77.6597-90.3643L100.621-90.3643Q104.113-90.3643 106.089-89.6269Q108.065-88.8896 110.719-85.914L116.241-79.7519Q118.802-76.8688 121.226-76.133Q123.649-75.3971 127.988-75.3971L147.263-75.3971Q153.383-75.3971 156.762-72.1748Q160.14-68.9525 160.14-62.5109L160.14 3.53691Q160.14 9.9011 156.762 13.1606Q153.383 16.4201 147.263 16.4201ZM90.0724 4.57332Q99.7168 4.57332 107.671-0.12823Q115.625-4.82978 120.325-12.7838Q125.025-20.7378 125.025-30.4626Q125.025-40.1844 120.364-48.1786Q115.702-56.1728 107.748-60.8729Q99.7942-65.5729 90.0724-65.5729Q80.3507-65.5729 72.4353-60.8729Q64.52-56.1728 59.8185-48.1786Q55.1169-40.1844 55.1169-30.4626Q55.1169-20.7378 59.8185-12.7838Q64.52-4.82978 72.4353-0.12823Q80.3507 4.57332 90.0724 4.57332ZM90.0724 0.450647Q81.549 0.450647 74.5369-3.69196Q67.5248-7.83457 63.3807-14.8467Q59.2366-21.8587 59.2366-30.4626Q59.2366-38.9891 63.3807-46.0384Q67.5248-53.0876 74.5354-57.2689Q81.5459-61.4503 90.0724-61.4503Q98.5959-61.4503 105.608-57.2689Q112.62-53.0876 116.763-46.0384Q120.905-38.9891 120.905-30.4626Q120.905-21.8587 116.763-14.8467Q112.62-7.83457 105.608-3.69196Q98.5959 0.450647 90.0724 0.450647ZM128.75-53.317Q128.75-50.2489 130.891-48.2651Q133.031-46.2812 136.096-46.1294Q138.851-46.052 140.991-48.2279Q143.131-50.4037 143.131-53.317Q143.131-56.0693 140.991-58.2869Q138.851-60.5045 136.096-60.5045Q133.031-60.5045 130.891-58.2869Q128.75-56.0693 128.75-53.317Z"/>
  </g>
  <g id="Ultralight-L" transform="matrix(1 0 0 1 470.426 1556)">
   <path d="M32.0258 19.7847L146.618 19.7847Q154.366 19.7847 158.417 15.6313Q162.468 11.4778 162.468 3.81015L162.468-62.7951Q162.468-70.4628 158.417-74.576Q154.366-78.6892 146.618-78.6892L127.201-78.6892Q123.228-78.6892 121.499-79.2433Q119.77-79.7975 117.12-82.7797L111.484-89.0591Q108.787-91.9174 106.536-92.8116Q104.286-93.7059 99.9281-93.7059L76.6262-93.7059Q72.2793-93.7059 69.9777-92.8116Q67.6761-91.9174 65.07-89.0591L59.3535-82.7797Q56.8865-79.8888 55.1118-79.289Q53.3371-78.6892 49.353-78.6892L32.0258-78.6892Q24.1864-78.6892 20.1352-74.576Q16.084-70.4628 16.084-62.7951L16.084 3.81015Q16.084 11.4778 20.1352 15.6313Q24.1864 19.7847 32.0258 19.7847ZM32.1867 17.2542Q25.744 17.2542 22.1847 13.8209Q18.6253 10.3877 18.6253 3.70373L18.6253-62.6082Q18.6253-69.3835 22.1847-72.7657Q25.744-76.1478 32.1867-76.1478L49.122-76.1478Q53.4864-76.1478 55.8609-76.8281Q58.2354-77.5083 60.8415-80.447L66.4994-86.7482Q69.1423-89.7237 71.0963-90.3985Q73.0503-91.0733 76.2973-91.0733L100.177-91.0733Q103.515-91.0733 105.463-90.3985Q107.412-89.7237 110.066-86.7482L115.713-80.447Q118.33-77.5083 120.704-76.8281Q123.079-76.1478 127.432-76.1478L146.457-76.1478Q152.91-76.1478 156.47-72.7657Q160.029-69.3835 160.029-62.6082L160.029 3.70373Q160.029 10.3877 156.47 13.8209Q152.91 17.2542 146.457 17.2542ZM89.3217 4.78185Q98.9939 4.78185 106.983 0.0663976Q114.971-4.64905 119.692-12.6378Q124.413-20.6266 124.413-30.3792Q124.413-40.1427 119.738-48.1717Q115.063-56.2007 107.074-60.9215Q99.0852-65.6424 89.3217-65.6424Q79.5582-65.6424 71.6151-60.9215Q63.672-56.2007 58.9565-48.1717Q54.2411-40.1427 54.2411-30.3792Q54.2411-20.6266 58.9565-12.6378Q63.672-4.64905 71.6151 0.0663976Q79.5582 4.78185 89.3217 4.78185ZM89.3217 1.86865Q80.4229 1.86865 73.1119-2.45469Q65.8009-6.77802 61.4831-14.089Q57.1652-21.4 57.1652-30.3792Q57.1652-39.2671 61.4831-46.6292Q65.8009-53.9913 73.1174-58.3602Q80.4338-62.7292 89.3217-62.7292Q98.2205-62.7292 105.531-58.3602Q112.842-53.9913 117.166-46.6292Q121.489-39.2671 121.489-30.3792Q121.489-21.4 117.166-14.089Q112.842-6.77802 105.531-2.45469Q98.2205 1.86865 89.3217 1.86865ZM128.389-53.164Q128.389-50.1516 130.487-48.2303Q132.586-46.309 135.609-46.1155Q138.267-46.0242 140.366-48.1792Q142.464-50.3342 142.464-53.164Q142.464-55.833 140.366-58.0228Q138.267-60.2126 135.609-60.2126Q132.586-60.2126 130.487-58.0228Q128.389-55.833 128.389-53.164Z"/>
  </g>
  <g id="Black-M" transform="matrix(1 0 0 1 2858.88 1126)">
   <path d="M31.6183 13.203L117.426 13.203Q126.489 13.203 131.536 8.16134Q136.583 3.11973 136.583-5.93791L136.583-57.6427Q136.583-66.7003 131.536-71.7393Q126.489-76.7783 117.426-76.7783L106.688-76.7783Q103.88-76.7783 102.283-77.2704Q100.687-77.7625 98.3893-79.6759L94.7053-82.8876Q92.4429-84.875 90.0523-85.6299Q87.6617-86.3848 84.1448-86.3848L64.9008-86.3848Q61.3783-86.3848 58.9906-85.6299Q56.6029-84.875 54.3403-82.8876L50.6511-79.6759Q48.4098-77.7622 46.785-77.2703Q45.1601-76.7783 42.3576-76.7783L31.6183-76.7783Q22.5558-76.7783 17.5084-71.7393Q12.4609-66.7003 12.4609-57.6427L12.4609-5.93791Q12.4609 3.11973 17.5084 8.16134Q22.5558 13.203 31.6183 13.203ZM34.2552-4.14063Q32.0397-4.14063 30.9193-5.17025Q29.799-6.19988 29.799-8.60232L29.799-54.973Q29.799-57.4323 30.9193-58.4363Q32.0397-59.4402 34.2552-59.4402L48.8471-59.4402Q52.1434-59.4402 53.8891-60.0516Q55.6348-60.6629 57.5549-62.5984L60.8281-65.8562Q62.7184-67.7047 64.3959-68.3759Q66.0734-69.0471 69.156-69.0471L79.8843-69.0471Q82.9667-69.0471 84.6184-68.3759Q86.27-67.7047 87.9835-66.0275L91.4907-62.5984Q93.4053-60.72 95.1795-60.0801Q96.9538-59.4402 100.199-59.4402L114.789-59.4402Q117.056-59.4402 118.148-58.4363Q119.24-57.4323 119.24-54.973L119.24-8.60232Q119.24-6.19988 118.148-5.17025Q117.056-4.14063 114.789-4.14063ZM74.522-8.20857Q81.5308-8.20857 87.1999-11.5909Q92.8689-14.9733 96.2485-20.6995Q99.6282-26.4256 99.6282-33.3825Q99.6282-40.391 96.2484-46.0912Q92.8686-51.7914 87.1996-55.171Q81.5305-58.5507 74.522-58.5507Q67.5707-58.5507 61.8729-55.171Q56.1751-51.7914 52.7928-46.0912Q49.4104-40.391 49.4104-33.3825Q49.4104-26.4256 52.7928-20.6995Q56.1751-14.9733 61.8729-11.5909Q67.5707-8.20857 74.522-8.20857ZM74.522-22.8697Q71.6584-22.8697 69.2632-24.2964Q66.8679-25.7232 65.4669-28.1184Q64.066-30.5137 64.066-33.3825Q64.066-36.3087 65.4669-38.7011Q66.8679-41.0935 69.2604-42.4915Q71.6529-43.8895 74.522-43.8895Q77.4427-43.8895 79.8095-42.4915Q82.1762-41.0935 83.5744-38.7011Q84.9726-36.3087 84.9726-33.3825Q84.9726-30.5137 83.5744-28.1184Q82.1762-25.7232 79.8095-24.2964Q77.4427-22.8697 74.522-22.8697ZM99.8879-48.935Q99.8879-45.8602 102.069-43.6808Q104.251-41.5015 107.32-41.5647Q110.391-41.6221 112.544-43.7408Q114.697-45.8596 114.697-48.935Q114.697-51.9428 112.515-54.124Q110.334-56.3052 107.32-56.3052Q104.308-56.3052 102.098-54.124Q99.8879-51.9428 99.8879-48.935Z"/>
  </g>
  <g id="Heavy-M" transform="matrix(1 0 0 1 2562.67 1126)">
   <path d="M30.7128 12.3923L117.334 12.3923Q126.053 12.3923 130.818 7.64094Q135.583 2.88957 135.583-5.81086L135.583-57.3652Q135.583-66.0656 130.818-70.8076Q126.053-75.5497 117.334-75.5497L105.832-75.5497Q103.003-75.5497 101.467-76.09Q99.9308-76.6304 97.789-78.5253L94.0561-82.0151Q91.8905-84 89.5475-84.8313Q87.2045-85.6627 83.6366-85.6627L64.3373-85.6627Q60.7533-85.6627 58.4172-84.8313Q56.081-84 53.9179-82.0151L50.1663-78.5253Q48.073-76.6328 46.5141-76.0912Q44.9552-75.5497 42.1417-75.5497L30.7128-75.5497Q21.9913-75.5497 17.2261-70.8076Q12.4609-66.0656 12.4609-57.3652L12.4609-5.81086Q12.4609 2.88957 17.2261 7.64094Q21.9913 12.3923 30.7128 12.3923ZM32.7568-2.72252Q30.2085-2.72252 28.884-3.96168Q27.5595-5.20084 27.5595-7.93601L27.5595-55.2213Q27.5595-58.0026 28.884-59.2268Q30.2085-60.4511 32.7568-60.4511L47.5621-60.4511Q50.8504-60.4511 52.6673-61.0986Q54.4843-61.7461 56.3857-63.706L59.7807-67.2069Q61.7222-69.1632 63.382-69.8625Q65.0419-70.5617 68.1589-70.5617L79.7964-70.5617Q82.9158-70.5617 84.562-69.8625Q86.2082-69.1632 88.0025-67.3378L91.5883-63.706Q93.4735-61.7897 95.3122-61.1204Q97.151-60.4511 100.412-60.4511L115.29-60.4511Q117.865-60.4511 119.168-59.2268Q120.471-58.0026 120.471-55.2213L120.471-7.93601Q120.471-5.20084 119.168-3.96168Q117.865-2.72252 115.29-2.72252ZM74.0232-7.48012Q81.1183-7.48012 86.8751-10.9124Q92.6319-14.3447 96.0561-20.1451Q99.4803-25.9455 99.4803-33.0157Q99.4803-40.1132 96.0573-45.9012Q92.6344-51.6891 86.8776-55.1133Q81.1208-58.5375 74.0232-58.5375Q66.9693-58.5375 61.1919-55.1133Q55.4145-51.6891 51.9823-45.9012Q48.55-40.1132 48.55-33.0157Q48.55-25.9455 51.9823-20.1451Q55.4145-14.3447 61.1919-10.9124Q66.9693-7.48012 74.0232-7.48012ZM74.0232-20.4333Q70.5868-20.4333 67.7215-22.1316Q64.8561-23.8299 63.1715-26.6952Q61.4869-29.5606 61.4869-33.0157Q61.4869-36.5119 63.1715-39.3704Q64.8561-42.2289 67.7134-43.9066Q70.5706-45.5843 74.0232-45.5843Q77.5032-45.5843 80.3468-43.9066Q83.1904-42.2289 84.8668-39.3704Q86.5433-36.5119 86.5433-33.0157Q86.5433-29.5606 84.8668-26.6952Q83.1904-23.8299 80.3468-22.1316Q77.5032-20.4333 74.0232-20.4333ZM100.153-49.1338Q100.153-46.1778 102.246-44.0984Q104.338-42.019 107.278-42.074Q110.208-42.1152 112.278-44.1489Q114.349-46.1827 114.349-49.1338Q114.349-52.0039 112.257-54.0987Q110.164-56.1936 107.278-56.1936Q104.382-56.1936 102.268-54.0987Q100.153-52.0039 100.153-49.1338Z"/>
  </g>
  <g id="Bold-M" transform="matrix(1 0 0 1 2266.51 1126)">
   <path d="M29.6999 11.4855L117.231 11.4855Q125.565 11.4855 130.015 7.05878Q134.464 2.6321 134.464-5.66875L134.464-57.0548Q134.464-65.3556 130.015-69.7654Q125.565-74.1752 117.231-74.1752L104.875-74.1752Q102.021-74.1752 100.553-74.7696Q99.0849-75.3639 97.1175-77.2383L93.3299-81.0391Q91.2726-83.0211 88.9828-83.938Q86.6929-84.855 83.0682-84.855L63.7071-84.855Q60.0541-84.855 57.7756-83.938Q55.4972-83.0211 53.4454-81.0391L49.624-77.2383Q47.6962-75.3695 46.2111-74.7724Q44.7261-74.1752 41.9003-74.1752L29.6999-74.1752Q21.3597-74.1752 16.9103-69.7654Q12.4609-65.3556 12.4609-57.0548L12.4609-5.66875Q12.4609 2.6321 16.9103 7.05878Q21.3597 11.4855 29.6999 11.4855ZM31.0806-1.13616Q28.1601-1.13616 26.6072-2.60972Q25.0543-4.08328 25.0543-7.19066L25.0543-55.4991Q25.0543-58.6406 26.6072-60.1112Q28.1601-61.5819 31.0806-61.5819L46.1246-61.5819Q49.404-61.5819 51.3006-62.2698Q53.1972-62.9578 55.0777-64.9451L58.6091-68.7179Q60.6077-70.7948 62.2479-71.5254Q63.8881-72.2561 67.0436-72.2561L79.698-72.2561Q82.8589-72.2561 84.499-71.5254Q86.139-70.7948 88.0238-68.8036L91.6975-64.9451Q93.5498-62.9863 95.4607-62.2841Q97.3715-61.5819 100.651-61.5819L115.85-61.5819Q118.771-61.5819 120.309-60.1112Q121.848-58.6406 121.848-55.4991L121.848-7.19066Q121.848-4.08328 120.309-2.60972Q118.771-1.13616 115.85-1.13616ZM73.4652-6.66524Q80.6569-6.66524 86.5119-10.1534Q92.3668-13.6415 95.8408-19.5249Q99.3148-25.4084 99.3148-32.6053Q99.3148-39.8025 95.8435-45.6886Q92.3723-51.5747 86.5174-55.0487Q80.6625-58.5227 73.4652-58.5227Q66.2966-58.5227 60.4301-55.0487Q54.5637-51.5747 51.0756-45.6886Q47.5875-39.8025 47.5875-32.6053Q47.5875-25.4084 51.0756-19.5249Q54.5637-13.6415 60.4301-10.1534Q66.2966-6.66524 73.4652-6.66524ZM73.4652-17.7078Q69.3881-17.7078 65.9969-19.7099Q62.6056-21.712 60.6037-25.1032Q58.6018-28.4944 58.6018-32.6053Q58.6018-36.7393 60.6037-40.1191Q62.6056-43.499 65.9827-45.4895Q69.3599-47.4801 73.4652-47.4801Q77.5709-47.4801 80.9479-45.4895Q84.3249-43.499 86.3126-40.1191Q88.3004-36.7393 88.3004-32.6053Q88.3004-28.4944 86.3126-25.1032Q84.3249-21.712 80.9479-19.7099Q77.5709-17.7078 73.4652-17.7078ZM100.45-49.3562Q100.45-46.5331 102.443-44.5655Q104.436-42.598 107.23-42.6437Q110.003-42.6668 111.982-44.6055Q113.96-46.5441 113.96-49.3562Q113.96-52.0722 111.967-54.0704Q109.975-56.0687 107.23-56.0687Q104.464-56.0687 102.457-54.0704Q100.45-52.0722 100.45-49.3562Z"/>
  </g>
  <g id="Semibold-M" transform="matrix(1 0 0 1 1970.19 1126)">
   <path d="M29.0015 10.8603L117.16 10.8603Q125.229 10.8603 129.461 6.65745Q133.693 2.45461 133.693-5.57077L133.693-56.8408Q133.693-64.8662 129.461-69.047Q125.229-73.2277 117.16-73.2277L104.215-73.2277Q101.344-73.2277 99.923-73.8593Q98.5018-74.4909 96.6546-76.351L92.8292-80.3662Q90.8466-82.3463 88.5934-83.3222Q86.3403-84.2981 82.6763-84.2981L63.2725-84.2981Q59.5721-84.2981 57.3334-83.3222Q55.0947-82.3463 53.1197-80.3662L49.2501-76.351Q47.4364-74.4985 46.0023-73.8631Q44.5681-73.2277 41.7338-73.2277L29.0015-73.2277Q20.9244-73.2277 16.6926-69.047Q12.4609-64.8662 12.4609-56.8408L12.4609-5.57077Q12.4609 2.45461 16.6926 6.65745Q20.9244 10.8603 29.0015 10.8603ZM29.925-0.0425279Q26.748-0.0425279 25.0376-1.67768Q23.3273-3.31284 23.3273-6.67681L23.3273-55.6906Q23.3273-59.0804 25.0376-60.7209Q26.748-62.3614 29.925-62.3614L45.1336-62.3614Q48.4069-62.3614 50.3584-63.0773Q52.31-63.7931 54.176-65.7993L57.8013-69.7596Q59.8394-71.9196 61.466-72.6719Q63.0927-73.4241 66.2746-73.4241L79.6301-73.4241Q82.8197-73.4241 84.4555-72.6719Q86.0913-71.9196 88.0384-69.8141L91.7729-65.7993Q93.6024-63.8113 95.563-63.0863Q97.5236-62.3614 100.815-62.3614L116.236-62.3614Q119.395-62.3614 121.096-60.7209Q122.797-59.0804 122.797-55.6906L122.797-6.67681Q122.797-3.31284 121.096-1.67768Q119.395-0.0425279 116.236-0.0425279ZM73.0806-6.10347Q80.3389-6.10347 86.2614-9.63008Q92.184-13.1567 95.6924-19.0974Q99.2007-25.0381 99.2007-32.3224Q99.2007-39.5884 95.6962-45.5421Q92.1916-51.4958 86.2691-55.0041Q80.3465-58.5125 73.0806-58.5125Q65.8328-58.5125 59.905-55.0041Q53.9771-51.4958 50.4505-45.5421Q46.9239-39.5884 46.9239-32.3224Q46.9239-25.0381 50.4505-19.0974Q53.9771-13.1567 59.905-9.63008Q65.8328-6.10347 73.0806-6.10347ZM73.0806-15.8289Q68.5617-15.8289 64.8079-18.0404Q61.0542-20.2519 58.8335-24.0056Q56.6129-27.7594 56.6129-32.3224Q56.6129-36.896 58.8335-40.6353Q61.0542-44.3746 64.7897-46.5808Q68.5252-48.787 73.0806-48.787Q77.6176-48.787 81.3623-46.5808Q85.107-44.3746 87.3094-40.6353Q89.5118-36.896 89.5118-32.3224Q89.5118-27.7594 87.3094-24.0056Q85.107-20.2519 81.3623-18.0404Q77.6176-15.8289 73.0806-15.8289ZM100.655-49.5095Q100.655-46.778 102.579-44.8876Q104.503-42.9971 107.198-43.0365Q109.862-43.047 111.777-44.9202Q113.692-46.7933 113.692-49.5095Q113.692-52.1193 111.768-54.0509Q109.844-55.9826 107.198-55.9826Q104.521-55.9826 102.588-54.0509Q100.655-52.1193 100.655-49.5095Z"/>
  </g>
  <g id="Medium-M" transform="matrix(1 0 0 1 1673.77 1126)">
   <path d="M28.472 10.3863L117.106 10.3863Q124.974 10.3863 129.041 6.35315Q133.108 2.32003 133.108-5.49648L133.108-56.6786Q133.108-64.4951 129.041-68.5022Q124.974-72.5093 117.106-72.5093L103.715-72.5093Q100.831-72.5093 99.4454-73.1691Q98.0596-73.8289 96.3036-75.6782L92.4496-79.856Q90.5235-81.8347 88.2982-82.8553Q86.0729-83.8758 82.3792-83.8758L62.9431-83.8758Q59.2066-83.8758 56.998-82.8553Q54.7895-81.8347 52.8727-79.856L48.9667-75.6782Q47.2395-73.8381 45.8439-73.1737Q44.4483-72.5093 41.6076-72.5093L28.472-72.5093Q20.5942-72.5093 16.5276-68.5022Q12.4609-64.4951 12.4609-56.6786L12.4609-5.49648Q12.4609 2.32003 16.5276 6.35315Q20.5942 10.3863 28.472 10.3863ZM29.0488 0.786706Q25.6772 0.786706 23.8475-0.970977Q22.0177-2.72866 22.0177-6.28719L22.0177-55.8358Q22.0177-59.4139 23.8475-61.1832Q25.6772-62.9525 29.0488-62.9525L44.3822-62.9525Q47.6509-62.9525 49.644-63.6895Q51.6372-64.4265 53.4923-66.447L57.1889-70.5494Q59.2569-72.7725 60.8732-73.5411Q62.4895-74.3098 65.6916-74.3098L79.5787-74.3098Q82.79-74.3098 84.4226-73.5411Q86.0552-72.7725 88.0495-70.5803L91.8299-66.447Q93.6423-64.4368 95.6406-63.6946Q97.6389-62.9525 100.94-62.9525L116.529-62.9525Q119.868-62.9525 121.693-61.1832Q123.517-59.4139 123.517-55.8358L123.517-6.28719Q123.517-2.72866 121.693-0.970977Q119.868 0.786706 116.529 0.786706ZM72.7889-5.67751Q80.0977-5.67751 86.0715-9.23331Q92.0454-12.7891 95.5798-18.7732Q99.1142-24.7574 99.1142-32.1079Q99.1142-39.4259 95.5844-45.431Q92.0546-51.436 86.0808-54.9704Q80.1069-58.5048 72.7889-58.5048Q65.4811-58.5048 59.5068-54.9704Q53.5324-51.436 49.9766-45.431Q46.4208-39.4259 46.4208-32.1079Q46.4208-24.7574 49.9766-18.7732Q53.5324-12.7891 59.5068-9.23331Q65.4811-5.67751 72.7889-5.67751ZM72.7889-14.4043Q67.9351-14.4043 63.9064-16.7745Q59.8778-19.1448 57.4913-23.1734Q55.1048-27.2021 55.1048-32.1079Q55.1048-37.0148 57.4913-41.0267Q59.8778-45.0385 63.885-47.4083Q67.8923-49.778 72.7889-49.778Q77.653-49.778 81.6765-47.4083Q85.7-45.0385 88.0651-41.0267Q90.4302-37.0148 90.4302-32.1079Q90.4302-27.2021 88.0651-23.1734Q85.7-19.1448 81.6765-16.7745Q77.653-14.4043 72.7889-14.4043ZM100.81-49.6258Q100.81-46.9638 102.682-45.1318Q104.554-43.2997 107.173-43.3343Q109.755-43.3353 111.622-45.1588Q113.489-46.9823 113.489-49.6258Q113.489-52.155 111.617-54.0361Q109.745-55.9173 107.173-55.9173Q104.564-55.9173 102.687-54.0361Q100.81-52.155 100.81-49.6258Z"/>
  </g>
  <g id="Regular-M" transform="matrix(1 0 0 1 1377.44 1126)">
   <path d="M27.7814 9.76797L117.036 9.76797Q124.642 9.76797 128.493 5.95622Q132.345 2.14448 132.345-5.39959L132.345-56.4669Q132.345-64.011 128.493-67.7916Q124.642-71.5722 117.036-71.5722L103.062-71.5722Q100.162-71.5722 98.8224-72.2688Q97.4828-72.9654 95.8458-74.8007L91.9544-79.1905Q90.1022-81.1673 87.9132-82.2462Q85.7242-83.3251 81.9916-83.3251L62.5133-83.3251Q58.7299-83.3251 56.5607-82.2462Q54.3914-81.1673 52.5506-79.1905L48.5969-74.8007Q46.9826-72.9767 45.6373-72.2745Q44.2921-71.5722 41.443-71.5722L27.7814-71.5722Q20.1637-71.5722 16.3123-67.7916Q12.4609-64.011 12.4609-56.4669L12.4609-5.39959Q12.4609 2.14448 16.3123 5.95622Q20.1637 9.76797 27.7814 9.76797ZM27.906 1.86832Q24.2806 1.86832 22.2951-0.0491846Q20.3096-1.96668 20.3096-5.77899L20.3096-56.0252Q20.3096-59.8489 22.2951-61.7862Q24.2806-63.7235 27.906-63.7235L43.4022-63.7235Q46.6647-63.7235 48.7122-64.4881Q50.7597-65.2526 52.6006-67.2918L56.39-71.5796Q58.497-73.8849 60.0999-74.675Q61.7028-75.465 64.9311-75.465L79.5116-75.465Q82.7512-75.465 84.3796-74.675Q86.008-73.8849 88.064-71.5796L91.9044-67.2918Q93.6943-65.2526 95.7418-64.4881Q97.7893-63.7235 101.103-63.7235L116.911-63.7235Q120.485-63.7235 122.471-61.7862Q124.456-59.8489 124.456-56.0252L124.456-5.77899Q124.456-1.96668 122.471-0.0491846Q120.485 1.86832 116.911 1.86832ZM72.4084-5.12191Q79.7831-5.12191 85.8239-8.71578Q91.8646-12.3096 95.433-18.3504Q99.0014-24.3912 99.0014-31.8281Q99.0014-39.2141 95.4387-45.286Q91.876-51.3579 85.8352-54.9263Q79.7944-58.4947 72.4084-58.4947Q65.0225-58.4947 58.9874-54.9263Q52.9523-51.3579 49.3584-45.286Q45.7645-39.2141 45.7645-31.8281Q45.7645-24.3912 49.3584-18.3504Q52.9523-12.3096 58.9874-8.71578Q65.0225-5.12191 72.4084-5.12191ZM72.4084-12.546Q67.1178-12.546 62.7306-15.1234Q58.3434-17.7007 55.7405-22.0879Q53.1377-26.4751 53.1377-31.8281Q53.1377-37.1698 55.7405-41.5372Q58.3434-45.9045 62.7051-48.4876Q67.0668-51.0706 72.4084-51.0706Q77.6991-51.0706 82.0863-48.4876Q86.4735-45.9045 89.0509-41.5372Q91.6283-37.1698 91.6283-31.8281Q91.6283-26.4751 89.0509-22.0879Q86.4735-17.7007 82.0863-15.1234Q77.6991-12.546 72.4084-12.546ZM101.012-49.7774Q101.012-47.206 102.816-45.4503Q104.62-43.6945 107.141-43.7227Q109.616-43.7114 111.42-45.4701Q113.224-47.2287 113.224-49.7774Q113.224-52.2016 111.42-54.0169Q109.616-55.8322 107.141-55.8322Q104.62-55.8322 102.816-54.0169Q101.012-52.2016 101.012-49.7774Z"/>
  </g>
  <g id="Light-M" transform="matrix(1 0 0 1 1081.73 1126)">
   <path d="M26.8614 9.03201L115.968 9.03201Q123.078 9.03201 126.709 5.40425Q130.339 1.7765 130.339-5.27079L130.339-56.5037Q130.339-63.551 126.709-67.1476Q123.078-70.7442 115.968-70.7442L101.664-70.7442Q98.7084-70.7442 97.3689-71.358Q96.0293-71.9718 94.2635-73.9543L90.2249-78.4913Q88.2991-80.5417 86.2481-81.501Q84.197-82.4603 80.5749-82.4603L61.5382-82.4603Q57.8835-82.4603 55.8339-81.501Q53.7843-80.5417 51.8882-78.4913L47.7873-73.9543Q46.081-72.0016 44.7266-71.3729Q43.3722-70.7442 40.4495-70.7442L26.8614-70.7442Q19.7221-70.7442 16.0915-67.1476Q12.4609-63.551 12.4609-56.5037L12.4609-5.27079Q12.4609 1.7765 16.0915 5.40425Q19.7221 9.03201 26.8614 9.03201ZM26.986 2.97226Q22.9375 2.97226 20.7128 0.824768Q18.4881-1.32272 18.4881-5.55821L18.4881-56.154Q18.4881-60.4192 20.7128-62.5681Q22.9375-64.717 26.986-64.717L41.7463-64.717Q45.0456-64.717 47.0287-65.408Q49.0118-66.099 50.9079-68.2117L54.8813-72.6836Q56.9699-74.9889 58.5452-75.6961Q60.1205-76.4034 63.128-76.4034L78.9228-76.4034Q81.9601-76.4034 83.5516-75.6961Q85.1432-74.9889 87.1993-72.6836L91.2053-68.2117Q93.0688-66.099 95.0519-65.408Q97.035-64.717 100.367-64.717L115.844-64.717Q119.86-64.717 122.084-62.5681Q124.309-60.4192 124.309-56.154L124.309-5.55821Q124.309-1.32272 122.084 0.824768Q119.86 2.97226 115.844 2.97226ZM71.4149-4.84593Q78.8263-4.84593 84.9131-8.45819Q90.9999-12.0705 94.5959-18.1572Q98.1918-24.244 98.1918-31.7177Q98.1918-39.1589 94.6107-45.2768Q91.0296-51.3947 84.9429-54.9907Q78.8561-58.5867 71.4149-58.5867Q63.9737-58.5867 57.9018-54.9907Q51.8299-51.3947 48.2177-45.2768Q44.6054-39.1589 44.6054-31.7177Q44.6054-24.244 48.2177-18.1572Q51.8299-12.0705 57.9018-8.45819Q63.9737-4.84593 71.4149-4.84593ZM71.4149-10.6693Q65.6274-10.6693 60.8447-13.4859Q56.0619-16.3024 53.2291-21.0852Q50.3962-25.8679 50.3962-31.7177Q50.3962-37.5378 53.2291-42.3191Q56.0619-47.1005 60.8284-49.9319Q65.5949-52.7633 71.4149-52.7633Q77.2024-52.7633 81.9851-49.9319Q86.7679-47.1005 89.5845-42.3191Q92.401-37.5378 92.401-31.7177Q92.401-25.8679 89.5845-21.0852Q86.7679-16.3024 81.9851-13.4859Q77.2024-10.6693 71.4149-10.6693ZM100.534-49.5751Q100.534-47.0772 102.283-45.4043Q104.032-43.7313 106.497-43.7043Q108.843-43.6746 110.592-45.4057Q112.341-47.1367 112.341-49.5751Q112.341-51.8888 110.592-53.6673Q108.843-55.4458 106.497-55.4458Q104.032-55.4458 102.283-53.6673Q100.534-51.8888 100.534-49.5751Z"/>
  </g>
  <g id="Thin-M" transform="matrix(1 0 0 1 786.343 1126)">
   <path d="M25.6447 8.05864L114.557 8.05864Q121.01 8.05864 124.348 4.67423Q127.687 1.28982 127.687-5.10045L127.687-56.5524Q127.687-62.9427 124.348-66.2959Q121.01-69.6492 114.557-69.6492L99.8143-69.6492Q96.786-69.6492 95.4465-70.1535Q94.1069-70.6578 92.1707-72.8349L87.9375-77.5666Q85.9144-79.7144 84.0458-80.5155Q82.1773-81.3166 78.7012-81.3166L60.2485-81.3166Q56.7641-81.3166 54.8727-80.5155Q52.9812-79.7144 51.0122-77.5666L46.7166-72.8349Q44.8886-70.7119 43.522-70.1805Q42.1555-69.6492 39.1354-69.6492L25.6447-69.6492Q19.1381-69.6492 15.7995-66.2959Q12.4609-62.9427 12.4609-56.5524L12.4609-5.10045Q12.4609 1.28982 15.7995 4.67423Q19.1381 8.05864 25.6447 8.05864ZM25.7693 4.43231Q21.1611 4.43231 18.6201 1.98064Q16.079-0.471023 16.079-5.2662L16.079-56.3244Q16.079-61.1736 18.6201-63.6023Q21.1611-66.0311 25.7693-66.0311L39.5562-66.0311Q42.9042-66.0311 44.8021-66.6247Q46.7-67.2184 48.6691-69.4284L52.8859-74.1436Q54.9502-76.4489 56.489-77.0467Q58.0278-77.6444 60.7433-77.6444L78.1441-77.6444Q80.9137-77.6444 82.4566-77.0467Q83.9995-76.4489 86.0556-74.1436L90.2806-69.4284Q92.2414-67.2184 94.1393-66.6247Q96.0373-66.0311 99.3935-66.0311L114.432-66.0311Q119.032-66.0311 121.573-63.6023Q124.114-61.1736 124.114-56.3244L124.114-5.2662Q124.114-0.471023 121.573 1.98064Q119.032 4.43231 114.432 4.43231ZM70.1009-4.48091Q77.561-4.48091 83.7086-8.11751Q89.8562-11.7541 93.4886-17.9017Q97.1211-24.0493 97.1211-31.5717Q97.1211-39.0859 93.5157-45.2647Q89.9102-51.4434 83.7626-55.0759Q77.615-58.7084 70.1009-58.7084Q62.5867-58.7084 56.4661-55.0759Q50.3455-51.4434 46.709-45.2647Q43.0724-39.0859 43.0724-31.5717Q43.0724-24.0493 46.709-17.9017Q50.3455-11.7541 56.4661-8.11751Q62.5867-4.48091 70.1009-4.48091ZM70.1009-8.18722Q63.6564-8.18722 58.3504-11.3201Q53.0445-14.453 49.9075-19.759Q46.7704-25.0649 46.7704-31.5717Q46.7704-38.0244 49.9075-43.3533Q53.0445-48.6822 58.3463-51.8421Q63.6481-55.0021 70.1009-55.0021Q76.5454-55.0021 81.8513-51.8421Q87.1572-48.6822 90.2902-43.3533Q93.4231-38.0244 93.4231-31.5717Q93.4231-25.0649 90.2902-19.759Q87.1572-14.453 81.8513-11.3201Q76.5454-8.18722 70.1009-8.18722ZM99.9014-49.3074Q99.9014-46.9069 101.577-45.3434Q103.253-43.7799 105.645-43.68Q107.821-43.6259 109.497-45.3205Q111.173-47.0151 111.173-49.3074Q111.173-51.4751 109.497-53.2049Q107.821-54.9348 105.645-54.9348Q103.253-54.9348 101.577-53.2049Q99.9014-51.4751 99.9014-49.3074Z"/>
  </g>
  <g id="Ultralight-M" transform="matrix(1 0 0 1 490.31 1126)">
   <path d="M25.0215 7.56009L113.834 7.56009Q119.95 7.56009 123.139 4.30031Q126.328 1.04054 126.328-5.01321L126.328-56.5773Q126.328-62.6311 123.139-65.8597Q119.95-69.0883 113.834-69.0883L98.867-69.0883Q95.8014-69.0883 94.4618-69.5365Q93.1223-69.9847 91.0988-72.2616L86.7659-77.093Q84.6929-79.2906 82.9179-80.0107Q81.1428-80.7308 77.7415-80.7308L59.5879-80.7308Q56.1908-80.7308 54.3804-80.0107Q52.5699-79.2906 50.5635-77.093L46.1682-72.2616Q44.2779-70.0513 42.9051-69.5698Q41.5323-69.0883 38.4624-69.0883L25.0215-69.0883Q18.8389-69.0883 15.6499-65.8597Q12.4609-62.6311 12.4609-56.5773L12.4609-5.01321Q12.4609 1.04054 15.6499 4.30031Q18.8389 7.56009 25.0215 7.56009ZM25.1461 5.18014Q20.2512 5.18014 17.5482 2.57267Q14.8451-0.034789 14.8451-5.11663L14.8451-56.4116Q14.8451-61.56 17.5482-64.1321Q20.2512-66.7041 25.1461-66.7041L38.4344-66.7041Q41.8074-66.7041 43.6617-67.2479Q45.516-67.7917 47.5224-70.0516L51.8638-74.8915Q53.9157-77.1967 55.4358-77.7384Q56.9559-78.2801 59.5218-78.2801L77.7453-78.2801Q80.3777-78.2801 81.8957-77.7384Q83.4137-77.1967 85.4698-74.8915L89.8069-70.0516Q91.8176-67.7917 93.6719-67.2479Q95.5263-66.7041 98.8949-66.7041L113.709-66.7041Q118.609-66.7041 121.312-64.1321Q124.015-61.56 124.015-56.4116L124.015-5.11663Q124.015-0.034789 121.312 2.57267Q118.609 5.18014 113.709 5.18014ZM69.4278-4.29396Q76.9128-4.29396 83.0916-7.94302Q89.2704-11.5921 92.9215-17.7708Q96.5727-23.9496 96.5727-31.4969Q96.5727-39.0485 92.9548-45.2584Q89.3369-51.4683 83.1581-55.1195Q76.9794-58.7707 69.4278-58.7707Q61.8762-58.7707 55.7307-55.1195Q49.5853-51.4683 45.9362-45.2584Q42.2871-39.0485 42.2871-31.4969Q42.2871-23.9496 45.9362-17.7708Q49.5853-11.5921 55.7307-7.94302Q61.8762-4.29396 69.4278-4.29396ZM69.4278-6.91591Q62.6468-6.91591 57.0729-10.2108Q51.4989-13.5058 48.2061-19.0797Q44.9133-24.6536 44.9133-31.4969Q44.9133-38.2737 48.2061-43.883Q51.4989-49.4923 57.075-52.8205Q62.651-56.1487 69.4278-56.1487Q76.2088-56.1487 81.7827-52.8205Q87.3567-49.4923 90.6516-43.883Q93.9465-38.2737 93.9465-31.4969Q93.9465-24.6536 90.6516-19.0797Q87.3567-13.5058 81.7827-10.2108Q76.2088-6.91591 69.4278-6.91591ZM99.5773-49.1703Q99.5773-46.8197 101.216-45.3123Q102.854-43.8049 105.209-43.6675Q107.298-43.601 108.936-45.2769Q110.574-46.9527 110.574-49.1703Q110.574-51.2632 108.936-52.9681Q107.298-54.673 105.209-54.673Q102.854-54.673 101.216-52.9681Q99.5773-51.2632 99.5773-49.1703Z"/>
  </g>
  <g id="Black-S" transform="matrix(1 0 0 1 2874.9 696)">
   <path d="M25 2.92969L91.9922 2.92969Q99.1699 2.92969 103.198-1.09863Q107.227-5.12695 107.227-12.3047L107.227-52.8809Q107.227-60.0586 103.198-64.0869Q99.1699-68.1152 91.9922-68.1152L83.7891-68.1152Q81.5918-68.1152 80.3223-68.4814Q79.0527-68.8477 77.1973-70.3613L74.3164-72.8027Q72.5098-74.3652 70.6299-74.9268Q68.75-75.4883 66.0156-75.4883L50.9766-75.4883Q48.2422-75.4883 46.3623-74.9268Q44.4824-74.3652 42.6758-72.8027L39.7949-70.3613Q37.9883-68.8477 36.6943-68.4814Q35.4004-68.1152 33.2031-68.1152L25-68.1152Q17.8223-68.1152 13.7939-64.0869Q9.76562-60.0586 9.76562-52.8809L9.76562-12.3047Q9.76562-5.12695 13.7939-1.09863Q17.8223 2.92969 25 2.92969ZM27.2461-11.2305Q25.5859-11.2305 24.7559-11.9873Q23.9258-12.7441 23.9258-14.5508L23.9258-50.6348Q23.9258-52.4902 24.7559-53.2227Q25.5859-53.9551 27.2461-53.9551L38.5742-53.9551Q41.1621-53.9551 42.5049-54.4189Q43.8477-54.8828 45.3613-56.3965L47.9004-58.8867Q49.3652-60.3027 50.6836-60.8154Q52.002-61.3281 54.3945-61.3281L62.5977-61.3281Q64.9902-61.3281 66.2842-60.8154Q67.5781-60.3027 68.8965-59.0332L71.6309-56.3965Q73.1445-54.9316 74.5117-54.4434Q75.8789-53.9551 78.418-53.9551L89.7461-53.9551Q91.4551-53.9551 92.2607-53.2227Q93.0664-52.4902 93.0664-50.6348L93.0664-14.5508Q93.0664-12.7441 92.2607-11.9873Q91.4551-11.2305 89.7461-11.2305ZM58.4961-14.2578Q63.9648-14.2578 68.3838-16.8945Q72.8027-19.5312 75.4395-23.999Q78.0762-28.4668 78.0762-33.8867Q78.0762-39.3555 75.4395-43.7988Q72.8027-48.2422 68.3838-50.8789Q63.9648-53.5156 58.4961-53.5156Q53.0762-53.5156 48.6328-50.8789Q44.1895-48.2422 41.5527-43.7988Q38.916-39.3555 38.916-33.8867Q38.916-28.4668 41.5527-23.999Q44.1895-19.5312 48.6328-16.8945Q53.0762-14.2578 58.4961-14.2578ZM58.4961-26.1719Q56.3965-26.1719 54.6387-27.2217Q52.8809-28.2715 51.8555-30.0293Q50.8301-31.7871 50.8301-33.8867Q50.8301-36.0352 51.8555-37.793Q52.8809-39.5508 54.6387-40.5762Q56.3965-41.6016 58.4961-41.6016Q60.6445-41.6016 62.3779-40.5762Q64.1113-39.5508 65.1367-37.793Q66.1621-36.0352 66.1621-33.8867Q66.1621-31.7871 65.1367-30.0293Q64.1113-28.2715 62.3779-27.2217Q60.6445-26.1719 58.4961-26.1719ZM78.1738-45.8984Q78.1738-43.457 79.9072-41.7236Q81.6406-39.9902 84.082-40.0391Q86.5234-40.0879 88.2324-41.7725Q89.9414-43.457 89.9414-45.8984Q89.9414-48.291 88.208-50.0244Q86.4746-51.7578 84.082-51.7578Q81.6895-51.7578 79.9316-50.0244Q78.1738-48.291 78.1738-45.8984Z"/>
  </g>
  <g id="Heavy-S" transform="matrix(1 0 0 1 2578.49 696)">
   <path d="M24.3431 2.33042L92.0498 2.33042Q98.9971 2.33042 102.812-1.47318Q106.627-5.27677 106.627-12.2125L106.627-52.6388Q106.627-59.5746 102.812-63.3724Q98.9971-67.1702 92.0498-67.1702L83.2359-67.1702Q81.0271-67.1702 79.8094-67.5883Q78.5918-68.0064 76.8861-69.4855L73.9822-72.1458Q72.2678-73.6968 70.4109-74.339Q68.5541-74.9812 65.7621-74.9812L50.6193-74.9812Q47.8158-74.9812 45.9647-74.339Q44.1136-73.6968 42.3992-72.1458L39.4838-69.4855Q37.8154-68.0064 36.5791-67.5883Q35.3428-67.1702 33.1455-67.1702L24.3431-67.1702Q17.3959-67.1702 13.5807-63.3724Q9.76562-59.5746 9.76562-52.6388L9.76562-12.2125Q9.76562-5.27677 13.5807-1.47318Q17.3959 2.33042 24.3431 2.33042ZM26.0821-10.1587Q24.1915-10.1587 23.2173-11.0653Q22.2432-11.972 22.2432-14.0091L22.2432-50.8307Q22.2432-52.9051 23.2173-53.7989Q24.1915-54.6926 26.0821-54.6926L37.6868-54.6926Q40.2632-54.6926 41.6751-55.1968Q43.087-55.701 44.5777-57.2262L47.1974-59.9009Q48.7083-61.4091 50.0152-61.9564Q51.322-62.5036 53.7722-62.5036L62.5977-62.5036Q65.0479-62.5036 66.3418-61.9564Q67.6357-61.4091 69.0233-60.0128L71.8037-57.2262Q73.2828-55.7384 74.7134-55.2155Q76.144-54.6926 78.6946-54.6926L90.3108-54.6926Q92.2272-54.6926 93.1827-53.7989Q94.1382-52.9051 94.1382-50.8307L94.1382-14.0091Q94.1382-11.972 93.1827-11.0653Q92.2272-10.1587 90.3108-10.1587ZM58.1965-13.6701Q63.7344-13.6701 68.2224-16.3471Q72.7105-19.0242 75.3818-23.5496Q78.0531-28.075 78.0531-33.5871Q78.0531-39.125 75.3818-43.6375Q72.7105-48.15 68.2224-50.8213Q63.7344-53.4926 58.1965-53.4926Q52.6959-53.4926 48.1891-50.8213Q43.6824-48.15 41.0053-43.6375Q38.3283-39.125 38.3283-33.5871Q38.3283-28.075 41.0053-23.5496Q43.6824-19.0242 48.1891-16.3471Q52.6959-13.6701 58.1965-13.6701ZM58.1965-24.328Q55.6704-24.328 53.5611-25.5794Q51.4518-26.8309 50.2132-28.9402Q48.9746-31.0495 48.9746-33.5871Q48.9746-36.1619 50.2132-38.2655Q51.4518-40.369 53.5554-41.6018Q55.6589-42.8347 58.1965-42.8347Q60.7598-42.8347 62.8504-41.6018Q64.9411-40.369 66.1739-38.2655Q67.4068-36.1619 67.4068-33.5871Q67.4068-31.0495 66.1739-28.9402Q64.9411-26.8309 62.8504-25.5794Q60.7598-24.328 58.1965-24.328ZM78.4619-46.0944Q78.4619-43.7451 80.1262-42.0867Q81.7904-40.4282 84.1281-40.477Q86.4658-40.5143 88.1114-42.1297Q89.757-43.7451 89.757-46.0944Q89.757-48.3832 88.0928-50.0475Q86.4285-51.7117 84.1281-51.7117Q81.8277-51.7117 80.1448-50.0475Q78.4619-48.3832 78.4619-46.0944Z"/>
  </g>
  <g id="Bold-S" transform="matrix(1 0 0 1 2282.12 696)">
   <path d="M23.6084 1.66016L92.1143 1.66016Q98.8037 1.66016 102.38-1.89209Q105.957-5.44434 105.957-12.1094L105.957-52.3682Q105.957-59.0332 102.38-62.5732Q98.8037-66.1133 92.1143-66.1133L82.6172-66.1133Q80.3955-66.1133 79.2358-66.5894Q78.0762-67.0654 76.5381-68.5059L73.6084-71.4111Q71.9971-72.9492 70.166-73.6816Q68.335-74.4141 65.4785-74.4141L50.2197-74.4141Q47.3389-74.4141 45.52-73.6816Q43.7012-72.9492 42.0898-71.4111L39.1357-68.5059Q37.6221-67.0654 36.4502-66.5894Q35.2783-66.1133 33.0811-66.1133L23.6084-66.1133Q16.9189-66.1133 13.3423-62.5732Q9.76562-59.0332 9.76562-52.3682L9.76562-12.1094Q9.76562-5.44434 13.3423-1.89209Q16.9189 1.66016 23.6084 1.66016ZM24.7803-8.95996Q22.6318-8.95996 21.4966-10.0342Q20.3613-11.1084 20.3613-13.4033L20.3613-51.0498Q20.3613-53.3691 21.4966-54.4434Q22.6318-55.5176 24.7803-55.5176L36.6943-55.5176Q39.2578-55.5176 40.7471-56.0669Q42.2363-56.6162 43.7012-58.1543L46.4111-61.0352Q47.9736-62.6465 49.2676-63.2324Q50.5615-63.8184 53.0762-63.8184L62.5977-63.8184Q65.1123-63.8184 66.4062-63.2324Q67.7002-62.6465 69.165-61.1084L71.9971-58.1543Q73.4375-56.6406 74.939-56.0791Q76.4404-55.5176 79.0039-55.5176L90.9424-55.5176Q93.0908-55.5176 94.2139-54.4434Q95.3369-53.3691 95.3369-51.0498L95.3369-13.4033Q95.3369-11.1084 94.2139-10.0342Q93.0908-8.95996 90.9424-8.95996ZM57.8613-13.0127Q63.4766-13.0127 68.042-15.7349Q72.6074-18.457 75.3174-23.0469Q78.0273-27.6367 78.0273-33.252Q78.0273-38.8672 75.3174-43.457Q72.6074-48.0469 68.042-50.7568Q63.4766-53.4668 57.8613-53.4668Q52.2705-53.4668 47.6929-50.7568Q43.1152-48.0469 40.3931-43.457Q37.6709-38.8672 37.6709-33.252Q37.6709-27.6367 40.3931-23.0469Q43.1152-18.457 47.6929-15.7349Q52.2705-13.0127 57.8613-13.0127ZM57.8613-22.2656Q54.8584-22.2656 52.356-23.7427Q49.8535-25.2197 48.3765-27.7222Q46.8994-30.2246 46.8994-33.252Q46.8994-36.3037 48.3765-38.7939Q49.8535-41.2842 52.3438-42.749Q54.834-44.2139 57.8613-44.2139Q60.8887-44.2139 63.3789-42.749Q65.8691-41.2842 67.334-38.7939Q68.7988-36.3037 68.7988-33.252Q68.7988-30.2246 67.334-27.7222Q65.8691-25.2197 63.3789-23.7427Q60.8887-22.2656 57.8613-22.2656ZM78.7842-46.3135Q78.7842-44.0674 80.3711-42.4927Q81.958-40.918 84.1797-40.9668Q86.4014-40.9912 87.9761-42.5293Q89.5508-44.0674 89.5508-46.3135Q89.5508-48.4863 87.9639-50.0732Q86.377-51.6602 84.1797-51.6602Q81.9824-51.6602 80.3833-50.0732Q78.7842-48.4863 78.7842-46.3135Z"/>
  </g>
  <g id="Semibold-S" transform="matrix(1 0 0 1 1985.64 696)">
   <path d="M23.1019 1.19805L92.1587 1.19805Q98.6704 1.19805 102.083-2.18091Q105.495-5.55986 105.495-12.0383L105.495-52.1815Q105.495-58.66 102.083-62.0223Q98.6704-65.3846 92.1587-65.3846L82.1906-65.3846Q79.9601-65.3846 78.8404-65.9006Q77.7207-66.4167 76.2981-67.8305L73.3507-70.9046Q71.8104-72.4338 69.9972-73.2284Q68.1839-74.023 65.283-74.023L49.9442-74.023Q47.0101-74.023 45.2134-73.2284Q43.4168-72.4338 41.8766-70.9046L38.8958-67.8305Q37.4888-66.4167 36.3613-65.9006Q35.2339-65.3846 33.0366-65.3846L23.1019-65.3846Q16.5901-65.3846 13.1779-62.0223Q9.76562-58.66 9.76562-52.1815L9.76562-12.0383Q9.76562-5.55986 13.1779-2.18091Q16.5901 1.19805 23.1019 1.19805ZM23.8827-8.1335Q21.5565-8.1335 20.3102-9.32324Q19.0639-10.513 19.0639-12.9856L19.0639-51.2009Q19.0639-53.6891 20.3102-54.8877Q21.5565-56.0863 23.8827-56.0863L36.0101-56.0863Q38.5646-56.0863 40.1072-56.6667Q41.6498-57.2472 43.0969-58.7941L45.869-61.8172Q47.4671-63.4996 48.7521-64.1122Q50.0372-64.7248 52.5963-64.7248L62.5977-64.7248Q65.1567-64.7248 66.4507-64.1122Q67.7446-63.4996 69.2628-61.8638L72.1304-58.7941Q73.5441-57.2627 75.0945-56.6745Q76.6448-56.0863 79.2172-56.0863L91.3778-56.0863Q93.6862-56.0863 94.9248-54.8877Q96.1634-53.6891 96.1634-51.2009L96.1634-12.9856Q96.1634-10.513 94.9248-9.32324Q93.6862-8.1335 91.3778-8.1335ZM57.6303-12.5595Q63.2988-12.5595 67.9176-15.3127Q72.5363-18.066 75.2729-22.7003Q78.0096-27.3346 78.0096-33.0209Q78.0096-38.6895 75.2729-43.3326Q72.5363-47.9758 67.9176-50.7124Q63.2988-53.449 57.6303-53.449Q51.9772-53.449 47.3507-50.7124Q42.7242-47.9758 39.9709-43.3326Q37.2177-38.6895 37.2177-33.0209Q37.2177-27.3346 39.9709-22.7003Q42.7242-18.066 47.3507-15.3127Q51.9772-12.5595 57.6303-12.5595ZM57.6303-20.8438Q54.2985-20.8438 51.525-22.4763Q48.7516-24.1089 47.1101-26.8824Q45.4687-29.6559 45.4687-33.0209Q45.4687-36.4015 47.1101-39.1583Q48.7516-41.9151 51.5084-43.5399Q54.2652-45.1647 57.6303-45.1647Q60.9775-45.1647 63.7433-43.5399Q66.509-41.9151 68.1338-39.1583Q69.7586-36.4015 69.7586-33.0209Q69.7586-29.6559 68.1338-26.8824Q66.509-24.1089 63.7433-22.4763Q60.9775-20.8438 57.6303-20.8438ZM79.0063-46.4646Q79.0063-44.2896 80.5399-42.7726Q82.0735-41.2557 84.2152-41.3045Q86.3569-41.32 87.8828-42.8048Q89.4086-44.2896 89.4086-46.4646Q89.4086-48.5574 87.875-50.091Q86.3414-51.6246 84.2152-51.6246Q82.0891-51.6246 80.5477-50.091Q79.0063-48.5574 79.0063-46.4646Z"/>
  </g>
  <g id="Medium-S" transform="matrix(1 0 0 1 1689.1 696)">
   <path d="M22.7178 0.847656L92.1924 0.847656Q98.5693 0.847656 101.857-2.3999Q105.145-5.64746 105.145-11.9844L105.145-52.04Q105.145-58.377 101.857-61.6045Q98.5693-64.832 92.1924-64.832L81.8672-64.832Q79.6299-64.832 78.5405-65.3784Q77.4512-65.9248 76.1162-67.3184L73.1553-70.5205Q71.6689-72.043 69.8691-72.8848Q68.0693-73.7266 65.1348-73.7266L49.7354-73.7266Q46.7607-73.7266 44.981-72.8848Q43.2012-72.043 41.7148-70.5205L38.7139-67.3184Q37.3877-65.9248 36.2939-65.3784Q35.2002-64.832 33.0029-64.832L22.7178-64.832Q16.3408-64.832 13.0532-61.6045Q9.76562-58.377 9.76562-52.04L9.76562-11.9844Q9.76562-5.64746 13.0532-2.3999Q16.3408 0.847656 22.7178 0.847656ZM23.2021-7.50684Q20.7412-7.50684 19.4106-8.78418Q18.0801-10.0615 18.0801-12.6689L18.0801-51.3154Q18.0801-53.9316 19.4106-55.2246Q20.7412-56.5176 23.2021-56.5176L35.4912-56.5176Q38.0391-56.5176 39.6221-57.1216Q41.2051-57.7256 42.6387-59.2793L45.458-62.4102Q47.083-64.1465 48.3613-64.7793Q49.6396-65.4121 52.2324-65.4121L62.5977-65.4121Q65.1904-65.4121 66.4844-64.7793Q67.7783-64.1465 69.3369-62.4365L72.2314-59.2793Q73.625-57.7344 75.2124-57.126Q76.7998-56.5176 79.3789-56.5176L91.708-56.5176Q94.1377-56.5176 95.4639-55.2246Q96.79-53.9316 96.79-51.3154L96.79-12.6689Q96.79-10.0615 95.4639-8.78418Q94.1377-7.50684 91.708-7.50684ZM57.4551-12.2158Q63.1641-12.2158 67.8232-14.9927Q72.4824-17.7695 75.2393-22.4375Q77.9961-27.1055 77.9961-32.8457Q77.9961-38.5547 75.2393-43.2383Q72.4824-47.9219 67.8232-50.6787Q63.1641-53.4355 57.4551-53.4355Q51.7549-53.4355 47.0913-50.6787Q42.4277-47.9219 39.6509-43.2383Q36.874-38.5547 36.874-32.8457Q36.874-27.1055 39.6509-22.4375Q42.4277-17.7695 47.0913-14.9927Q51.7549-12.2158 57.4551-12.2158ZM57.4551-19.7656Q53.874-19.7656 50.895-21.5161Q47.916-23.2666 46.1499-26.2456Q44.3838-29.2246 44.3838-32.8457Q44.3838-36.4756 46.1499-39.4346Q47.916-42.3936 50.875-44.1396Q53.834-45.8857 57.4551-45.8857Q61.0449-45.8857 64.0195-44.1396Q66.9941-42.3936 68.7402-39.4346Q70.4863-36.4756 70.4863-32.8457Q70.4863-29.2246 68.7402-26.2456Q66.9941-23.2666 64.0195-21.5161Q61.0449-19.7656 57.4551-19.7656ZM79.1748-46.5791Q79.1748-44.458 80.668-42.9849Q82.1611-41.5117 84.2422-41.5605Q86.3232-41.5693 87.812-43.0137Q89.3008-44.458 89.3008-46.5791Q89.3008-48.6113 87.8076-50.1045Q86.3145-51.5977 84.2422-51.5977Q82.1699-51.5977 80.6724-50.1045Q79.1748-48.6113 79.1748-46.5791Z"/>
  </g>
  <g id="Regular-S" transform="matrix(1 0 0 1 1392.62 696)">
   <path d="M22.2168 0.390625L92.2363 0.390625Q98.4375 0.390625 101.562-2.68555Q104.688-5.76172 104.688-11.9141L104.688-51.8555Q104.688-58.0078 101.562-61.0596Q98.4375-64.1113 92.2363-64.1113L81.4453-64.1113Q79.1992-64.1113 78.1494-64.6973Q77.0996-65.2832 75.8789-66.6504L72.9004-70.0195Q71.4844-71.5332 69.7021-72.4365Q67.9199-73.3398 64.9414-73.3398L49.4629-73.3398Q46.4355-73.3398 44.6777-72.4365Q42.9199-71.5332 41.5039-70.0195L38.4766-66.6504Q37.2559-65.2832 36.2061-64.6973Q35.1562-64.1113 32.959-64.1113L22.2168-64.1113Q16.0156-64.1113 12.8906-61.0596Q9.76562-58.0078 9.76562-51.8555L9.76562-11.9141Q9.76562-5.76172 12.8906-2.68555Q16.0156 0.390625 22.2168 0.390625ZM22.3145-6.68945Q19.6777-6.68945 18.2373-8.08105Q16.7969-9.47266 16.7969-12.2559L16.7969-51.4648Q16.7969-54.248 18.2373-55.6641Q19.6777-57.0801 22.3145-57.0801L34.8145-57.0801Q37.3535-57.0801 38.9893-57.7148Q40.625-58.3496 42.041-59.9121L44.9219-63.1836Q46.582-64.9902 47.8516-65.6494Q49.1211-66.3086 51.7578-66.3086L62.5977-66.3086Q65.2344-66.3086 66.5283-65.6494Q67.8223-64.9902 69.4336-63.1836L72.3633-59.9121Q73.7305-58.3496 75.3662-57.7148Q77.002-57.0801 79.5898-57.0801L92.1387-57.0801Q94.7266-57.0801 96.167-55.6641Q97.6074-54.248 97.6074-51.4648L97.6074-12.2559Q97.6074-9.47266 96.167-8.08105Q94.7266-6.68945 92.1387-6.68945ZM57.2266-11.7676Q62.9883-11.7676 67.7002-14.5752Q72.4121-17.3828 75.1953-22.0947Q77.9785-26.8066 77.9785-32.6172Q77.9785-38.3789 75.1953-43.1152Q72.4121-47.8516 67.7002-50.6348Q62.9883-53.418 57.2266-53.418Q51.4648-53.418 46.7529-50.6348Q42.041-47.8516 39.2334-43.1152Q36.4258-38.3789 36.4258-32.6172Q36.4258-26.8066 39.2334-22.0947Q42.041-17.3828 46.7529-14.5752Q51.4648-11.7676 57.2266-11.7676ZM57.2266-18.3594Q53.3203-18.3594 50.0732-20.2637Q46.8262-22.168 44.8975-25.415Q42.9688-28.6621 42.9688-32.6172Q42.9688-36.5723 44.8975-39.7949Q46.8262-43.0176 50.0488-44.9219Q53.2715-46.8262 57.2266-46.8262Q61.1328-46.8262 64.3799-44.9219Q67.627-43.0176 69.5312-39.7949Q71.4355-36.5723 71.4355-32.6172Q71.4355-28.6621 69.5312-25.415Q67.627-22.168 64.3799-20.2637Q61.1328-18.3594 57.2266-18.3594ZM79.3945-46.7285Q79.3945-44.6777 80.835-43.2617Q82.2754-41.8457 84.2773-41.8945Q86.2793-41.8945 87.7197-43.2861Q89.1602-44.6777 89.1602-46.7285Q89.1602-48.6816 87.7197-50.1221Q86.2793-51.5625 84.2773-51.5625Q82.2754-51.5625 80.835-50.1221Q79.3945-48.6816 79.3945-46.7285Z"/>
  </g>
  <g id="Light-S" transform="matrix(1 0 0 1 1096.79 696)">
   <path d="M21.403-0.260417L91.2923-0.260417Q97.054-0.260417 99.9837-3.17383Q102.913-6.08724 102.913-11.8001L102.913-51.888Q102.913-57.6009 99.9837-60.4899Q97.054-63.3789 91.2923-63.3789L80.2083-63.3789Q77.9134-63.3789 76.8636-63.8916Q75.8138-64.4043 74.4792-65.9017L71.3704-69.401Q69.8893-70.9798 68.2292-71.7773Q66.569-72.5749 63.6882-72.5749L48.6003-72.5749Q45.6868-72.5749 44.0348-71.7773Q42.3828-70.9798 40.918-69.401L37.7604-65.9017Q36.4583-64.4206 35.4004-63.8997Q34.3424-63.3789 32.0801-63.3789L21.403-63.3789Q15.625-63.3789 12.6953-60.4899Q9.76562-57.6009 9.76562-51.888L9.76562-11.8001Q9.76562-6.08724 12.6953-3.17383Q15.625-0.260417 21.403-0.260417ZM21.5007-5.71289Q18.4896-5.71289 16.8376-7.30794Q15.1855-8.90299 15.1855-12.0605L15.1855-51.5788Q15.1855-54.7526 16.8376-56.3558Q18.4896-57.959 21.5007-57.959L33.3496-57.959Q35.9212-57.959 37.5-58.5286Q39.0788-59.0983 40.5436-60.7259L43.5872-64.1602Q45.2311-65.9668 46.4762-66.5527Q47.7214-67.1387 50.1628-67.1387L62.0768-67.1387Q64.5345-67.1387 65.7959-66.5527Q67.0573-65.9668 68.6686-64.1602L71.7448-60.7259Q73.1771-59.0983 74.7559-58.5286Q76.3346-57.959 78.9388-57.959L91.1947-57.959Q94.1732-57.959 95.8252-56.3558Q97.4772-54.7526 97.4772-51.5788L97.4772-12.0605Q97.4772-8.90299 95.8252-7.30794Q94.1732-5.71289 91.1947-5.71289ZM56.3477-11.5234Q62.1419-11.5234 66.8945-14.3473Q71.6471-17.1712 74.4548-21.9238Q77.2624-26.6764 77.2624-32.5195Q77.2624-38.3301 74.4629-43.1071Q71.6634-47.8841 66.9108-50.6917Q62.1582-53.4993 56.3477-53.4993Q50.5371-53.4993 45.7926-50.6917Q41.0482-47.8841 38.2243-43.1071Q35.4004-38.3301 35.4004-32.5195Q35.4004-26.6764 38.2243-21.9238Q41.0482-17.1712 45.7926-14.3473Q50.5371-11.5234 56.3477-11.5234ZM56.3477-16.6992Q52.002-16.6992 48.4049-18.8151Q44.8079-20.931 42.6758-24.528Q40.5436-28.125 40.5436-32.5195Q40.5436-36.8978 42.6758-40.4867Q44.8079-44.0755 48.3887-46.1995Q51.9694-48.3236 56.3477-48.3236Q60.6934-48.3236 64.2904-46.1995Q67.8874-44.0755 70.0033-40.4867Q72.1191-36.8978 72.1191-32.5195Q72.1191-28.125 70.0033-24.528Q67.8874-20.931 64.2904-18.8151Q60.6934-16.6992 56.3477-16.6992ZM78.9714-46.5495Q78.9714-44.5638 80.363-43.221Q81.7546-41.8783 83.7077-41.8783Q85.5957-41.862 86.9873-43.2292Q88.3789-44.5964 88.3789-46.5495Q88.3789-48.4049 86.9873-49.8128Q85.5957-51.2207 83.7077-51.2207Q81.7546-51.2207 80.363-49.8128Q78.9714-48.4049 78.9714-46.5495Z"/>
  </g>
  <g id="Thin-S" transform="matrix(1 0 0 1 801.252 696)">
   <path d="M20.3267-1.12147L90.0438-1.12147Q95.2243-1.12147 97.8957-3.81962Q100.567-6.51777 100.567-11.6494L100.567-51.9311Q100.567-57.0628 97.8957-59.7365Q95.2243-62.4102 90.0438-62.4102L78.5723-62.4102Q76.2128-62.4102 75.163-62.826Q74.1132-63.2419 72.6279-64.9115L69.347-68.583Q67.7797-70.2479 66.281-70.9055Q64.7823-71.5631 62.0306-71.5631L47.4594-71.5631Q44.6966-71.5631 43.1845-70.9055Q41.6724-70.2479 40.143-68.583L36.8133-64.9115Q35.4035-63.2797 34.3348-62.8449Q33.2661-62.4102 30.9177-62.4102L20.3267-62.4102Q15.1084-62.4102 12.437-59.7365Q9.76562-57.0628 9.76562-51.9311L9.76562-11.6494Q9.76562-6.51777 12.437-3.81962Q15.1084-1.12147 20.3267-1.12147ZM20.4243-4.42131Q16.9182-4.42131 14.9863-6.28544Q13.0544-8.14957 13.0544-11.8022L13.0544-51.7295Q13.0544-55.4199 14.9863-57.2707Q16.9182-59.1214 20.4243-59.1214L31.4122-59.1214Q34.0269-59.1214 35.5303-59.605Q37.0338-60.0885 38.5632-61.8022L41.8221-65.4517Q43.4444-67.2584 44.6573-67.7474Q45.8701-68.2365 48.0532-68.2365L61.388-68.2365Q63.6089-68.2365 64.8272-67.7474Q66.0456-67.2584 67.6569-65.4517L70.9268-61.8022Q72.4452-60.0885 73.9486-59.605Q75.4521-59.1214 78.0777-59.1214L89.9461-59.1214Q93.4413-59.1214 95.3731-57.2707Q97.305-55.4199 97.305-51.7295L97.305-11.8022Q97.305-8.14957 95.3731-6.28544Q93.4413-4.42131 89.9461-4.42131ZM55.1852-11.2005Q61.0226-11.2005 65.829-14.046Q70.6354-16.8914 73.4753-21.6978Q76.3152-26.5042 76.3152-32.3904Q76.3152-38.2655 73.4942-43.0963Q70.6732-47.9272 65.8668-50.7671Q61.0604-53.607 55.1852-53.607Q49.3101-53.607 44.5226-50.7671Q39.7351-47.9272 36.8896-43.0963Q34.0442-38.2655 34.0442-32.3904Q34.0442-26.5042 36.8896-21.6978Q39.7351-16.8914 44.5226-14.046Q49.3101-11.2005 55.1852-11.2005ZM55.1852-14.5035Q50.2583-14.5035 46.1985-16.8993Q42.1387-19.295 39.7374-23.3548Q37.3362-27.4146 37.3362-32.3904Q37.3362-37.3283 39.7374-41.4015Q42.1387-45.4747 46.193-47.8894Q50.2473-50.304 55.1852-50.304Q60.1121-50.304 64.172-47.8894Q68.2318-45.4747 70.6275-41.4015Q73.0232-37.3283 73.0232-32.3904Q73.0232-27.4146 70.6275-23.3548Q68.2318-19.295 64.172-16.8993Q60.1121-14.5035 55.1852-14.5035ZM78.4117-46.3127Q78.4117-44.4131 79.7387-43.1672Q81.0657-41.9213 82.9543-41.8567Q84.6916-41.8189 86.0186-43.1538Q87.3456-44.4887 87.3456-46.3127Q87.3456-48.039 86.0186-49.4038Q84.6916-50.7686 82.9543-50.7686Q81.0657-50.7686 79.7387-49.4038Q78.4117-48.039 78.4117-46.3127Z"/>
  </g>
  <g id="Ultralight-S" transform="matrix(1 0 0 1 505.141 696)">
   <path d="M19.7754-1.5625L89.4043-1.5625Q94.2871-1.5625 96.8262-4.15039Q99.3652-6.73828 99.3652-11.5723L99.3652-51.9531Q99.3652-56.7871 96.8262-59.3506Q94.2871-61.9141 89.4043-61.9141L77.7344-61.9141Q75.3418-61.9141 74.292-62.2803Q73.2422-62.6465 71.6797-64.4043L68.3105-68.1641Q66.6992-69.873 65.2832-70.459Q63.8672-71.0449 61.1816-71.0449L46.875-71.0449Q44.1895-71.0449 42.749-70.459Q41.3086-69.873 39.7461-68.1641L36.3281-64.4043Q34.8633-62.6953 33.7891-62.3047Q32.7148-61.9141 30.3223-61.9141L19.7754-61.9141Q14.8438-61.9141 12.3047-59.3506Q9.76562-56.7871 9.76562-51.9531L9.76562-11.5723Q9.76562-6.73828 12.3047-4.15039Q14.8438-1.5625 19.7754-1.5625ZM19.873-3.75977Q16.1133-3.75977 14.0381-5.76172Q11.9629-7.76367 11.9629-11.6699L11.9629-51.8066Q11.9629-55.7617 14.0381-57.7393Q16.1133-59.7168 19.873-59.7168L30.4199-59.7168Q33.0566-59.7168 34.5215-60.1562Q35.9863-60.5957 37.5488-62.3535L40.918-66.1133Q42.5293-67.9199 43.7256-68.3594Q44.9219-68.7988 46.9727-68.7988L61.0352-68.7988Q63.1348-68.7988 64.3311-68.3594Q65.5273-67.9199 67.1387-66.1133L70.5078-62.3535Q72.0703-60.5957 73.5352-60.1562Q75-59.7168 77.6367-59.7168L89.3066-59.7168Q93.0664-59.7168 95.1416-57.7393Q97.2168-55.7617 97.2168-51.8066L97.2168-11.6699Q97.2168-7.76367 95.1416-5.76172Q93.0664-3.75977 89.3066-3.75977ZM54.5898-11.0352Q60.4492-11.0352 65.2832-13.8916Q70.1172-16.748 72.9736-21.582Q75.8301-26.416 75.8301-32.3242Q75.8301-38.2324 72.998-43.0908Q70.166-47.9492 65.332-50.8057Q60.498-53.6621 54.5898-53.6621Q48.6816-53.6621 43.8721-50.8057Q39.0625-47.9492 36.2061-43.0908Q33.3496-38.2324 33.3496-32.3242Q33.3496-26.416 36.2061-21.582Q39.0625-16.748 43.8721-13.8916Q48.6816-11.0352 54.5898-11.0352ZM54.5898-13.3789Q49.3652-13.3789 45.0684-15.918Q40.7715-18.457 38.2324-22.7539Q35.6934-27.0508 35.6934-32.3242Q35.6934-37.5488 38.2324-41.8701Q40.7715-46.1914 45.0684-48.7549Q49.3652-51.3184 54.5898-51.3184Q59.8145-51.3184 64.1113-48.7549Q68.4082-46.1914 70.9473-41.8701Q73.4863-37.5488 73.4863-32.3242Q73.4863-27.0508 70.9473-22.7539Q68.4082-18.457 64.1113-15.918Q59.8145-13.3789 54.5898-13.3789ZM78.125-46.1914Q78.125-44.3359 79.4189-43.1396Q80.7129-41.9434 82.5684-41.8457Q84.2285-41.7969 85.5225-43.1152Q86.8164-44.4336 86.8164-46.1914Q86.8164-47.8516 85.5225-49.1943Q84.2285-50.5371 82.5684-50.5371Q80.7129-50.5371 79.4189-49.1943Q78.125-47.8516 78.125-46.1914Z"/>
  </g>
 </g>
</svg>
