<?xml version="1.0" encoding="UTF-8"?>
<!--Generator: Apple Native CoreSVG 175-->
<!DOCTYPE svg
PUBLIC "-//W3C//DTD SVG 1.1//EN"
       "http://www.w3.org/Graphics/SVG/1.1/DTD/svg11.dtd">
<svg version="1.1" xmlns="http://www.w3.org/2000/svg" xmlns:xlink="http://www.w3.org/1999/xlink" width="3300" height="2200">
 <!--glyph: "uni100332.medium", point size: 100.0, font version: "17.3d3e1", template writer version: "65.1"-->
 <g id="Notes">
  <rect height="2200" id="artboard" style="fill:white;opacity:1" width="3300" x="0" y="0"/>
  <line style="fill:none;stroke:black;opacity:1;stroke-width:0.5;" x1="263" x2="3036" y1="292" y2="292"/>
  <text style="stroke:none;fill:black;font-family:sans-serif;font-size:13;font-weight:bold;" transform="matrix(1 0 0 1 263 322)">Weight/Scale Variations</text>
  <text style="stroke:none;fill:black;font-family:sans-serif;font-size:13;text-anchor:middle;" transform="matrix(1 0 0 1 559.711 322)">Ultralight</text>
  <text style="stroke:none;fill:black;font-family:sans-serif;font-size:13;text-anchor:middle;" transform="matrix(1 0 0 1 856.422 322)">Thin</text>
  <text style="stroke:none;fill:black;font-family:sans-serif;font-size:13;text-anchor:middle;" transform="matrix(1 0 0 1 1153.13 322)">Light</text>
  <text style="stroke:none;fill:black;font-family:sans-serif;font-size:13;text-anchor:middle;" transform="matrix(1 0 0 1 1449.84 322)">Regular</text>
  <text style="stroke:none;fill:black;font-family:sans-serif;font-size:13;text-anchor:middle;" transform="matrix(1 0 0 1 1746.56 322)">Medium</text>
  <text style="stroke:none;fill:black;font-family:sans-serif;font-size:13;text-anchor:middle;" transform="matrix(1 0 0 1 2043.27 322)">Semibold</text>
  <text style="stroke:none;fill:black;font-family:sans-serif;font-size:13;text-anchor:middle;" transform="matrix(1 0 0 1 2339.98 322)">Bold</text>
  <text style="stroke:none;fill:black;font-family:sans-serif;font-size:13;text-anchor:middle;" transform="matrix(1 0 0 1 2636.69 322)">Heavy</text>
  <text style="stroke:none;fill:black;font-family:sans-serif;font-size:13;text-anchor:middle;" transform="matrix(1 0 0 1 2933.4 322)">Black</text>
  <line style="fill:none;stroke:black;opacity:1;stroke-width:0.5;" x1="263" x2="3036" y1="1903" y2="1903"/>
  <g transform="matrix(1 0 0 1 263 1933)">
   <path d="M9.24805 0.830078Q10.8691 0.830078 12.2949 0.214844Q13.7207-0.400391 14.8096-1.49414Q15.8984-2.58789 16.5186-4.01367Q17.1387-5.43945 17.1387-7.05078Q17.1387-8.66211 16.5186-10.0879Q15.8984-11.5137 14.8047-12.6074Q13.7109-13.7012 12.2852-14.3164Q10.8594-14.9316 9.23828-14.9316Q7.62695-14.9316 6.20117-14.3164Q4.77539-13.7012 3.69141-12.6074Q2.60742-11.5137 1.9873-10.0879Q1.36719-8.66211 1.36719-7.05078Q1.36719-5.43945 1.9873-4.01367Q2.60742-2.58789 3.69629-1.49414Q4.78516-0.400391 6.21094 0.214844Q7.63672 0.830078 9.24805 0.830078ZM9.24805-0.654297Q7.91992-0.654297 6.7627-1.14746Q5.60547-1.64062 4.73145-2.51953Q3.85742-3.39844 3.36426-4.56055Q2.87109-5.72266 2.87109-7.05078Q2.87109-8.37891 3.35938-9.54102Q3.84766-10.7031 4.72168-11.582Q5.5957-12.4609 6.75293-12.9541Q7.91016-13.4473 9.23828-13.4473Q10.5762-13.4473 11.7334-12.9541Q12.8906-12.4609 13.7695-11.582Q14.6484-10.7031 15.1465-9.54102Q15.6445-8.37891 15.6445-7.05078Q15.6445-5.72266 15.1514-4.56055Q14.6582-3.39844 13.7842-2.51953Q12.9102-1.64062 11.748-1.14746Q10.5859-0.654297 9.24805-0.654297ZM5.6543-7.05078Q5.6543-6.72852 5.85938-6.52832Q6.06445-6.32812 6.40625-6.32812L8.51562-6.32812L8.51562-4.20898Q8.51562-3.88672 8.71094-3.67676Q8.90625-3.4668 9.23828-3.4668Q9.56055-3.4668 9.77051-3.67676Q9.98047-3.88672 9.98047-4.20898L9.98047-6.32812L12.0898-6.32812Q12.4219-6.32812 12.627-6.52832Q12.832-6.72852 12.832-7.05078Q12.832-7.38281 12.627-7.58789Q12.4219-7.79297 12.0898-7.79297L9.98047-7.79297L9.98047-9.90234Q9.98047-10.2344 9.77051-10.4443Q9.56055-10.6543 9.23828-10.6543Q8.90625-10.6543 8.71094-10.4443Q8.51562-10.2344 8.51562-9.90234L8.51562-7.79297L6.40625-7.79297Q6.06445-7.79297 5.85938-7.58789Q5.6543-7.38281 5.6543-7.05078Z"/>
  </g>
  <g transform="matrix(1 0 0 1 281.867 1933)">
   <path d="M11.709 2.91016Q13.75 2.91016 15.5518 2.12891Q17.3535 1.34766 18.7305-0.0292969Q20.1074-1.40625 20.8887-3.20801Q21.6699-5.00977 21.6699-7.05078Q21.6699-9.0918 20.8887-10.8936Q20.1074-12.6953 18.7305-14.0723Q17.3535-15.4492 15.5469-16.2305Q13.7402-17.0117 11.6992-17.0117Q9.6582-17.0117 7.85645-16.2305Q6.05469-15.4492 4.68262-14.0723Q3.31055-12.6953 2.5293-10.8936Q1.74805-9.0918 1.74805-7.05078Q1.74805-5.00977 2.5293-3.20801Q3.31055-1.40625 4.6875-0.0292969Q6.06445 1.34766 7.86621 2.12891Q9.66797 2.91016 11.709 2.91016ZM11.709 1.25Q9.98047 1.25 8.47656 0.605469Q6.97266-0.0390625 5.83496-1.17676Q4.69727-2.31445 4.05762-3.81836Q3.41797-5.32227 3.41797-7.05078Q3.41797-8.7793 4.05762-10.2832Q4.69727-11.7871 5.83008-12.9297Q6.96289-14.0723 8.4668-14.7119Q9.9707-15.3516 11.6992-15.3516Q13.4277-15.3516 14.9316-14.7119Q16.4355-14.0723 17.5781-12.9297Q18.7207-11.7871 19.3652-10.2832Q20.0098-8.7793 20.0098-7.05078Q20.0098-5.32227 19.3701-3.81836Q18.7305-2.31445 17.5928-1.17676Q16.4551-0.0390625 14.9463 0.605469Q13.4375 1.25 11.709 1.25ZM7.17773-7.05078Q7.17773-6.69922 7.41211-6.47461Q7.64648-6.25 8.01758-6.25L10.8887-6.25L10.8887-3.36914Q10.8887-2.99805 11.1133-2.76855Q11.3379-2.53906 11.6895-2.53906Q12.0605-2.53906 12.29-2.76855Q12.5195-2.99805 12.5195-3.36914L12.5195-6.25L15.4004-6.25Q15.7715-6.25 16.001-6.47461Q16.2305-6.69922 16.2305-7.05078Q16.2305-7.42188 16.001-7.65137Q15.7715-7.88086 15.4004-7.88086L12.5195-7.88086L12.5195-10.752Q12.5195-11.1328 12.29-11.3623Q12.0605-11.5918 11.6895-11.5918Q11.3379-11.5918 11.1133-11.3574Q10.8887-11.123 10.8887-10.752L10.8887-7.88086L8.01758-7.88086Q7.63672-7.88086 7.40723-7.65137Q7.17773-7.42188 7.17773-7.05078Z"/>
  </g>
  <g transform="matrix(1 0 0 1 305.646 1933)">
   <path d="M14.9707 5.66406Q17.0605 5.66406 18.96 5.01465Q20.8594 4.36523 22.4512 3.19336Q24.043 2.02148 25.2197 0.429688Q26.3965-1.16211 27.0459-3.06641Q27.6953-4.9707 27.6953-7.05078Q27.6953-9.14062 27.0459-11.04Q26.3965-12.9395 25.2197-14.5312Q24.043-16.123 22.4512-17.2998Q20.8594-18.4766 18.9551-19.126Q17.0508-19.7754 14.9609-19.7754Q12.8711-19.7754 10.9717-19.126Q9.07227-18.4766 7.48535-17.2998Q5.89844-16.123 4.72168-14.5312Q3.54492-12.9395 2.90039-11.04Q2.25586-9.14062 2.25586-7.05078Q2.25586-4.9707 2.90527-3.06641Q3.55469-1.16211 4.72656 0.429688Q5.89844 2.02148 7.49023 3.19336Q9.08203 4.36523 10.9814 5.01465Q12.8809 5.66406 14.9707 5.66406ZM14.9707 3.84766Q13.1641 3.84766 11.5283 3.2959Q9.89258 2.74414 8.53516 1.74805Q7.17773 0.751953 6.17676-0.610352Q5.17578-1.97266 4.62891-3.6084Q4.08203-5.24414 4.08203-7.05078Q4.08203-8.86719 4.62891-10.5029Q5.17578-12.1387 6.17188-13.501Q7.16797-14.8633 8.52539-15.8594Q9.88281-16.8555 11.5186-17.4023Q13.1543-17.9492 14.9609-17.9492Q16.7773-17.9492 18.4131-17.4023Q20.0488-16.8555 21.4111-15.8594Q22.7734-14.8633 23.7695-13.501Q24.7656-12.1387 25.3174-10.5029Q25.8691-8.86719 25.8691-7.05078Q25.8789-5.24414 25.332-3.6084Q24.7852-1.97266 23.7842-0.610352Q22.7832 0.751953 21.4209 1.74805Q20.0586 2.74414 18.4229 3.2959Q16.7871 3.84766 14.9707 3.84766ZM9.19922-7.05078Q9.19922-6.66992 9.45801-6.4209Q9.7168-6.17188 10.1172-6.17188L14.0625-6.17188L14.0625-2.2168Q14.0625-1.81641 14.3115-1.55762Q14.5605-1.29883 14.9512-1.29883Q15.3516-1.29883 15.6104-1.55273Q15.8691-1.80664 15.8691-2.2168L15.8691-6.17188L19.8242-6.17188Q20.2246-6.17188 20.4785-6.4209Q20.7324-6.66992 20.7324-7.05078Q20.7324-7.46094 20.4785-7.71484Q20.2246-7.96875 19.8242-7.96875L15.8691-7.96875L15.8691-11.9141Q15.8691-12.3242 15.6104-12.583Q15.3516-12.8418 14.9512-12.8418Q14.5605-12.8418 14.3115-12.583Q14.0625-12.3242 14.0625-11.9141L14.0625-7.96875L10.1172-7.96875Q9.70703-7.96875 9.45312-7.71484Q9.19922-7.46094 9.19922-7.05078Z"/>
  </g>
  <text style="stroke:none;fill:black;font-family:sans-serif;font-size:13;font-weight:bold;" transform="matrix(1 0 0 1 263 1953)">Design Variations</text>
  <text style="stroke:none;fill:black;font-family:sans-serif;font-size:13;" transform="matrix(1 0 0 1 263 1971)">Symbols are supported in up to nine weights and three scales.</text>
  <text style="stroke:none;fill:black;font-family:sans-serif;font-size:13;" transform="matrix(1 0 0 1 263 1989)">For optimal layout with text and other symbols, vertically align</text>
  <text style="stroke:none;fill:black;font-family:sans-serif;font-size:13;" transform="matrix(1 0 0 1 263 2007)">symbols with the adjacent text.</text>
  <line style="fill:none;stroke:#00AEEF;stroke-width:0.5;opacity:1.0;" x1="776" x2="776" y1="1919" y2="1933"/>
  <g transform="matrix(1 0 0 1 776 1933)">
   <path d="M3.31055 0.15625Q3.70117 0.15625 3.91602-0.00976562Q4.13086-0.175781 4.26758-0.585938L5.52734-4.0332L11.2891-4.0332L12.5488-0.585938Q12.6855-0.175781 12.9004-0.00976562Q13.1152 0.15625 13.4961 0.15625Q13.8867 0.15625 14.1162-0.0585938Q14.3457-0.273438 14.3457-0.644531Q14.3457-0.869141 14.2383-1.17188L9.6582-13.3691Q9.48242-13.8184 9.17969-14.043Q8.87695-14.2676 8.4082-14.2676Q7.5-14.2676 7.17773-13.3789L2.59766-1.16211Q2.49023-0.859375 2.49023-0.634766Q2.49023-0.263672 2.70996-0.0537109Q2.92969 0.15625 3.31055 0.15625ZM6.00586-5.51758L8.37891-12.0898L8.42773-12.0898L10.8008-5.51758Z"/>
  </g>
  <line style="fill:none;stroke:#00AEEF;stroke-width:0.5;opacity:1.0;" x1="793.197" x2="793.197" y1="1919" y2="1933"/>
  <text style="stroke:none;fill:black;font-family:sans-serif;font-size:13;font-weight:bold;" transform="matrix(1 0 0 1 776 1953)">Margins</text>
  <text style="stroke:none;fill:black;font-family:sans-serif;font-size:13;" transform="matrix(1 0 0 1 776 1971)">Leading and trailing margins on the left and right side of each symbol</text>
  <text style="stroke:none;fill:black;font-family:sans-serif;font-size:13;" transform="matrix(1 0 0 1 776 1989)">can be adjusted by modifying the x-location of the margin guidelines.</text>
  <text style="stroke:none;fill:black;font-family:sans-serif;font-size:13;" transform="matrix(1 0 0 1 776 2007)">Modifications are automatically applied proportionally to all</text>
  <text style="stroke:none;fill:black;font-family:sans-serif;font-size:13;" transform="matrix(1 0 0 1 776 2025)">scales and weights.</text>
  <g transform="matrix(1 0 0 1 1289 1933)">
   <path d="M2.8418 1.86523L4.54102 3.57422Q5.18555 4.22852 5.90332 4.17969Q6.62109 4.13086 7.31445 3.35938L18.0078-8.42773L17.041-9.4043L6.42578 2.27539Q6.16211 2.57812 5.89355 2.61719Q5.625 2.65625 5.27344 2.30469L4.10156 1.14258Q3.75 0.791016 3.79395 0.522461Q3.83789 0.253906 4.14062-0.0195312L15.6152-10.8203L14.6387-11.7871L3.04688-0.898438Q2.30469-0.214844 2.25098 0.498047Q2.19727 1.21094 2.8418 1.86523ZM9.25781-16.3281Q8.94531-16.0254 8.90625-15.6348Q8.86719-15.2441 9.04297-14.9512Q9.21875-14.6777 9.55566-14.541Q9.89258-14.4043 10.3809-14.5215Q11.4746-14.7754 12.5977-14.7314Q13.7207-14.6875 14.7949-13.9844L14.209-12.5293Q13.9551-11.9043 14.0674-11.4404Q14.1797-10.9766 14.5801-10.5664L16.875-8.25195Q17.2363-7.88086 17.5781-7.82227Q17.9199-7.76367 18.3398-7.8418L19.4043-8.03711L20.0684-7.36328L20.0293-6.80664Q20-6.43555 20.1221-6.12305Q20.2441-5.81055 20.6055-5.44922L21.3672-4.70703Q21.7285-4.3457 22.1533-4.33105Q22.5781-4.31641 22.9297-4.66797L25.8398-7.58789Q26.1914-7.93945 26.1816-8.35449Q26.1719-8.76953 25.8105-9.13086L25.0391-9.89258Q24.6875-10.2539 24.3799-10.3857Q24.0723-10.5176 23.7109-10.4883L23.1348-10.4395L22.4902-11.0742L22.7344-12.1973Q22.832-12.6172 22.6953-12.9834Q22.5586-13.3496 22.1191-13.7891L19.9219-15.9766Q18.6719-17.2168 17.2607-17.8369Q15.8496-18.457 14.4189-18.4814Q12.9883-18.5059 11.665-17.959Q10.3418-17.4121 9.25781-16.3281ZM10.752-15.957Q11.6602-16.6211 12.7002-16.9043Q13.7402-17.1875 14.8047-17.085Q15.8691-16.9824 16.8701-16.5137Q17.8711-16.0449 18.7012-15.2051L21.1328-12.793Q21.3086-12.6172 21.3525-12.4512Q21.3965-12.2852 21.3379-12.0312L21.0156-10.5469L22.5195-9.0625L23.5059-9.12109Q23.6914-9.13086 23.7891-9.09668Q23.8867-9.0625 24.0332-8.91602L24.6094-8.33984L22.168-5.89844L21.5918-6.47461Q21.4453-6.62109 21.4062-6.71875Q21.3672-6.81641 21.377-7.01172L21.4453-7.98828L19.9512-9.47266L18.4277-9.21875Q18.1836-9.16992 18.042-9.2041Q17.9004-9.23828 17.7148-9.41406L15.7129-11.416Q15.5176-11.5918 15.4932-11.7529Q15.4688-11.9141 15.5859-12.1875L16.4648-14.2773Q15.293-15.3711 13.8281-15.791Q12.3633-16.2109 10.8398-15.7617Q10.7227-15.7324 10.6885-15.8057Q10.6543-15.8789 10.752-15.957Z"/>
  </g>
  <text style="stroke:none;fill:black;font-family:sans-serif;font-size:13;font-weight:bold;" transform="matrix(1 0 0 1 1289 1953)">Exporting</text>
  <text style="stroke:none;fill:black;font-family:sans-serif;font-size:13;" transform="matrix(1 0 0 1 1289 1971)">Symbols should be outlined when exporting to ensure the</text>
  <text style="stroke:none;fill:black;font-family:sans-serif;font-size:13;" transform="matrix(1 0 0 1 1289 1989)">design is preserved when submitting to Xcode.</text>
  <text id="template-version" style="stroke:none;fill:black;font-family:sans-serif;font-size:13;text-anchor:end;" transform="matrix(1 0 0 1 3036 1933)">Template v.3.0</text>
  <text style="stroke:none;fill:black;font-family:sans-serif;font-size:13;text-anchor:end;" transform="matrix(1 0 0 1 3036 1951)">Requires Xcode 13 or greater</text>
  <text id="descriptive-name" style="stroke:none;fill:black;font-family:sans-serif;font-size:13;text-anchor:end;" transform="matrix(1 0 0 1 3036 1969)">Generated from text.bubble</text>
  <text style="stroke:none;fill:black;font-family:sans-serif;font-size:13;text-anchor:end;" transform="matrix(1 0 0 1 3036 1987)">Typeset at 100 points</text>
  <text style="stroke:none;fill:black;font-family:sans-serif;font-size:13;" transform="matrix(1 0 0 1 263 726)">Small</text>
  <text style="stroke:none;fill:black;font-family:sans-serif;font-size:13;" transform="matrix(1 0 0 1 263 1156)">Medium</text>
  <text style="stroke:none;fill:black;font-family:sans-serif;font-size:13;" transform="matrix(1 0 0 1 263 1586)">Large</text>
 </g>
 <g id="Guides">
  <g id="H-reference" style="fill:#27AAE1;stroke:none;" transform="matrix(1 0 0 1 339 696)">
   <path d="M0.993347 0L3.6377 0L29.3282-67.1326L30.0301-67.1326L30.0301-70.459L28.1227-70.459ZM11.6882-24.4797L46.9818-24.4797L46.2311-26.7288L12.4382-26.7288ZM55.1193 0L57.7637 0L30.6381-70.459L29.4327-70.459L29.4327-67.1326Z"/>
  </g>
  <line id="Baseline-S" style="fill:none;stroke:#27AAE1;opacity:1;stroke-width:0.5;" x1="263" x2="3036" y1="696" y2="696"/>
  <line id="Capline-S" style="fill:none;stroke:#27AAE1;opacity:1;stroke-width:0.5;" x1="263" x2="3036" y1="625.541" y2="625.541"/>
  <g id="H-reference" style="fill:#27AAE1;stroke:none;" transform="matrix(1 0 0 1 339 1126)">
   <path d="M0.993347 0L3.6377 0L29.3282-67.1326L30.0301-67.1326L30.0301-70.459L28.1227-70.459ZM11.6882-24.4797L46.9818-24.4797L46.2311-26.7288L12.4382-26.7288ZM55.1193 0L57.7637 0L30.6381-70.459L29.4327-70.459L29.4327-67.1326Z"/>
  </g>
  <line id="Baseline-M" style="fill:none;stroke:#27AAE1;opacity:1;stroke-width:0.5;" x1="263" x2="3036" y1="1126" y2="1126"/>
  <line id="Capline-M" style="fill:none;stroke:#27AAE1;opacity:1;stroke-width:0.5;" x1="263" x2="3036" y1="1055.54" y2="1055.54"/>
  <g id="H-reference" style="fill:#27AAE1;stroke:none;" transform="matrix(1 0 0 1 339 1556)">
   <path d="M0.993347 0L3.6377 0L29.3282-67.1326L30.0301-67.1326L30.0301-70.459L28.1227-70.459ZM11.6882-24.4797L46.9818-24.4797L46.2311-26.7288L12.4382-26.7288ZM55.1193 0L57.7637 0L30.6381-70.459L29.4327-70.459L29.4327-67.1326Z"/>
  </g>
  <line id="Baseline-L" style="fill:none;stroke:#27AAE1;opacity:1;stroke-width:0.5;" x1="263" x2="3036" y1="1556" y2="1556"/>
  <line id="Capline-L" style="fill:none;stroke:#27AAE1;opacity:1;stroke-width:0.5;" x1="263" x2="3036" y1="1485.54" y2="1485.54"/>
  <line id="left-margin-Regular-M" style="fill:none;stroke:#00AEEF;stroke-width:0.5;opacity:1.0;" x1="1383.59" x2="1383.59" y1="1030.79" y2="1150.12"/>
  <line id="right-margin-Regular-M" style="fill:none;stroke:#00AEEF;stroke-width:0.5;opacity:1.0;" x1="1516.1" x2="1516.1" y1="1030.79" y2="1150.12"/>
 </g>
 <g id="Symbols">
  <g id="Black-L" transform="matrix(1 0 0 1 2846.32 1556)">
   <path d="M59.4672 38.4135Q63.2622 38.4135 66.7544 36.7296Q70.2466 35.0456 74.846 31.0561L95.8363 12.8027L125.865 12.8027Q135.711 12.8027 142.928 8.81831Q150.144 4.83388 154.107-2.3824Q158.07-9.59868 158.07-19.4013L158.07-70.1917Q158.07-79.9943 154.107-87.2106Q150.144-94.4269 142.928-98.4113Q135.711-102.396 125.865-102.396L48.2893-102.396Q38.4427-102.396 31.2264-98.412Q24.0101-94.4282 20.047-87.2119Q16.084-79.9956 16.084-70.1917L16.084-19.4013Q16.084-9.5974 20.1931-2.38112Q24.3021 4.83516 31.2264 8.81895Q38.1506 12.8027 46.5371 12.8027L47.5812 12.8027L47.5812 25.3925Q47.5812 31.458 50.7795 34.9357Q53.9778 38.4135 59.4672 38.4135ZM64.2186 16.3767L64.2186-0.620949Q64.2186-4.2068 62.46-5.69226Q60.7013-7.17773 57.6619-7.17773L49.8104-7.17773Q42.9531-7.17773 39.5088-10.5966Q36.0645-14.0155 36.0645-20.9224L36.0645-68.6706Q36.0645-75.5775 39.5088-78.986Q42.9531-82.3945 49.8104-82.3945L124.344-82.3945Q131.197-82.3945 134.643-78.986Q138.088-75.5775 138.088-68.6706L138.088-20.9224Q138.088-14.0155 134.643-10.5966Q131.197-7.17773 124.344-7.17773L94.1609-7.17773Q90.5335-7.17773 88.4475-6.22865Q86.3614-5.27956 83.6253-2.62259ZM56.3326-58.5589L117.6-58.5589Q119.624-58.5589 121.043-60.0748Q122.461-61.5908 122.461-63.4978Q122.461-65.4632 121.043-66.9111Q119.624-68.3589 117.6-68.3589L56.3326-68.3589Q54.4256-68.3589 53.0368-66.9111Q51.648-65.4632 51.648-63.4978Q51.648-61.5908 53.0368-60.0748Q54.4256-58.5589 56.3326-58.5589ZM56.3326-39.9792L117.6-39.9792Q119.624-39.9792 121.043-41.4952Q122.461-43.0111 122.461-44.9181Q122.461-46.8836 121.043-48.3424Q119.624-49.8012 117.6-49.8012L56.3326-49.8012Q54.4256-49.8012 53.0368-48.3424Q51.648-46.8836 51.648-44.9181Q51.648-43.0111 53.0368-41.4952Q54.4256-39.9792 56.3326-39.9792ZM56.3326-21.3983L96.5064-21.3983Q98.5302-21.3983 99.9197-22.9039Q101.309-24.4095 101.309-26.3165Q101.309-28.3026 99.9197-29.7608Q98.5302-31.219 96.5064-31.219L56.3326-31.219Q54.4256-31.219 53.0368-29.7608Q51.648-28.3026 51.648-26.3165Q51.648-24.4095 53.0368-22.9039Q54.4256-21.3983 56.3326-21.3983Z"/>
  </g>
  <g id="Heavy-L" transform="matrix(1 0 0 1 2550.05 1556)">
   <path d="M58.2005 37.2545Q61.6201 37.2545 64.7121 35.6965Q67.8041 34.1384 71.9345 30.5347L93.1435 12.019L125.92 12.019Q135.6 12.019 142.602 8.18975Q149.604 4.36047 153.401-2.64152Q157.197-9.64351 157.197-19.2523L157.197-69.6174Q157.197-79.2262 153.401-86.2282Q149.604-93.2302 142.602-97.0595Q135.6-100.889 125.92-100.889L47.3614-100.889Q37.681-100.889 30.679-97.0625Q23.677-93.2363 19.8805-86.2343Q16.084-79.2323 16.084-69.6174L16.084-19.2523Q16.084-9.63748 19.992-2.63548Q23.9001 4.36651 30.679 8.19277Q37.4578 12.019 46.0227 12.019L47.5881 12.019L47.5881 25.5407Q47.5881 30.9899 50.4347 34.1222Q53.2813 37.2545 58.2005 37.2545ZM62.3964 17.8818L62.3964 0.574778Q62.3964-2.74072 60.8116-4.10978Q59.2269-5.47883 56.3428-5.47883L48.5336-5.47883Q41.0436-5.47883 37.3127-9.23209Q33.5818-12.9853 33.5818-20.4246L33.5818-68.4452Q33.5818-75.8844 37.3127-79.6228Q41.0436-83.3612 48.5336-83.3612L124.748-83.3612Q132.22-83.3612 135.957-79.6228Q139.693-75.8844 139.693-68.4452L139.693-20.4246Q139.693-12.9853 135.957-9.23209Q132.22-5.47883 124.748-5.47883L91.7874-5.47883Q88.439-5.47883 86.4788-4.62907Q84.5187-3.77931 82.0182-1.32667ZM55.4094-59.113L117.427-59.113Q119.312-59.113 120.63-60.5104Q121.949-61.9078 121.949-63.7027Q121.949-65.5422 120.63-66.8831Q119.312-68.2241 117.427-68.2241L55.4094-68.2241Q53.6145-68.2241 52.3212-66.8831Q51.028-65.5422 51.028-63.7027Q51.028-61.9078 52.3212-60.5104Q53.6145-59.113 55.4094-59.113ZM55.4094-40.0785L117.427-40.0785Q119.312-40.0785 120.63-41.4759Q121.949-42.8733 121.949-44.6682Q121.949-46.5077 120.63-47.8665Q119.312-49.2253 117.427-49.2253L55.4094-49.2253Q53.6145-49.2253 52.3212-47.8665Q51.028-46.5077 51.028-44.6682Q51.028-42.8733 52.3212-41.4759Q53.6145-40.0785 55.4094-40.0785ZM55.4094-21.0379L96.0166-21.0379Q97.9007-21.0379 99.197-22.4204Q100.493-23.803 100.493-25.5979Q100.493-27.4671 99.197-28.8229Q97.9007-30.1787 96.0166-30.1787L55.4094-30.1787Q53.6145-30.1787 52.3212-28.8229Q51.028-27.4671 51.028-25.5979Q51.028-23.803 52.3212-22.4204Q53.6145-21.0379 55.4094-21.0379Z"/>
  </g>
  <g id="Bold-L" transform="matrix(1 0 0 1 2253.95 1556)">
   <path d="M56.4669 35.7651Q59.4061 35.7651 62.0001 34.3825Q64.5942 32.9998 68.1078 29.9112L89.6102 11.0934L125.982 11.0934Q135.375 11.0934 142.083 7.46071Q148.791 3.82803 152.379-2.87957Q155.968-9.58717 155.968-18.8785L155.968-69.0613Q155.968-78.3526 152.379-85.0602Q148.791-91.7678 142.083-95.4005Q135.375-99.0332 125.982-99.0332L46.0701-99.0332Q36.6763-99.0332 29.9687-95.4076Q23.2611-91.7821 19.6726-85.0745Q16.084-78.3669 16.084-69.0613L16.084-18.8785Q16.084-9.57294 19.7456-2.86534Q23.4072 3.84225 29.9687 7.46783Q36.5303 11.0934 45.194 11.0934L47.4662 11.0934L47.4662 25.7296Q47.4662 30.3915 49.8734 33.0783Q52.2805 35.7651 56.4669 35.7651ZM59.9636 19.7007L59.9636 2.01886Q59.9636-0.92226 58.6037-2.13231Q57.2437-3.34237 54.6024-3.34237L46.8578-3.34237Q38.686-3.34237 34.6029-7.49266Q30.5198-11.643 30.5198-19.6662L30.5198-68.2736Q30.5198-76.2969 34.6029-80.4287Q38.686-84.5605 46.8578-84.5605L125.194-84.5605Q133.323-84.5605 137.42-80.4287Q141.518-76.2969 141.518-68.2736L141.518-19.6662Q141.518-11.643 137.42-7.49266Q133.323-3.34237 125.194-3.34237L88.6546-3.34237Q85.6786-3.34237 83.8938-2.61379Q82.109-1.88521 79.8982 0.298573ZM54.1263-59.7847L117.096-59.7847Q118.789-59.7847 119.973-61.0236Q121.157-62.2625 121.157-63.8974Q121.157-65.5615 119.973-66.7598Q118.789-67.9581 117.096-67.9581L54.1263-67.9581Q52.4914-67.9581 51.3294-66.7598Q50.1674-65.5615 50.1674-63.8974Q50.1674-62.2625 51.3294-61.0236Q52.4914-59.7847 54.1263-59.7847ZM54.1263-40.2413L117.096-40.2413Q118.789-40.2413 119.973-41.4802Q121.157-42.7191 121.157-44.354Q121.157-46.0181 119.973-47.2421Q118.789-48.466 117.096-48.466L54.1263-48.466Q52.4914-48.466 51.3294-47.2421Q50.1674-46.0181 50.1674-44.354Q50.1674-42.7191 51.3294-41.4802Q52.4914-40.2413 54.1263-40.2413ZM54.1263-20.6837L95.3305-20.6837Q97.0238-20.6837 98.1929-21.9041Q99.362-23.1245 99.362-24.7594Q99.362-26.4606 98.1929-27.6773Q97.0238-28.8941 95.3305-28.8941L54.1263-28.8941Q52.4914-28.8941 51.3294-27.6773Q50.1674-26.4606 50.1674-24.7594Q50.1674-23.1245 51.3294-21.9041Q52.4914-20.6837 54.1263-20.6837Z"/>
  </g>
  <g id="Semibold-L" transform="matrix(1 0 0 1 1957.67 1556)">
   <path d="M55.2718 34.7384Q57.8798 34.7384 60.1305 33.4767Q62.3813 32.2149 65.4697 29.4814L87.1744 10.4553L126.024 10.4553Q135.22 10.4553 141.725 6.95812Q148.23 3.46096 151.675-3.04368Q155.12-9.54833 155.12-18.6207L155.12-68.678Q155.12-77.7504 151.675-84.255Q148.23-90.7597 141.725-94.2568Q135.22-97.754 126.024-97.754L45.1799-97.754Q35.9838-97.754 29.4791-94.2668Q22.9745-90.7796 19.5292-84.2749Q16.084-77.7703 16.084-68.678L16.084-18.6207Q16.084-9.52845 19.5757-3.02381Q23.0673 3.48083 29.4791 6.96805Q35.8909 10.4553 44.6227 10.4553L47.3822 10.4553L47.3822 25.8598Q47.3822 29.9789 49.4864 32.3587Q51.5906 34.7384 55.2718 34.7384ZM58.2865 20.9547L58.2865 3.0144Q58.2865 0.331376 57.0815-0.769063Q55.8765-1.8695 53.4026-1.8695L45.7025-1.8695Q37.0607-1.8695 32.7347-6.29351Q28.4088-10.7175 28.4088-19.1434L28.4088-68.1553Q28.4088-76.5812 32.7347-80.9842Q37.0607-85.3872 45.7025-85.3872L125.501-85.3872Q134.084-85.3872 138.43-80.9842Q142.775-76.5812 142.775-68.1553L142.775-19.1434Q142.775-10.7175 138.43-6.29351Q134.084-1.8695 125.501-1.8695L86.4948-1.8695Q83.7755-1.8695 82.1117-1.22447Q80.4479-0.579432 78.4366 1.419ZM53.2417-60.2478L116.867-60.2478Q118.429-60.2478 119.52-61.3774Q120.611-62.507 120.611-64.0316Q120.611-65.5748 119.52-66.6748Q118.429-67.7748 116.867-67.7748L53.2417-67.7748Q51.7171-67.7748 50.6456-66.6748Q49.5742-65.5748 49.5742-64.0316Q49.5742-62.507 50.6456-61.3774Q51.7171-60.2478 53.2417-60.2478ZM53.2417-40.3536L116.867-40.3536Q118.429-40.3536 119.52-41.4832Q120.611-42.6128 120.611-44.1374Q120.611-45.6807 119.52-46.8116Q118.429-47.9425 116.867-47.9425L53.2417-47.9425Q51.7171-47.9425 50.6456-46.8116Q49.5742-45.6807 49.5742-44.1374Q49.5742-42.6128 50.6456-41.4832Q51.7171-40.3536 53.2417-40.3536ZM53.2417-20.4396L94.8575-20.4396Q96.4192-20.4396 97.5006-21.5482Q98.582-22.6568 98.582-24.1814Q98.582-25.7666 97.5006-26.8876Q96.4192-28.0085 94.8575-28.0085L53.2417-28.0085Q51.7171-28.0085 50.6456-26.8876Q49.5742-25.7666 49.5742-24.1814Q49.5742-22.6568 50.6456-21.5482Q51.7171-20.4396 53.2417-20.4396Z"/>
  </g>
  <g id="Medium-L" transform="matrix(1 0 0 1 1661.28 1556)">
   <path d="M54.3655 33.9599Q56.7224 33.9599 58.7129 32.7898Q60.7033 31.6197 63.4694 29.1554L85.3274 9.97143L126.056 9.97143Q135.103 9.97143 141.453 6.57703Q147.804 3.18263 151.141-3.16812Q154.477-9.51887 154.477-18.4253L154.477-68.3873Q154.477-77.2937 151.141-83.6445Q147.804-89.9953 141.453-93.3896Q135.103-96.784 126.056-96.784L44.5049-96.784Q35.4586-96.784 29.1079-93.4017Q22.7571-90.0194 19.4206-83.6687Q16.084-77.3179 16.084-68.3873L16.084-18.4253Q16.084-9.49472 19.4468-3.14397Q22.8097 3.20679 29.1079 6.58911Q35.4061 9.97143 44.1895 9.97143L47.3185 9.97143L47.3185 25.9586Q47.3185 29.6661 49.193 31.813Q51.0675 33.9599 54.3655 33.9599ZM57.0148 21.9055L57.0148 3.76927Q57.0148 1.28194 55.9273 0.264612Q54.8398-0.752712 52.4929-0.752712L44.8265-0.752712Q35.8283-0.752712 31.3182-5.38427Q26.8081-10.0158 26.8081-18.747L26.8081-68.0656Q26.8081-76.7968 31.3182-81.4055Q35.8283-86.0142 44.8265-86.0142L125.735-86.0142Q134.661-86.0142 139.195-81.4055Q143.729-76.7968 143.729-68.0656L143.729-18.747Q143.729-10.0158 139.195-5.38427Q134.661-0.752712 125.735-0.752712L84.8572-0.752712Q82.3326-0.752712 80.7604-0.171023Q79.1883 0.410666 77.3284 2.26856ZM52.571-60.5989L116.694-60.5989Q118.156-60.5989 119.176-61.6456Q120.197-62.6924 120.197-64.1334Q120.197-65.5849 119.176-66.6103Q118.156-67.6358 116.694-67.6358L52.571-67.6358Q51.13-67.6358 50.1272-66.6103Q49.1243-65.5849 49.1243-64.1334Q49.1243-62.6924 50.1272-61.6456Q51.13-60.5989 52.571-60.5989ZM52.571-40.4387L116.694-40.4387Q118.156-40.4387 119.176-41.4855Q120.197-42.5322 120.197-43.9732Q120.197-45.4248 119.176-46.4851Q118.156-47.5455 116.694-47.5455L52.571-47.5455Q51.13-47.5455 50.1272-46.4851Q49.1243-45.4248 49.1243-43.9732Q49.1243-42.5322 50.1272-41.4855Q51.13-40.4387 52.571-40.4387ZM52.571-20.2544L94.4988-20.2544Q95.9609-20.2544 96.9758-21.2783Q97.9907-22.3022 97.9907-23.7432Q97.9907-25.2405 96.9758-26.2888Q95.9609-27.3371 94.4988-27.3371L52.571-27.3371Q51.13-27.3371 50.1272-26.2888Q49.1243-25.2405 49.1243-23.7432Q49.1243-22.3022 50.1272-21.2783Q51.13-20.2544 52.571-20.2544Z"/>
  </g>
  <g id="Regular-L" transform="matrix(1 0 0 1 1364.99 1556)">
   <path d="M53.1835 32.9444Q55.2129 32.9444 56.8638 31.8939Q58.5147 30.8434 60.8603 28.7303L82.9184 9.34032L126.098 9.34032Q134.949 9.34032 141.099 6.07996Q147.249 2.8196 150.444-3.33043Q153.639-9.48046 153.639-18.1704L153.639-68.0081Q153.639-76.6981 150.444-82.8481Q147.249-88.9982 141.099-92.2585Q134.949-95.5189 126.098-95.5189L43.6245-95.5189Q34.7737-95.5189 28.6236-92.2734Q22.4736-89.0279 19.2788-82.8779Q16.084-76.7278 16.084-68.0081L16.084-18.1704Q16.084-9.45072 19.2788-3.30069Q22.4736 2.84934 28.6236 6.09483Q34.7737 9.34032 43.6245 9.34032L47.2354 9.34032L47.2354 26.0873Q47.2354 29.2581 48.8103 31.1012Q50.3852 32.9444 53.1835 32.9444ZM55.3561 23.1457L55.3561 4.75387Q55.3561 2.5218 54.4219 1.61288Q53.4876 0.703969 51.3062 0.703969L43.6839 0.703969Q34.2208 0.703969 29.4706-4.19829Q24.7203-9.10056 24.7203-18.2299L24.7203-67.9487Q24.7203-77.078 29.4706-81.9549Q34.2208-86.8319 43.6839-86.8319L126.039-86.8319Q135.413-86.8319 140.193-81.9549Q144.973-77.078 144.973-67.9487L144.973-18.2299Q144.973-9.10056 140.193-4.19829Q135.413 0.703969 126.039 0.703969L82.7211 0.703969Q80.4505 0.703969 78.9979 1.20303Q77.5453 1.7021 75.8829 3.37668ZM51.6962-61.0569L116.468-61.0569Q117.8-61.0569 118.728-61.9955Q119.656-62.9342 119.656-64.2661Q119.656-65.5981 118.728-66.5262Q117.8-67.4544 116.468-67.4544L51.6962-67.4544Q50.3642-67.4544 49.4509-66.5262Q48.5376-65.5981 48.5376-64.2661Q48.5376-62.9342 49.4509-61.9955Q50.3642-61.0569 51.6962-61.0569ZM51.6962-40.5498L116.468-40.5498Q117.8-40.5498 118.728-41.4884Q119.656-42.4271 119.656-43.759Q119.656-45.091 118.728-46.0594Q117.8-47.0278 116.468-47.0278L51.6962-47.0278Q50.3642-47.0278 49.4509-46.0594Q48.5376-45.091 48.5376-43.759Q48.5376-42.4271 49.4509-41.4884Q50.3642-40.5498 51.6962-40.5498ZM51.6962-20.013L94.031-20.013Q95.363-20.013 96.2911-20.9263Q97.2193-21.8396 97.2193-23.1715Q97.2193-24.5542 96.2911-25.5077Q95.363-26.4612 94.031-26.4612L51.6962-26.4612Q50.3642-26.4612 49.4509-25.5077Q48.5376-24.5542 48.5376-23.1715Q48.5376-21.8396 49.4509-20.9263Q50.3642-20.013 51.6962-20.013Z"/>
  </g>
  <g id="Light-L" transform="matrix(1 0 0 1 1069.18 1556)">
   <path d="M50.9261 31.5694Q52.5245 31.5694 53.8163 30.7652Q55.1081 29.961 56.7969 28.443L79.2039 8.99144L126.098 8.99144Q134.231 8.99144 139.991 5.89526Q145.751 2.79908 148.792-2.96103Q151.833-8.72115 151.833-16.6928L151.833-68.6238Q151.833-76.5955 148.792-82.3556Q145.751-88.1157 139.991-91.2119Q134.231-94.3081 126.098-94.3081L41.8185-94.3081Q33.686-94.3081 27.9259-91.237Q22.1658-88.166 19.1249-82.4059Q16.084-76.6458 16.084-68.6238L16.084-16.6928Q16.084-8.67089 19.1249-2.91077Q22.1658 2.84934 27.9259 5.92039Q33.686 8.99144 41.8185 8.99144L46.3119 8.99144L46.3119 26.2515Q46.3119 28.7245 47.5584 30.147Q48.805 31.5694 50.9261 31.5694ZM52.5446 24.1103L52.5446 5.51318Q52.5446 3.79416 51.8259 3.09046Q51.1071 2.38677 49.4182 2.38677L41.919 2.38677Q32.6406 2.38677 27.6646-2.67967Q22.6887-7.74611 22.6887-16.7934L22.6887-68.5233Q22.6887-77.5705 27.6646-82.6219Q32.6406-87.6733 41.919-87.6733L125.998-87.6733Q135.126-87.6733 140.152-82.6219Q145.178-77.5705 145.178-68.5233L145.178-16.7934Q145.178-7.74611 140.152-2.67967Q135.126 2.38677 125.998 2.38677L79.3145 2.38677Q77.4748 2.38677 76.2685 2.81401Q75.0622 3.24125 73.5844 4.62852ZM49.9108-61.4262L115.483-61.4262Q116.569-61.4262 117.333-62.1802Q118.097-62.9342 118.097-64.0198Q118.097-65.1055 117.333-65.8695Q116.569-66.6335 115.483-66.6335L49.9108-66.6335Q48.8251-66.6335 48.0862-65.8695Q47.3473-65.1055 47.3473-64.0198Q47.3473-62.9342 48.0862-62.1802Q48.8251-61.4262 49.9108-61.4262ZM49.9108-40.9192L115.483-40.9192Q116.569-40.9192 117.333-41.6731Q118.097-42.4271 118.097-43.5128Q118.097-44.5985 117.333-45.4027Q116.569-46.2069 115.483-46.2069L49.9108-46.2069Q48.8251-46.2069 48.0862-45.4027Q47.3473-44.5985 47.3473-43.5128Q47.3473-42.4271 48.0862-41.6731Q48.8251-40.9192 49.9108-40.9192ZM49.9108-20.3618L93.0459-20.3618Q94.1316-20.3618 94.8956-21.1007Q95.6596-21.8396 95.6596-22.9253Q95.6596-24.0411 94.8956-24.8202Q94.1316-25.5993 93.0459-25.5993L49.9108-25.5993Q48.8251-25.5993 48.0862-24.8202Q47.3473-24.0411 47.3473-22.9253Q47.3473-21.8396 48.0862-21.1007Q48.8251-20.3618 49.9108-20.3618Z"/>
  </g>
  <g id="Thin-L" transform="matrix(1 0 0 1 773.672 1556)">
   <path d="M47.9405 29.7509Q48.9689 29.7509 49.7857 29.2724Q50.6025 28.7939 51.4228 28.063L74.2912 8.53003L126.098 8.53003Q133.281 8.53003 138.525 5.65098Q143.77 2.77194 146.607-2.47248Q149.444-7.71689 149.444-14.7386L149.444-69.4381Q149.444-76.4598 146.607-81.7042Q143.77-86.9486 138.525-89.8277Q133.281-92.7067 126.098-92.7067L39.43-92.7067Q32.2475-92.7067 27.0031-89.8664Q21.7586-87.026 18.9213-81.7816Q16.084-76.5372 16.084-69.4381L16.084-14.7386Q16.084-7.63949 18.9213-2.39508Q21.7586 2.84934 27.0031 5.68969Q32.2475 8.53003 39.43 8.53003L45.0905 8.53003L45.0905 26.4687Q45.0905 28.0188 45.9028 28.8849Q46.7151 29.7509 47.9405 29.7509ZM48.8262 25.3859L48.8262 6.51743Q48.8262 5.47696 48.3924 5.04468Q47.9586 4.61241 46.9212 4.61241L39.5848 4.61241Q30.5507 4.61241 25.2761-0.671165Q20.0016-5.95474 20.0016-14.8934L20.0016-69.2833Q20.0016-78.2219 25.2761-83.504Q30.5507-88.7861 39.5848-88.7861L125.944-88.7861Q134.746-88.7861 140.098-83.504Q145.449-78.2219 145.449-69.2833L145.449-14.8934Q145.449-5.95474 140.098-0.671165Q134.746 4.61241 125.944 4.61241L74.8089 4.61241Q73.5392 4.61241 72.6586 4.94465Q71.778 5.27689 70.5445 6.28418ZM47.5494-61.9148L114.18-61.9148Q114.94-61.9148 115.487-62.4245Q116.034-62.9342 116.034-63.6941Q116.034-64.4541 115.487-65.001Q114.94-65.5479 114.18-65.5479L47.5494-65.5479Q46.7894-65.5479 46.2813-65.001Q45.7731-64.4541 45.7731-63.6941Q45.7731-62.9342 46.2813-62.4245Q46.7894-61.9148 47.5494-61.9148ZM47.5494-41.4077L114.18-41.4077Q114.94-41.4077 115.487-41.9174Q116.034-42.4271 116.034-43.1871Q116.034-43.9471 115.487-44.5341Q114.94-45.1212 114.18-45.1212L47.5494-45.1212Q46.7894-45.1212 46.2813-44.5341Q45.7731-43.9471 45.7731-43.1871Q45.7731-42.4271 46.2813-41.9174Q46.7894-41.4077 47.5494-41.4077ZM47.5494-20.8232L91.7431-20.8232Q92.5031-20.8232 93.05-21.3314Q93.5969-21.8396 93.5969-22.5996Q93.5969-23.3626 93.05-23.9109Q92.5031-24.4593 91.7431-24.4593L47.5494-24.4593Q46.7894-24.4593 46.2813-23.9109Q45.7731-23.3626 45.7731-22.5996Q45.7731-21.8396 46.2813-21.3314Q46.7894-20.8232 47.5494-20.8232Z"/>
  </g>
  <g id="Ultralight-L" transform="matrix(1 0 0 1 477.575 1556)">
   <path d="M46.4113 28.8195Q47.1478 28.8195 47.7213 28.5078Q48.2948 28.1961 48.6702 27.8684L71.775 8.2937L126.098 8.2937Q132.794 8.2937 137.775 5.52587Q142.755 2.75804 145.488-2.22224Q148.221-7.20252 148.221-13.7377L148.221-69.8551Q148.221-76.3903 145.488-81.3706Q142.755-86.3508 137.775-89.1187Q132.794-91.8865 126.098-91.8865L38.2067-91.8865Q31.5107-91.8865 26.5304-89.1643Q21.5501-86.4421 18.817-81.4619Q16.084-76.4816 16.084-69.8551L16.084-13.7377Q16.084-7.11122 18.817-2.13094Q21.5501 2.84934 26.5304 5.57152Q31.5107 8.2937 38.2067 8.2937L44.4649 8.2937L44.4649 26.5799Q44.4649 27.6574 45.0548 28.2384Q45.6446 28.8195 46.4113 28.8195ZM46.9216 26.0393L46.9216 7.03181Q46.9216 6.33888 46.6338 6.04563Q46.346 5.75237 45.6422 5.75237L38.3893 5.75237Q29.4802 5.75237 24.0528 0.357582Q18.6253-5.03721 18.6253-13.9203L18.6253-69.6725Q18.6253-78.5556 24.0528-83.9558Q29.4802-89.3561 38.3893-89.3561L125.916-89.3561Q134.551-89.3561 140.07-83.9558Q145.588-78.5556 145.588-69.6725L145.588-13.9203Q145.588-5.03721 140.07 0.357582Q134.551 5.75237 125.916 5.75237L72.5012 5.75237Q71.5234 5.75237 70.8097 6.03596Q70.0959 6.31954 68.9875 7.1322ZM46.34-62.165L113.513-62.165Q114.106-62.165 114.542-62.5496Q114.977-62.9342 114.977-63.5273Q114.977-64.1205 114.542-64.5561Q114.106-64.9918 113.513-64.9918L46.34-64.9918Q45.7468-64.9918 45.3568-64.5561Q44.9668-64.1205 44.9668-63.5273Q44.9668-62.9342 45.3568-62.5496Q45.7468-62.165 46.34-62.165ZM46.34-41.658L113.513-41.658Q114.106-41.658 114.542-42.0425Q114.977-42.4271 114.977-43.0202Q114.977-43.6134 114.542-44.0893Q114.106-44.5651 113.513-44.5651L46.34-44.5651Q45.7468-44.5651 45.3568-44.0893Q44.9668-43.6134 44.9668-43.0202Q44.9668-42.4271 45.3568-42.0425Q45.7468-41.658 46.34-41.658ZM46.34-21.0596L91.0758-21.0596Q91.669-21.0596 92.1046-21.4496Q92.5403-21.8396 92.5403-22.4327Q92.5403-23.015 92.1046-23.4452Q91.669-23.8754 91.0758-23.8754L46.34-23.8754Q45.7468-23.8754 45.3568-23.4452Q44.9668-23.015 44.9668-22.4327Q44.9668-21.8396 45.3568-21.4496Q45.7468-21.0596 46.34-21.0596Z"/>
  </g>
  <g id="Black-M" transform="matrix(1 0 0 1 2865.68 1126)">
   <path d="M46.8546 22.6346Q50.0589 22.6346 53.0597 21.2552Q56.0605 19.8757 59.9379 16.5339L76.0595 2.60937L97.4654 2.60937Q105.139 2.60937 110.862-0.588634Q116.584-3.78664 119.776-9.50873Q122.969-15.2308 122.969-22.8945L122.969-62.8932Q122.969-70.5569 119.776-76.279Q116.584-82.0011 110.862-85.1991Q105.139-88.3971 97.4654-88.3971L37.9645-88.3971Q30.2904-88.3971 24.5683-85.1989Q18.8462-82.0008 15.6536-76.2787Q12.4609-70.5566 12.4609-62.8932L12.4609-22.8945Q12.4609-15.2311 15.7963-9.50904Q19.1317-3.78695 24.5683-0.588787Q30.0049 2.60937 36.2517 2.60937L36.7322 2.60937L36.7322 11.6317Q36.7322 16.7661 39.4678 19.7004Q42.2033 22.6346 46.8546 22.6346ZM50.9381 3.58911L50.9381-9.34157Q50.9381-12.2825 49.4553-13.5056Q47.9725-14.7287 45.5509-14.7287L39.4484-14.7287Q34.7046-14.7287 32.2518-17.1124Q29.799-19.496 29.799-24.3784L29.799-61.4093Q29.799-66.2917 32.2518-68.6726Q34.7046-71.0535 39.4484-71.0535L95.9815-71.0535Q100.726-71.0535 103.179-68.6726Q105.631-66.2917 105.631-61.4093L105.631-24.3784Q105.631-19.496 103.179-17.1124Q100.726-14.7287 95.9815-14.7287L74.5287-14.7287Q71.5371-14.7287 69.8461-13.9178Q68.1551-13.1068 65.8577-10.9117ZM44.1947-52.8776L91.1249-52.8776Q92.7795-52.8776 93.9423-54.1289Q95.1051-55.3802 95.1051-56.9207Q95.1051-58.5182 93.9423-59.7095Q92.7795-60.9009 91.1249-60.9009L44.1947-60.9009Q42.6543-60.9009 41.5199-59.7095Q40.3855-58.5182 40.3855-56.9207Q40.3855-55.3802 41.5199-54.1289Q42.6543-52.8776 44.1947-52.8776ZM44.1947-38.874L91.1249-38.874Q92.7795-38.874 93.9423-40.1254Q95.1051-41.3767 95.1051-42.9172Q95.1051-44.5147 93.9423-45.7086Q92.7795-46.9026 91.1249-46.9026L44.1947-46.9026Q42.6543-46.9026 41.5199-45.7086Q40.3855-44.5147 40.3855-42.9172Q40.3855-41.3767 41.5199-40.1254Q42.6543-38.874 44.1947-38.874ZM44.1947-24.8708L75.0551-24.8708Q76.7097-24.8708 77.844-26.1194Q78.9782-27.368 78.9782-28.9084Q78.9782-30.5115 77.844-31.7056Q76.7097-32.8997 75.0551-32.8997L44.1947-32.8997Q42.6543-32.8997 41.5199-31.7056Q40.3855-30.5115 40.3855-28.9084Q40.3855-27.368 41.5199-26.1194Q42.6543-24.8708 44.1947-24.8708Z"/>
  </g>
  <g id="Heavy-M" transform="matrix(1 0 0 1 2569.32 1126)">
   <path d="M45.8245 21.6285Q48.7017 21.6285 51.3444 20.3494Q53.9871 19.0703 57.4667 16.0507L73.7697 1.87542L97.5193 1.87542Q105.097 1.87542 110.646-1.18605Q116.194-4.24753 119.238-9.79611Q122.282-15.3447 122.282-22.8852L122.282-62.275Q122.282-69.8155 119.238-75.3641Q116.194-80.9127 110.646-83.9742Q105.097-87.0356 97.5193-87.0356L37.224-87.0356Q29.6461-87.0356 24.0976-83.9754Q18.549-80.9151 15.505-75.3665Q12.4609-69.818 12.4609-62.275L12.4609-22.8852Q12.4609-15.3423 15.614-9.79367Q18.7671-4.24509 24.0976-1.18483Q29.428 1.87542 35.9154 1.87542L36.8241 1.87542L36.8241 11.7615Q36.8241 16.3577 39.2461 18.9931Q41.6682 21.6285 45.8245 21.6285ZM49.416 4.97148L49.416-8.24271Q49.416-10.9667 48.0834-12.0949Q46.7508-13.2232 44.4356-13.2232L38.3631-13.2232Q32.9837-13.2232 30.2716-15.9185Q27.5595-18.6139 27.5595-24.0243L27.5595-61.1359Q27.5595-66.5463 30.2716-69.2336Q32.9837-71.9208 38.3631-71.9208L96.3802-71.9208Q101.752-71.9208 104.467-69.2336Q107.181-66.5463 107.181-61.1359L107.181-24.0243Q107.181-18.6139 104.467-15.9185Q101.752-13.2232 96.3802-13.2232L72.5227-13.2232Q69.764-13.2232 68.1734-12.5027Q66.5828-11.7822 64.4988-9.76033ZM43.457-53.3852L91.0468-53.3852Q92.5876-53.3852 93.6678-54.5377Q94.7479-55.6902 94.7479-57.1437Q94.7479-58.6409 93.6678-59.7428Q92.5876-60.8448 91.0468-60.8448L43.457-60.8448Q42.0034-60.8448 40.9463-59.7428Q39.8892-58.6409 39.8892-57.1437Q39.8892-55.6902 40.9463-54.5377Q42.0034-53.3852 43.457-53.3852ZM43.457-38.937L91.0468-38.937Q92.5876-38.937 93.6678-40.0895Q94.7479-41.242 94.7479-42.6955Q94.7479-44.1927 93.6678-45.304Q92.5876-46.4153 91.0468-46.4153L43.457-46.4153Q42.0034-46.4153 40.9463-45.304Q39.8892-44.1927 39.8892-42.6955Q39.8892-41.242 40.9463-40.0895Q42.0034-38.937 43.457-38.937ZM43.457-24.4864L74.6671-24.4864Q76.2079-24.4864 77.2663-25.6307Q78.3246-26.7751 78.3246-28.2287Q78.3246-29.7421 77.2663-30.8521Q76.2079-31.9622 74.6671-31.9622L43.457-31.9622Q42.0034-31.9622 40.9463-30.8521Q39.8892-29.7421 39.8892-28.2287Q39.8892-26.7751 40.9463-25.6307Q42.0034-24.4864 43.457-24.4864Z"/>
  </g>
  <g id="Bold-M" transform="matrix(1 0 0 1 2272.99 1126)">
   <path d="M44.6722 20.5029Q47.1833 20.5029 49.4256 19.3361Q51.6678 18.1693 54.7022 15.5102L71.2083 1.05439L97.5796 1.05439Q105.05 1.05439 110.404-1.85436Q115.759-4.76311 118.637-10.1176Q121.514-15.4721 121.514-22.8748L121.514-61.5834Q121.514-68.9862 118.637-74.3407Q115.759-79.6951 110.404-82.6039Q105.05-85.5126 97.5796-85.5126L36.3957-85.5126Q28.9254-85.5126 23.5709-82.6066Q18.2164-79.7007 15.3387-74.3462Q12.4609-68.9917 12.4609-61.5834L12.4609-22.8748Q12.4609-15.4666 15.4101-10.1121Q18.3592-4.75758 23.5709-1.8516Q28.7827 1.05439 35.5392 1.05439L36.9268 1.05439L36.9268 11.9067Q36.9268 15.9009 38.9982 18.2019Q41.0697 20.5029 44.6722 20.5029ZM47.7135 6.51786L47.7135-7.01348Q47.7135-9.49478 46.5488-10.5169Q45.3841-11.539 43.188-11.539L37.149-11.539Q31.0586-11.539 28.0565-14.583Q25.0543-17.6271 25.0543-23.6281L25.0543-60.8301Q25.0543-66.8312 28.0565-69.8611Q31.0586-72.891 37.149-72.891L96.8263-72.891Q102.9-72.891 105.908-69.8611Q108.915-66.8312 108.915-60.8301L108.915-23.6281Q108.915-17.6271 105.908-14.583Q102.9-11.539 96.8263-11.539L70.2788-11.539Q67.7806-11.539 66.3022-10.9197Q64.8239-10.3005 62.9786-8.47237ZM42.6317-53.953L90.9595-53.953Q92.3729-53.953 93.3607-54.9949Q94.3484-56.0368 94.3484-57.3932Q94.3484-58.7781 93.3607-59.7801Q92.3729-60.7821 90.9595-60.7821L42.6317-60.7821Q41.2753-60.7821 40.3046-59.7801Q39.3339-58.7781 39.3339-57.3932Q39.3339-56.0368 40.3046-54.9949Q41.2753-53.953 42.6317-53.953ZM42.6317-39.0074L90.9595-39.0074Q92.3729-39.0074 93.3607-40.0493Q94.3484-41.0912 94.3484-42.4476Q94.3484-43.8325 93.3607-44.8514Q92.3729-45.8702 90.9595-45.8702L42.6317-45.8702Q41.2753-45.8702 40.3046-44.8514Q39.3339-43.8325 39.3339-42.4476Q39.3339-41.0912 40.3046-40.0493Q41.2753-39.0074 42.6317-39.0074ZM42.6317-24.0563L74.2331-24.0563Q75.6465-24.0563 76.62-25.0841Q77.5934-26.1119 77.5934-27.4682Q77.5934-28.8814 76.62-29.8975Q75.6465-30.9136 74.2331-30.9136L42.6317-30.9136Q41.2753-30.9136 40.3046-29.8975Q39.3339-28.8814 39.3339-27.4682Q39.3339-26.1119 40.3046-25.0841Q41.2753-24.0563 42.6317-24.0563Z"/>
  </g>
  <g id="Semibold-M" transform="matrix(1 0 0 1 1976.55 1126)">
   <path d="M43.8779 19.727Q46.1366 19.727 48.1027 18.6375Q50.0688 17.5481 52.7964 15.1376L69.4424 0.488382L97.6211 0.488382Q105.017 0.488382 110.238-2.31508Q115.459-5.11854 118.222-10.3392Q120.985-15.5599 120.985-22.8676L120.985-61.1067Q120.985-68.4144 118.222-73.6351Q115.459-78.8558 110.238-81.6592Q105.017-84.4627 97.6211-84.4627L35.8246-84.4627Q28.4286-84.4627 23.2079-81.6631Q17.9872-78.8634 15.2241-73.6427Q12.4609-68.4221 12.4609-61.1067L12.4609-22.8676Q12.4609-15.5523 15.2695-10.3316Q18.078-5.1109 23.2079-2.31126Q28.3378 0.488382 35.2799 0.488382L36.9977 0.488382L36.9977 12.0068Q36.9977 15.586 38.8273 17.6565Q40.657 19.727 43.8779 19.727ZM46.5397 7.58392L46.5397-6.16606Q46.5397-8.48004 45.4908-9.42899Q44.4419-10.3779 42.3278-10.3779L36.312-10.3779Q29.7315-10.3779 26.5294-13.6624Q23.3273-16.9468 23.3273-23.355L23.3273-60.6193Q23.3273-67.0275 26.5294-70.2937Q29.7315-73.5599 36.312-73.5599L97.1338-73.5599Q103.691-73.5599 106.901-70.2937Q110.111-67.0275 110.111-60.6193L110.111-23.355Q110.111-16.9468 106.901-13.6624Q103.691-10.3779 97.1338-10.3779L68.7318-10.3779Q66.4132-10.3779 65.0123-9.82845Q63.6113-9.27897 61.9306-7.58445ZM42.0627-54.3445L90.8993-54.3445Q92.2249-54.3445 93.1489-55.3102Q94.0729-56.2759 94.0729-57.5652Q94.0729-58.8727 93.1489-59.8058Q92.2249-60.7388 90.8993-60.7388L42.0627-60.7388Q40.7734-60.7388 39.8623-59.8058Q38.9512-58.8727 38.9512-57.5652Q38.9512-56.2759 39.8623-55.3102Q40.7734-54.3445 42.0627-54.3445ZM42.0627-39.056L90.8993-39.056Q92.2249-39.056 93.1489-40.0217Q94.0729-40.9873 94.0729-42.2767Q94.0729-43.5842 93.1489-44.5393Q92.2249-45.4945 90.8993-45.4945L42.0627-45.4945Q40.7734-45.4945 39.8623-44.5393Q38.9512-43.5842 38.9512-42.2767Q38.9512-40.9873 39.8623-40.0217Q40.7734-39.056 42.0627-39.056ZM42.0627-23.7598L73.9339-23.7598Q75.2595-23.7598 76.1745-24.7072Q77.0894-25.6547 77.0894-26.944Q77.0894-28.288 76.1745-29.2393Q75.2595-30.1906 73.9339-30.1906L42.0627-30.1906Q40.7734-30.1906 39.8623-29.2393Q38.9512-28.288 38.9512-26.944Q38.9512-25.6547 39.8623-24.7072Q40.7734-23.7598 42.0627-23.7598Z"/>
  </g>
  <g id="Medium-M" transform="matrix(1 0 0 1 1680.04 1126)">
   <path d="M43.2755 19.1386Q45.3429 19.1386 47.0997 18.1079Q48.8565 17.0771 51.3514 14.8551L68.1035 0.0592077L97.6526 0.0592077Q104.992 0.0592077 110.112-2.66442Q115.231-5.38804 117.907-10.5073Q120.583-15.6265 120.583-22.8622L120.583-60.7452Q120.583-67.9809 117.907-73.1001Q115.231-78.2193 110.112-80.943Q104.992-83.6666 97.6526-83.6666L35.3916-83.6666Q28.0518-83.6666 22.9326-80.9476Q17.8134-78.2286 15.1372-73.1094Q12.4609-67.9902 12.4609-60.7452L12.4609-22.8622Q12.4609-15.6172 15.1629-10.498Q17.8648-5.37879 22.9326-2.65979Q28.0004 0.0592077 35.0833 0.0592077L37.0514 0.0592077L37.0514 12.0827Q37.0514 15.3472 38.6978 17.2429Q40.3441 19.1386 43.2755 19.1386ZM45.6497 8.39226L45.6497-5.52351Q45.6497-7.71063 44.6886-8.6041Q43.7275-9.49757 41.6757-9.49757L35.6773-9.49757Q28.7253-9.49757 25.3715-12.9643Q22.0177-16.431 22.0177-23.1479L22.0177-60.4595Q22.0177-67.1764 25.3715-70.6217Q28.7253-74.067 35.6773-74.067L97.3669-74.067Q104.291-74.067 107.654-70.6217Q111.017-67.1764 111.017-60.4595L111.017-23.1479Q111.017-16.431 107.654-12.9643Q104.291-9.49757 97.3669-9.49757L67.5588-9.49757Q65.3764-9.49757 64.0342-9.00099Q62.6919-8.50441 61.1359-6.91119ZM41.6313-54.6414L90.8536-54.6414Q92.1127-54.6414 92.9884-55.5492Q93.8641-56.4571 93.8641-57.6956Q93.8641-58.9444 92.9884-59.8252Q92.1127-60.706 90.8536-60.706L41.6313-60.706Q40.3928-60.706 39.5269-59.8252Q38.661-58.9444 38.661-57.6956Q38.661-56.4571 39.5269-55.5492Q40.3928-54.6414 41.6313-54.6414ZM41.6313-39.0928L90.8536-39.0928Q92.1127-39.0928 92.9884-40.0007Q93.8641-40.9085 93.8641-42.1471Q93.8641-43.3959 92.9884-44.3027Q92.1127-45.2095 90.8536-45.2095L41.6313-45.2095Q40.3928-45.2095 39.5269-44.3027Q38.661-43.3959 38.661-42.1471Q38.661-40.9085 39.5269-40.0007Q40.3928-39.0928 41.6313-39.0928ZM41.6313-23.535L73.707-23.535Q74.9661-23.535 75.8366-24.4215Q76.7072-25.308 76.7072-26.5465Q76.7072-27.8381 75.8366-28.7403Q74.9661-29.6425 73.707-29.6425L41.6313-29.6425Q40.3928-29.6425 39.5269-28.7403Q38.661-27.8381 38.661-26.5465Q38.661-25.308 39.5269-24.4215Q40.3928-23.535 41.6313-23.535Z"/>
  </g>
  <g id="Regular-M" transform="matrix(1 0 0 1 1383.59 1126)">
   <path d="M42.4899 18.3712Q44.3077 18.3712 45.7914 17.417Q47.2751 16.4628 49.4665 14.4866L66.357-0.500585L97.6938-0.500585Q104.96-0.500585 109.947-3.12008Q114.934-5.73957 117.497-10.7264Q120.06-15.7133 120.06-22.8551L120.06-60.2737Q120.06-67.4154 117.497-72.4023Q114.934-77.3892 109.947-80.0087Q104.96-82.6282 97.6938-82.6282L34.8268-82.6282Q27.5604-82.6282 22.5735-80.0144Q17.5867-77.4005 15.0238-72.4137Q12.4609-67.4268 12.4609-60.2737L12.4609-22.8551Q12.4609-15.702 15.0238-10.7151Q17.5867-5.72822 22.5735-3.1144Q27.5604-0.500585 34.8268-0.500585L37.1215-0.500585L37.1215 12.1817Q37.1215 15.0358 38.5287 16.7035Q39.936 18.3712 42.4899 18.3712ZM44.4889 9.44661L44.4889-4.6854Q44.4889-6.70704 43.6423-7.52816Q42.7957-8.34928 40.825-8.34928L34.8495-8.34928Q27.4127-8.34928 23.8612-12.0537Q20.3096-15.7581 20.3096-22.8778L20.3096-60.251Q20.3096-67.3706 23.8612-71.0496Q27.4127-74.7285 34.8495-74.7285L97.6711-74.7285Q105.074-74.7285 108.637-71.0496Q112.2-67.3706 112.2-60.251L112.2-22.8778Q112.2-15.7581 108.637-12.0537Q105.074-8.34928 97.6711-8.34928L66.0288-8.34928Q64.0241-8.34928 62.7584-7.9217Q61.4926-7.49412 60.0994-6.03303ZM41.0686-55.0285L90.7941-55.0285Q91.9664-55.0285 92.779-55.861Q93.5917-56.6935 93.5917-57.8657Q93.5917-59.038 92.779-59.8506Q91.9664-60.6633 90.7941-60.6633L41.0686-60.6633Q39.8964-60.6633 39.0894-59.8506Q38.2824-59.038 38.2824-57.8657Q38.2824-56.6935 39.0894-55.861Q39.8964-55.0285 41.0686-55.0285ZM41.0686-39.1408L90.7941-39.1408Q91.9664-39.1408 92.779-39.9733Q93.5917-40.8058 93.5917-41.978Q93.5917-43.1503 92.779-43.9941Q91.9664-44.8379 90.7941-44.8379L41.0686-44.8379Q39.8964-44.8379 39.0894-43.9941Q38.2824-43.1503 38.2824-41.978Q38.2824-40.8058 39.0894-39.9733Q39.8964-39.1408 41.0686-39.1408ZM41.0686-23.2418L73.4111-23.2418Q74.5833-23.2418 75.396-24.0488Q76.2087-24.8558 76.2087-26.028Q76.2087-27.2512 75.396-28.0894Q74.5833-28.9275 73.4111-28.9275L41.0686-28.9275Q39.8964-28.9275 39.0894-28.0894Q38.2824-27.2512 38.2824-26.028Q38.2824-24.8558 39.0894-24.0488Q39.8964-23.2418 41.0686-23.2418Z"/>
  </g>
  <g id="Light-M" transform="matrix(1 0 0 1 1087.69 1126)">
   <path d="M40.466 17.1385Q41.8974 17.1385 43.0591 16.4051Q44.2208 15.6717 45.8235 14.229L63.0268-0.813368L97.6938-0.813368Q104.316-0.813368 108.953-3.28567Q113.591-5.75797 116.016-10.3953Q118.441-15.0326 118.441-21.5304L118.441-60.8256Q118.441-67.3234 116.016-71.9607Q113.591-76.598 108.953-79.0703Q104.316-81.5426 97.6938-81.5426L33.2077-81.5426Q26.5853-81.5426 21.948-79.0852Q17.3107-76.6278 14.8858-71.9905Q12.4609-67.3532 12.4609-60.8256L12.4609-21.5304Q12.4609-15.0028 14.8858-10.3655Q17.3107-5.72822 21.948-3.2708Q26.5853-0.813368 33.2077-0.813368L36.2935-0.813368L36.2935 12.3289Q36.2935 14.5574 37.4064 15.8479Q38.5193 17.1385 40.466 17.1385ZM41.9682 10.3114L41.9682-4.00464Q41.9682-5.5663 41.3148-6.20343Q40.6614-6.84056 39.1323-6.84056L33.2672-6.84056Q25.996-6.84056 22.2421-10.6922Q18.4881-14.5438 18.4881-21.5899L18.4881-60.7661Q18.4881-67.8122 22.2421-71.6475Q25.996-75.4829 33.2672-75.4829L97.6343-75.4829Q104.816-75.4829 108.6-71.6475Q112.384-67.8122 112.384-60.7661L112.384-21.5899Q112.384-14.5438 108.6-10.6922Q104.816-6.84056 97.6343-6.84056L62.9746-6.84056Q61.3562-6.84056 60.3113-6.47738Q59.2664-6.1142 58.0388-4.9107ZM39.4679-55.3597L89.9109-55.3597Q90.8624-55.3597 91.5279-56.0266Q92.1933-56.6935 92.1933-57.6449Q92.1933-58.5964 91.5279-59.2619Q90.8624-59.9273 89.9109-59.9273L39.4679-59.9273Q38.5164-59.9273 37.8659-59.2619Q37.2153-58.5964 37.2153-57.6449Q37.2153-56.6935 37.8659-56.0266Q38.5164-55.3597 39.4679-55.3597ZM39.4679-39.472L89.9109-39.472Q90.8624-39.472 91.5279-40.1389Q92.1933-40.8058 92.1933-41.7572Q92.1933-42.7087 91.5279-43.4053Q90.8624-44.1019 89.9109-44.1019L39.4679-44.1019Q38.5164-44.1019 37.8659-43.4053Q37.2153-42.7087 37.2153-41.7572Q37.2153-40.8058 37.8659-40.1389Q38.5164-39.472 39.4679-39.472ZM39.4679-23.5546L72.5279-23.5546Q73.4794-23.5546 74.1449-24.2052Q74.8103-24.8558 74.8103-25.8072Q74.8103-26.7913 74.1449-27.473Q73.4794-28.1547 72.5279-28.1547L39.4679-28.1547Q38.5164-28.1547 37.8659-27.473Q37.2153-26.7913 37.2153-25.8072Q37.2153-24.8558 37.8659-24.2052Q38.5164-23.5546 39.4679-23.5546Z"/>
  </g>
  <g id="Thin-M" transform="matrix(1 0 0 1 792.052 1126)">
   <path d="M37.7893 15.5081Q38.7097 15.5081 39.4455 15.0667Q40.1814 14.6253 41.0054 13.8883L58.6223-1.22705L97.6938-1.22705Q103.464-1.22705 107.639-3.50467Q111.814-5.7823 114.057-9.95725Q116.299-14.1322 116.299-19.7783L116.299-61.5557Q116.299-67.2018 114.057-71.3767Q111.814-75.5517 107.639-77.8293Q103.464-80.1069 97.6938-80.1069L31.0663-80.1069Q25.2956-80.1069 21.1206-77.8563Q16.9457-75.6058 14.7033-71.4308Q12.4609-67.2559 12.4609-61.5557L12.4609-19.7783Q12.4609-14.0781 14.7033-9.90317Q16.9457-5.72822 21.1206-3.47764Q25.2956-1.22705 31.0663-1.22705L35.1985-1.22705L35.1985 12.5235Q35.1985 13.9247 35.922 14.7164Q36.6455 15.5081 37.7893 15.5081ZM38.6344 11.4551L38.6344-3.10427Q38.6344-4.05758 38.2365-4.45137Q37.8386-4.84516 36.8935-4.84516L31.1744-4.84516Q24.1223-4.84516 20.1007-8.89146Q16.079-12.9378 16.079-19.8865L16.079-61.4475Q16.079-68.3962 20.1007-72.4384Q24.1223-76.4806 31.1744-76.4806L97.5856-76.4806Q104.476-76.4806 108.551-72.4384Q112.627-68.3962 112.627-61.4475L112.627-19.8865Q112.627-12.9378 108.551-8.89146Q104.476-4.84516 97.5856-4.84516L58.9351-4.84516Q57.8278-4.84516 57.0748-4.56715Q56.3219-4.28913 55.3133-3.42631ZM37.3508-55.7977L88.7429-55.7977Q89.4024-55.7977 89.8732-56.2456Q90.3439-56.6935 90.3439-57.3529Q90.3439-58.0124 89.8732-58.4832Q89.4024-58.954 88.7429-58.954L37.3508-58.954Q36.6914-58.954 36.2476-58.4832Q35.8039-58.0124 35.8039-57.3529Q35.8039-56.6935 36.2476-56.2456Q36.6914-55.7977 37.3508-55.7977ZM37.3508-39.91L88.7429-39.91Q89.4024-39.91 89.8732-40.3579Q90.3439-40.8058 90.3439-41.4652Q90.3439-42.1247 89.8732-42.6266Q89.4024-43.1286 88.7429-43.1286L37.3508-43.1286Q36.6914-43.1286 36.2476-42.6266Q35.8039-42.1247 35.8039-41.4652Q35.8039-40.8058 36.2476-40.3579Q36.6914-39.91 37.3508-39.91ZM37.3508-23.9683L71.3599-23.9683Q72.0194-23.9683 72.4901-24.412Q72.9609-24.8558 72.9609-25.5152Q72.9609-26.1829 72.4901-26.6578Q72.0194-27.1327 71.3599-27.1327L37.3508-27.1327Q36.6914-27.1327 36.2476-26.6578Q35.8039-26.1829 35.8039-25.5152Q35.8039-24.8558 36.2476-24.412Q36.6914-23.9683 37.3508-23.9683Z"/>
  </g>
  <g id="Ultralight-M" transform="matrix(1 0 0 1 495.891 1126)">
   <path d="M36.4182 14.673Q37.0769 14.673 37.5946 14.3812Q38.1124 14.0894 38.5375 13.7138L56.3664-1.43893L97.6938-1.43893Q103.028-1.43893 106.966-3.61685Q110.905-5.79476 113.053-9.7329Q115.202-13.671 115.202-18.8809L115.202-61.9296Q115.202-67.1395 113.053-71.0776Q110.905-75.0157 106.966-77.1936Q103.028-79.3716 97.6938-79.3716L29.9695-79.3716Q24.635-79.3716 20.6968-77.2269Q16.7587-75.0823 14.6098-71.1441Q12.4609-67.206 12.4609-61.9296L12.4609-18.8809Q12.4609-13.6045 14.6098-9.66636Q16.7587-5.72822 20.6968-3.58358Q24.635-1.43893 29.9695-1.43893L34.6376-1.43893L34.6376 12.6233Q34.6376 13.6007 35.1617 14.1368Q35.6858 14.673 36.4182 14.673ZM36.9269 12.0409L36.9269-2.64311Q36.9269-3.28483 36.6598-3.55397Q36.3928-3.82312 35.7469-3.82312L30.1026-3.82312Q23.1626-3.82312 19.0038-7.96913Q14.8451-12.1151 14.8451-19.014L14.8451-61.7965Q14.8451-68.6954 19.0038-72.8435Q23.1626-76.9916 30.1026-76.9916L97.5607-76.9916Q104.301-76.9916 108.526-72.8435Q112.752-68.6954 112.752-61.7965L112.752-19.014Q112.752-12.1151 108.526-7.96913Q104.301-3.82312 97.5607-3.82312L56.8661-3.82312Q56.0205-3.82312 55.4172-3.58873Q54.8138-3.35435 53.9174-2.66602ZM36.2665-56.0221L88.1446-56.0221Q88.6545-56.0221 89.0256-56.3578Q89.3967-56.6935 89.3967-57.2033Q89.3967-57.7132 89.0256-58.0843Q88.6545-58.4554 88.1446-58.4554L36.2665-58.4554Q35.7566-58.4554 35.4188-58.0843Q35.081-57.7132 35.081-57.2033Q35.081-56.6935 35.4188-56.3578Q35.7566-56.0221 36.2665-56.0221ZM36.2665-40.1344L88.1446-40.1344Q88.6545-40.1344 89.0256-40.4701Q89.3967-40.8058 89.3967-41.3157Q89.3967-41.8255 89.0256-42.2278Q88.6545-42.63 88.1446-42.63L36.2665-42.63Q35.7566-42.63 35.4188-42.2278Q35.081-41.8255 35.081-41.3157Q35.081-40.8058 35.4188-40.4701Q35.7566-40.1344 36.2665-40.1344ZM36.2665-24.1801L70.7616-24.1801Q71.2715-24.1801 71.6426-24.518Q72.0137-24.8558 72.0137-25.3657Q72.0137-25.8713 71.6426-26.2403Q71.2715-26.6092 70.7616-26.6092L36.2665-26.6092Q35.7566-26.6092 35.4188-26.2403Q35.081-25.8713 35.081-25.3657Q35.081-24.8558 35.4188-24.518Q35.7566-24.1801 36.2665-24.1801Z"/>
  </g>
  <g id="Black-S" transform="matrix(1 0 0 1 2880.28 696)">
   <path d="M36.9141 10.3516Q39.502 10.3516 41.9434 9.25293Q44.3848 8.1543 47.5098 5.46875L60.1074-5.37109L76.3672-5.37109Q82.373-5.37109 86.8896-7.91016Q91.4062-10.4492 93.9453-14.9658Q96.4844-19.4824 96.4844-25.4883L96.4844-57.1289Q96.4844-63.1348 93.9453-67.6514Q91.4062-72.168 86.8896-74.707Q82.373-77.2461 76.3672-77.2461L29.8828-77.2461Q23.877-77.2461 19.3604-74.707Q14.8438-72.168 12.3047-67.6514Q9.76562-63.1348 9.76562-57.1289L9.76562-25.4883Q9.76562-19.4824 12.4268-14.9658Q15.0879-10.4492 19.3604-7.91016Q23.6328-5.37109 28.418-5.37109L28.7109-5.37109L28.7109 1.46484Q28.7109 5.61523 30.9326 7.9834Q33.1543 10.3516 36.9141 10.3516ZM40.2344-5.17578L40.2344-15.2344Q40.2344-17.5781 39.0381-18.5547Q37.8418-19.5312 35.9375-19.5312L31.1523-19.5312Q27.6367-19.5312 25.7812-21.3135Q23.9258-23.0957 23.9258-26.7578L23.9258-55.8594Q23.9258-59.5215 25.7812-61.3037Q27.6367-63.0859 31.1523-63.0859L75.0977-63.0859Q78.6133-63.0859 80.4688-61.3037Q82.3242-59.5215 82.3242-55.8594L82.3242-26.7578Q82.3242-23.0957 80.4688-21.3135Q78.6133-19.5312 75.0977-19.5312L58.8379-19.5312Q56.4453-19.5312 55.1025-18.8721Q53.7598-18.2129 51.9043-16.4551ZM34.7656-48.9258L71.3867-48.9258Q72.7051-48.9258 73.6328-49.9268Q74.5605-50.9277 74.5605-52.1484Q74.5605-53.418 73.6328-54.3701Q72.7051-55.3223 71.3867-55.3223L34.7656-55.3223Q33.5449-55.3223 32.6416-54.3701Q31.7383-53.418 31.7383-52.1484Q31.7383-50.9277 32.6416-49.9268Q33.5449-48.9258 34.7656-48.9258ZM34.7656-38.0859L71.3867-38.0859Q72.7051-38.0859 73.6328-39.0869Q74.5605-40.0879 74.5605-41.3086Q74.5605-42.5781 73.6328-43.5303Q72.7051-44.4824 71.3867-44.4824L34.7656-44.4824Q33.5449-44.4824 32.6416-43.5303Q31.7383-42.5781 31.7383-41.3086Q31.7383-40.0879 32.6416-39.0869Q33.5449-38.0859 34.7656-38.0859ZM34.7656-27.2461L58.8867-27.2461Q60.2051-27.2461 61.1084-28.2471Q62.0117-29.248 62.0117-30.4688Q62.0117-31.7383 61.1084-32.6904Q60.2051-33.6426 58.8867-33.6426L34.7656-33.6426Q33.5449-33.6426 32.6416-32.6904Q31.7383-31.7383 31.7383-30.4688Q31.7383-29.248 32.6416-28.2471Q33.5449-27.2461 34.7656-27.2461Z"/>
  </g>
  <g id="Heavy-S" transform="matrix(1 0 0 1 2583.75 696)">
   <path d="M36.2917 9.64857Q38.6491 9.64857 40.8255 8.60756Q43.0018 7.56655 45.8618 5.08844L58.5747-5.95884L76.4133-5.95884Q82.4191-5.95884 86.832-8.39995Q91.2449-10.8411 93.6745-15.2539Q96.1041-19.6668 96.1041-25.6496L96.1041-56.5296Q96.1041-62.5124 93.6745-66.9253Q91.2449-71.3382 86.832-73.7793Q82.4191-76.2204 76.4133-76.2204L29.4564-76.2204Q23.4505-76.2204 19.0377-73.7793Q14.6248-71.3382 12.1952-66.9253Q9.76562-62.5124 9.76562-56.5296L9.76562-25.6496Q9.76562-19.6668 12.2885-15.2539Q14.8113-10.8411 19.0377-8.39995Q23.264-5.95884 28.3373-5.95884L28.8953-5.95884L28.8953 1.55704Q28.8953 5.32712 30.8865 7.48785Q32.8777 9.64857 36.2917 9.64857ZM39.2548-4.10401L39.2548-14.3816Q39.2548-16.5985 38.1622-17.5175Q37.0697-18.4364 35.1999-18.4364L30.4263-18.4364Q26.346-18.4364 24.2946-20.4664Q22.2432-22.4964 22.2432-26.6195L22.2432-55.5597Q22.2432-59.6828 24.2946-61.7071Q26.346-63.7313 30.4263-63.7313L75.4434-63.7313Q79.5237-63.7313 81.5751-61.7071Q83.6265-59.6828 83.6265-55.5597L83.6265-26.6195Q83.6265-22.4964 81.5751-20.4664Q79.5237-18.4364 75.4434-18.4364L57.5126-18.4364Q55.2698-18.4364 53.9847-17.8464Q52.6995-17.2564 51.0054-15.6138ZM34.3392-49.3176L71.4328-49.3176Q72.682-49.3176 73.5579-50.2552Q74.4338-51.1928 74.4338-52.3674Q74.4338-53.5793 73.5579-54.4738Q72.682-55.3684 71.4328-55.3684L34.3392-55.3684Q33.1646-55.3684 32.3074-54.4738Q31.4502-53.5793 31.4502-52.3674Q31.4502-51.1928 32.3074-50.2552Q33.1646-49.3176 34.3392-49.3176ZM34.3392-38.0975L71.4328-38.0975Q72.682-38.0975 73.5579-39.0351Q74.4338-39.9726 74.4338-41.1473Q74.4338-42.3592 73.5579-43.2594Q72.682-44.1597 71.4328-44.1597L34.3392-44.1597Q33.1646-44.1597 32.3074-43.2594Q31.4502-42.3592 31.4502-41.1473Q31.4502-39.9726 32.3074-39.0351Q33.1646-38.0975 34.3392-38.0975ZM34.3392-26.8773L58.6678-26.8773Q59.917-26.8773 60.7742-27.8091Q61.6314-28.741 61.6314-29.9156Q61.6314-31.139 60.7742-32.0393Q59.917-32.9396 58.6678-32.9396L34.3392-32.9396Q33.1646-32.9396 32.3074-32.0393Q31.4502-31.139 31.4502-29.9156Q31.4502-28.741 32.3074-27.8091Q33.1646-26.8773 34.3392-26.8773Z"/>
  </g>
  <g id="Bold-S" transform="matrix(1 0 0 1 2287.26 696)">
   <path d="M35.5957 8.8623Q37.6953 8.8623 39.5752 7.88574Q41.4551 6.90918 44.0186 4.66309L56.8604-6.61621L76.4648-6.61621Q82.4707-6.61621 86.7676-8.94775Q91.0645-11.2793 93.3716-15.5762Q95.6787-19.873 95.6787-25.8301L95.6787-55.8594Q95.6787-61.8164 93.3716-66.1133Q91.0645-70.4102 86.7676-72.7417Q82.4707-75.0732 76.4648-75.0732L28.9795-75.0732Q22.9736-75.0732 18.6768-72.7417Q14.3799-70.4102 12.0728-66.1133Q9.76562-61.8164 9.76562-55.8594L9.76562-25.8301Q9.76562-19.873 12.1338-15.5762Q14.502-11.2793 18.6768-8.94775Q22.8516-6.61621 28.2471-6.61621L29.1016-6.61621L29.1016 1.66016Q29.1016 5.00488 30.835 6.93359Q32.5684 8.8623 35.5957 8.8623ZM38.1592-2.90527L38.1592-13.4277Q38.1592-15.5029 37.1826-16.3574Q36.2061-17.2119 34.375-17.2119L29.6143-17.2119Q24.9023-17.2119 22.6318-19.519Q20.3613-21.8262 20.3613-26.4648L20.3613-55.2246Q20.3613-59.8633 22.6318-62.1582Q24.9023-64.4531 29.6143-64.4531L75.8301-64.4531Q80.542-64.4531 82.8125-62.1582Q85.083-59.8633 85.083-55.2246L85.083-26.4648Q85.083-21.8262 82.8125-19.519Q80.542-17.2119 75.8301-17.2119L56.0303-17.2119Q53.9551-17.2119 52.7344-16.6992Q51.5137-16.1865 50-14.6729ZM33.8623-49.7559L71.4844-49.7559Q72.6562-49.7559 73.4741-50.6226Q74.292-51.4893 74.292-52.6123Q74.292-53.7598 73.4741-54.5898Q72.6562-55.4199 71.4844-55.4199L33.8623-55.4199Q32.7393-55.4199 31.9336-54.5898Q31.1279-53.7598 31.1279-52.6123Q31.1279-51.4893 31.9336-50.6226Q32.7393-49.7559 33.8623-49.7559ZM33.8623-38.1104L71.4844-38.1104Q72.6562-38.1104 73.4741-38.9771Q74.292-39.8438 74.292-40.9668Q74.292-42.1143 73.4741-42.9565Q72.6562-43.7988 71.4844-43.7988L33.8623-43.7988Q32.7393-43.7988 31.9336-42.9565Q31.1279-42.1143 31.1279-40.9668Q31.1279-39.8438 31.9336-38.9771Q32.7393-38.1104 33.8623-38.1104ZM33.8623-26.4648L58.4229-26.4648Q59.5947-26.4648 60.4004-27.3193Q61.2061-28.1738 61.2061-29.2969Q61.2061-30.4688 60.4004-31.311Q59.5947-32.1533 58.4229-32.1533L33.8623-32.1533Q32.7393-32.1533 31.9336-31.311Q31.1279-30.4688 31.1279-29.2969Q31.1279-28.1738 31.9336-27.3193Q32.7393-26.4648 33.8623-26.4648Z"/>
  </g>
  <g id="Semibold-S" transform="matrix(1 0 0 1 1990.69 696)">
   <path d="M35.1158 8.32021Q37.0377 8.32021 38.7132 7.38809Q40.3887 6.45596 42.7478 4.36982L55.6784-7.06943L76.5004-7.06943Q82.5062-7.06943 86.7231-9.32544Q90.94-11.5814 93.1627-15.7983Q95.3854-20.0152 95.3854-25.9545L95.3854-55.3973Q95.3854-61.3365 93.1627-65.5534Q90.94-69.7703 86.7231-72.0263Q82.5062-74.2823 76.5004-74.2823L28.6507-74.2823Q22.6448-74.2823 18.4279-72.0263Q14.211-69.7703 11.9883-65.5534Q9.76562-61.3365 9.76562-55.3973L9.76562-25.9545Q9.76562-20.0152 12.0271-15.7983Q14.2887-11.5814 18.4279-9.32544Q22.5672-7.06943 28.1849-7.06943L29.2437-7.06943L29.2437 1.73125Q29.2437 4.78271 30.7994 6.55146Q32.3551 8.32021 35.1158 8.32021ZM37.4038-2.07881L37.4038-12.7701Q37.4038-14.7476 36.5072-15.5576Q35.6106-16.3677 33.8062-16.3677L29.0544-16.3677Q23.907-16.3677 21.4854-18.8659Q19.0639-21.3641 19.0639-26.3582L19.0639-54.9936Q19.0639-59.9877 21.4854-62.4692Q23.907-64.9508 29.0544-64.9508L76.0967-64.9508Q81.244-64.9508 83.6656-62.4692Q86.0872-59.9877 86.0872-54.9936L86.0872-26.3582Q86.0872-21.3641 83.6656-18.8659Q81.244-16.3677 76.0967-16.3677L55.0083-16.3677Q53.0486-16.3677 51.8724-15.9083Q50.6961-15.4489 49.3068-14.0241ZM33.5335-50.058L71.5199-50.058Q72.6385-50.058 73.4164-50.8758Q74.1942-51.6937 74.1942-52.7812Q74.1942-53.8842 73.4164-54.6698Q72.6385-55.4555 71.5199-55.4555L33.5335-55.4555Q32.446-55.4555 31.6759-54.6698Q30.9058-53.8842 30.9058-52.7812Q30.9058-51.6937 31.6759-50.8758Q32.446-50.058 33.5335-50.058ZM33.5335-38.1192L71.5199-38.1192Q72.6385-38.1192 73.4164-38.9371Q74.1942-39.7549 74.1942-40.8424Q74.1942-41.9454 73.4164-42.7477Q72.6385-43.55 71.5199-43.55L33.5335-43.55Q32.446-43.55 31.6759-42.7477Q30.9058-41.9454 30.9058-40.8424Q30.9058-39.7549 31.6759-38.9371Q32.446-38.1192 33.5335-38.1192ZM33.5335-26.1805L58.254-26.1805Q59.3726-26.1805 60.1427-26.9816Q60.9128-27.7828 60.9128-28.8703Q60.9128-30.0066 60.1427-30.8089Q59.3726-31.6112 58.254-31.6112L33.5335-31.6112Q32.446-31.6112 31.6759-30.8089Q30.9058-30.0066 30.9058-28.8703Q30.9058-27.7828 31.6759-26.9816Q32.446-26.1805 33.5335-26.1805Z"/>
  </g>
  <g id="Medium-S" transform="matrix(1 0 0 1 1694.09 696)">
   <path d="M34.752 7.90918Q36.5391 7.90918 38.0596 7.01074Q39.5801 6.1123 41.7842 4.14746L54.7822-7.41309L76.5273-7.41309Q82.5332-7.41309 86.6895-9.61182Q90.8457-11.8105 93.0044-15.9668Q95.1631-20.123 95.1631-26.0488L95.1631-55.0469Q95.1631-60.9727 93.0044-65.1289Q90.8457-69.2852 86.6895-71.4839Q82.5332-73.6826 76.5273-73.6826L28.4014-73.6826Q22.3955-73.6826 18.2393-71.4839Q14.083-69.2852 11.9243-65.1289Q9.76562-60.9727 9.76562-55.0469L9.76562-26.0488Q9.76562-20.123 11.9463-15.9668Q14.127-11.8105 18.2393-9.61182Q22.3516-7.41309 28.1377-7.41309L29.3516-7.41309L29.3516 1.78516Q29.3516 4.61426 30.7725 6.26172Q32.1934 7.90918 34.752 7.90918ZM36.8311-1.45215L36.8311-12.2715Q36.8311-14.1748 35.9951-14.9512Q35.1592-15.7275 33.375-15.7275L28.6299-15.7275Q23.1523-15.7275 20.6162-18.3706Q18.0801-21.0137 18.0801-26.2773L18.0801-54.8184Q18.0801-60.082 20.6162-62.7051Q23.1523-65.3281 28.6299-65.3281L76.2988-65.3281Q81.7764-65.3281 84.3125-62.7051Q86.8486-60.082 86.8486-54.8184L86.8486-26.2773Q86.8486-21.0137 84.3125-18.3706Q81.7764-15.7275 76.2988-15.7275L54.2334-15.7275Q52.3613-15.7275 51.2188-15.3086Q50.0762-14.8896 48.7812-13.5322ZM33.2842-50.2871L71.5469-50.2871Q72.625-50.2871 73.3726-51.0679Q74.1201-51.8486 74.1201-52.9092Q74.1201-53.9785 73.3726-54.7305Q72.625-55.4824 71.5469-55.4824L33.2842-55.4824Q32.2236-55.4824 31.4805-54.7305Q30.7373-53.9785 30.7373-52.9092Q30.7373-51.8486 31.4805-51.0679Q32.2236-50.2871 33.2842-50.2871ZM33.2842-38.126L71.5469-38.126Q72.625-38.126 73.3726-38.9067Q74.1201-39.6875 74.1201-40.748Q74.1201-41.8174 73.3726-42.5894Q72.625-43.3613 71.5469-43.3613L33.2842-43.3613Q32.2236-43.3613 31.4805-42.5894Q30.7373-41.8174 30.7373-40.748Q30.7373-39.6875 31.4805-38.9067Q32.2236-38.126 33.2842-38.126ZM33.2842-25.9648L58.126-25.9648Q59.2041-25.9648 59.9473-26.7256Q60.6904-27.4863 60.6904-28.5469Q60.6904-29.6562 59.9473-30.4282Q59.2041-31.2002 58.126-31.2002L33.2842-31.2002Q32.2236-31.2002 31.4805-30.4282Q30.7373-29.6562 30.7373-28.5469Q30.7373-27.4863 31.4805-26.7256Q32.2236-25.9648 33.2842-25.9648Z"/>
  </g>
  <g id="Regular-S" transform="matrix(1 0 0 1 1397.53 696)">
   <path d="M34.2773 7.37305Q35.8887 7.37305 37.207 6.51855Q38.5254 5.66406 40.5273 3.85742L53.6133-7.86133L76.5625-7.86133Q82.5684-7.86133 86.6455-9.98535Q90.7227-12.1094 92.7979-16.1865Q94.873-20.2637 94.873-26.1719L94.873-54.5898Q94.873-60.498 92.7979-64.5752Q90.7227-68.6523 86.6455-70.7764Q82.5684-72.9004 76.5625-72.9004L28.0762-72.9004Q22.0703-72.9004 17.9932-70.7764Q13.916-68.6523 11.8408-64.5752Q9.76562-60.498 9.76562-54.5898L9.76562-26.1719Q9.76562-20.2637 11.8408-16.1865Q13.916-12.1094 17.9932-9.98535Q22.0703-7.86133 28.0762-7.86133L29.4922-7.86133L29.4922 1.85547Q29.4922 4.39453 30.7373 5.88379Q31.9824 7.37305 34.2773 7.37305ZM36.084-0.634766L36.084-11.6211Q36.084-13.4277 35.3271-14.1602Q34.5703-14.8926 32.8125-14.8926L28.0762-14.8926Q22.168-14.8926 19.4824-17.7246Q16.7969-20.5566 16.7969-26.1719L16.7969-54.5898Q16.7969-60.2051 19.4824-63.0127Q22.168-65.8203 28.0762-65.8203L76.5625-65.8203Q82.4707-65.8203 85.1562-63.0127Q87.8418-60.2051 87.8418-54.5898L87.8418-26.1719Q87.8418-20.5566 85.1562-17.7246Q82.4707-14.8926 76.5625-14.8926L53.2227-14.8926Q51.4648-14.8926 50.3662-14.5264Q49.2676-14.1602 48.0957-12.8906ZM32.959-50.5859L71.582-50.5859Q72.6074-50.5859 73.3154-51.3184Q74.0234-52.0508 74.0234-53.0762Q74.0234-54.1016 73.3154-54.8096Q72.6074-55.5176 71.582-55.5176L32.959-55.5176Q31.9336-55.5176 31.2256-54.8096Q30.5176-54.1016 30.5176-53.0762Q30.5176-52.0508 31.2256-51.3184Q31.9336-50.5859 32.959-50.5859ZM32.959-38.1348L71.582-38.1348Q72.6074-38.1348 73.3154-38.8672Q74.0234-39.5996 74.0234-40.625Q74.0234-41.6504 73.3154-42.3828Q72.6074-43.1152 71.582-43.1152L32.959-43.1152Q31.9336-43.1152 31.2256-42.3828Q30.5176-41.6504 30.5176-40.625Q30.5176-39.5996 31.2256-38.8672Q31.9336-38.1348 32.959-38.1348ZM32.959-25.6836L57.959-25.6836Q58.9844-25.6836 59.6924-26.3916Q60.4004-27.0996 60.4004-28.125Q60.4004-29.1992 59.6924-29.9316Q58.9844-30.6641 57.959-30.6641L32.959-30.6641Q31.9336-30.6641 31.2256-29.9316Q30.5176-29.1992 30.5176-28.125Q30.5176-27.0996 31.2256-26.3916Q31.9336-25.6836 32.959-25.6836Z"/>
  </g>
  <g id="Light-S" transform="matrix(1 0 0 1 1101.53 696)">
   <path d="M32.487 6.28255Q33.7565 6.28255 34.79 5.62337Q35.8236 4.96419 37.3047 3.62956L50.6673-8.13802L76.5625-8.13802Q81.9987-8.13802 85.7666-10.1318Q89.5345-12.1257 91.4876-15.8936Q93.4408-19.6615 93.4408-25L93.4408-55.0781Q93.4408-60.4167 91.4876-64.1846Q89.5345-67.9525 85.7666-69.9463Q81.9987-71.9401 76.5625-71.9401L26.6439-71.9401Q21.2077-71.9401 17.4398-69.9544Q13.6719-67.9688 11.7188-64.2008Q9.76562-60.4329 9.76562-55.0781L9.76562-25Q9.76562-19.6452 11.7188-15.8773Q13.6719-12.1094 17.4398-10.1237Q21.2077-8.13802 26.6439-8.13802L28.7598-8.13802L28.7598 1.98568Q28.7598 3.97135 29.7445 5.12695Q30.7292 6.28255 32.487 6.28255ZM33.8542 0.130208L33.8542-11.0189Q33.8542-12.4186 33.2682-12.9883Q32.6823-13.5579 31.3151-13.5579L26.6764-13.5579Q20.9147-13.5579 18.0501-16.5202Q15.1855-19.4824 15.1855-25.0326L15.1855-55.0456Q15.1855-60.5957 18.0501-63.5417Q20.9147-66.4876 26.6764-66.4876L76.5299-66.4876Q82.2428-66.4876 85.1237-63.5417Q88.0046-60.5957 88.0046-55.0456L88.0046-25.0326Q88.0046-19.4824 85.1237-16.5202Q82.2428-13.5579 76.5299-13.5579L50.5208-13.5579Q49.1048-13.5579 48.2015-13.2487Q47.2982-12.9395 46.2728-11.8978ZM31.543-50.8789L70.8008-50.8789Q71.6309-50.8789 72.2087-51.4648Q72.7865-52.0508 72.7865-52.8809Q72.7865-53.7109 72.2087-54.2887Q71.6309-54.8665 70.8008-54.8665L31.543-54.8665Q30.7129-54.8665 30.1432-54.2887Q29.5736-53.7109 29.5736-52.8809Q29.5736-52.0508 30.1432-51.4648Q30.7129-50.8789 31.543-50.8789ZM31.543-38.4277L70.8008-38.4277Q71.6309-38.4277 72.2087-39.0137Q72.7865-39.5996 72.7865-40.4297Q72.7865-41.2598 72.2087-41.862Q71.6309-42.4642 70.8008-42.4642L31.543-42.4642Q30.7129-42.4642 30.1432-41.862Q29.5736-41.2598 29.5736-40.4297Q29.5736-39.5996 30.1432-39.0137Q30.7129-38.4277 31.543-38.4277ZM31.543-25.9603L57.1777-25.9603Q58.0078-25.9603 58.5856-26.5299Q59.1634-27.0996 59.1634-27.9297Q59.1634-28.7923 58.5856-29.3864Q58.0078-29.9805 57.1777-29.9805L31.543-29.9805Q30.7129-29.9805 30.1432-29.3864Q29.5736-28.7923 29.5736-27.9297Q29.5736-27.0996 30.1432-26.5299Q30.7129-25.9603 31.543-25.9603Z"/>
  </g>
  <g id="Thin-S" transform="matrix(1 0 0 1 805.773 696)">
   <path d="M30.1191 4.84028Q30.9366 4.84028 31.5934 4.43942Q32.2502 4.03856 33.0425 3.32819L46.771-8.50397L76.5625-8.50397Q81.2453-8.50397 84.6042-10.3256Q87.9631-12.1472 89.7548-15.5061Q91.5464-18.865 91.5464-23.4501L91.5464-55.7239Q91.5464-60.309 89.7548-63.6679Q87.9631-67.0268 84.6042-68.8484Q81.2453-70.67 76.5625-70.67L24.7496-70.67Q20.0668-70.67 16.7079-68.8673Q13.349-67.0646 11.5573-63.7057Q9.76562-60.3468 9.76562-55.7239L9.76562-23.4501Q9.76562-18.8272 11.5573-15.4683Q13.349-12.1094 16.7079-10.3067Q20.0668-8.50397 24.7496-8.50397L27.7911-8.50397L27.7911 2.15789Q27.7911 3.41167 28.4314 4.12598Q29.0716 4.84028 30.1191 4.84028ZM30.9051 1.14195L30.9051-10.2224Q30.9051-11.084 30.5451-11.4384Q30.1852-11.7928 29.3347-11.7928L24.8252-11.7928Q19.2572-11.7928 16.1558-14.9272Q13.0544-18.0617 13.0544-23.5257L13.0544-55.6483Q13.0544-61.1123 16.1558-64.2413Q19.2572-67.3702 24.8252-67.3702L76.4869-67.3702Q81.9415-67.3702 85.0806-64.2413Q88.2198-61.1123 88.2198-55.6483L88.2198-23.5257Q88.2198-18.0617 85.0806-14.9272Q81.9415-11.7928 76.4869-11.7928L46.9475-11.7928Q45.9835-11.7928 45.3385-11.5589Q44.6935-11.325 43.8618-10.5847ZM29.6702-51.2664L69.7675-51.2664Q70.3393-51.2664 70.7449-51.6586Q71.1505-52.0508 71.1505-52.6225Q71.1505-53.1943 70.7449-53.5999Q70.3393-54.0055 69.7675-54.0055L29.6702-54.0055Q29.0984-54.0055 28.7117-53.5999Q28.325-53.1943 28.325-52.6225Q28.325-52.0508 28.7117-51.6586Q29.0984-51.2664 29.6702-51.2664ZM29.6702-38.8152L69.7675-38.8152Q70.3393-38.8152 70.7449-39.2074Q71.1505-39.5996 71.1505-40.1714Q71.1505-40.7431 70.7449-41.1731Q70.3393-41.6031 69.7675-41.6031L29.6702-41.6031Q29.0984-41.6031 28.7117-41.1731Q28.325-40.7431 28.325-40.1714Q28.325-39.5996 28.7117-39.2074Q29.0984-38.8152 29.6702-38.8152ZM29.6702-26.3262L56.1445-26.3262Q56.7162-26.3262 57.1218-26.7129Q57.5274-27.0996 57.5274-27.6714Q57.5274-28.2542 57.1218-28.6653Q56.7162-29.0764 56.1445-29.0764L29.6702-29.0764Q29.0984-29.0764 28.7117-28.6653Q28.325-28.2542 28.325-27.6714Q28.325-27.0996 28.7117-26.7129Q29.0984-26.3262 29.6702-26.3262Z"/>
  </g>
  <g id="Ultralight-S" transform="matrix(1 0 0 1 509.549 696)">
   <path d="M28.9062 4.10156Q29.4922 4.10156 29.9561 3.83301Q30.4199 3.56445 30.8594 3.17383L44.7754-8.69141L76.5625-8.69141Q80.8594-8.69141 84.0088-10.4248Q87.1582-12.1582 88.8672-15.3076Q90.5762-18.457 90.5762-22.6562L90.5762-56.0547Q90.5762-60.2539 88.8672-63.4033Q87.1582-66.5527 84.0088-68.2861Q80.8594-70.0195 76.5625-70.0195L23.7793-70.0195Q19.4824-70.0195 16.333-68.3105Q13.1836-66.6016 11.4746-63.4521Q9.76562-60.3027 9.76562-56.0547L9.76562-22.6562Q9.76562-18.4082 11.4746-15.2588Q13.1836-12.1094 16.333-10.4004Q19.4824-8.69141 23.7793-8.69141L27.2949-8.69141L27.2949 2.24609Q27.2949 3.125 27.7588 3.61328Q28.2227 4.10156 28.9062 4.10156ZM29.3945 1.66016L29.3945-9.81445Q29.3945-10.4004 29.1504-10.6445Q28.9062-10.8887 28.3203-10.8887L23.877-10.8887Q18.4082-10.8887 15.1855-14.1113Q11.9629-17.334 11.9629-22.7539L11.9629-55.957Q11.9629-61.377 15.1855-64.5996Q18.4082-67.8223 23.877-67.8223L76.4648-67.8223Q81.7871-67.8223 85.0586-64.5996Q88.3301-61.377 88.3301-55.957L88.3301-22.7539Q88.3301-17.334 85.0586-14.1113Q81.7871-10.8887 76.4648-10.8887L45.1172-10.8887Q44.3848-10.8887 43.8721-10.6934Q43.3594-10.498 42.627-9.91211ZM28.7109-51.4648L69.2383-51.4648Q69.6777-51.4648 69.9951-51.7578Q70.3125-52.0508 70.3125-52.4902Q70.3125-52.9297 69.9951-53.2471Q69.6777-53.5645 69.2383-53.5645L28.7109-53.5645Q28.2715-53.5645 27.9785-53.2471Q27.6855-52.9297 27.6855-52.4902Q27.6855-52.0508 27.9785-51.7578Q28.2715-51.4648 28.7109-51.4648ZM28.7109-39.0137L69.2383-39.0137Q69.6777-39.0137 69.9951-39.3066Q70.3125-39.5996 70.3125-40.0391Q70.3125-40.4785 69.9951-40.8203Q69.6777-41.1621 69.2383-41.1621L28.7109-41.1621Q28.2715-41.1621 27.9785-40.8203Q27.6855-40.4785 27.6855-40.0391Q27.6855-39.5996 27.9785-39.3066Q28.2715-39.0137 28.7109-39.0137ZM28.7109-26.5137L55.6152-26.5137Q56.0547-26.5137 56.3721-26.8066Q56.6895-27.0996 56.6895-27.5391Q56.6895-27.9785 56.3721-28.2959Q56.0547-28.6133 55.6152-28.6133L28.7109-28.6133Q28.2715-28.6133 27.9785-28.2959Q27.6855-27.9785 27.6855-27.5391Q27.6855-27.0996 27.9785-26.8066Q28.2715-26.5137 28.7109-26.5137Z"/>
  </g>
 </g>
</svg>
