<?xml version="1.0" encoding="UTF-8"?>
<!--Generator: Apple Native CoreSVG 175-->
<!DOCTYPE svg
PUBLIC "-//W3C//DTD SVG 1.1//EN"
       "http://www.w3.org/Graphics/SVG/1.1/DTD/svg11.dtd">
<svg version="1.1" xmlns="http://www.w3.org/2000/svg" xmlns:xlink="http://www.w3.org/1999/xlink" width="3300" height="2200">
 <!--glyph: "uni1008D4.medium", point size: 100.0, font version: "17.3d3e1", template writer version: "65.1"-->
 <g id="Notes">
  <rect height="2200" id="artboard" style="fill:white;opacity:1" width="3300" x="0" y="0"/>
  <line style="fill:none;stroke:black;opacity:1;stroke-width:0.5;" x1="263" x2="3036" y1="292" y2="292"/>
  <text style="stroke:none;fill:black;font-family:sans-serif;font-size:13;font-weight:bold;" transform="matrix(1 0 0 1 263 322)">Weight/Scale Variations</text>
  <text style="stroke:none;fill:black;font-family:sans-serif;font-size:13;text-anchor:middle;" transform="matrix(1 0 0 1 559.711 322)">Ultralight</text>
  <text style="stroke:none;fill:black;font-family:sans-serif;font-size:13;text-anchor:middle;" transform="matrix(1 0 0 1 856.422 322)">Thin</text>
  <text style="stroke:none;fill:black;font-family:sans-serif;font-size:13;text-anchor:middle;" transform="matrix(1 0 0 1 1153.13 322)">Light</text>
  <text style="stroke:none;fill:black;font-family:sans-serif;font-size:13;text-anchor:middle;" transform="matrix(1 0 0 1 1449.84 322)">Regular</text>
  <text style="stroke:none;fill:black;font-family:sans-serif;font-size:13;text-anchor:middle;" transform="matrix(1 0 0 1 1746.56 322)">Medium</text>
  <text style="stroke:none;fill:black;font-family:sans-serif;font-size:13;text-anchor:middle;" transform="matrix(1 0 0 1 2043.27 322)">Semibold</text>
  <text style="stroke:none;fill:black;font-family:sans-serif;font-size:13;text-anchor:middle;" transform="matrix(1 0 0 1 2339.98 322)">Bold</text>
  <text style="stroke:none;fill:black;font-family:sans-serif;font-size:13;text-anchor:middle;" transform="matrix(1 0 0 1 2636.69 322)">Heavy</text>
  <text style="stroke:none;fill:black;font-family:sans-serif;font-size:13;text-anchor:middle;" transform="matrix(1 0 0 1 2933.4 322)">Black</text>
  <line style="fill:none;stroke:black;opacity:1;stroke-width:0.5;" x1="263" x2="3036" y1="1903" y2="1903"/>
  <g transform="matrix(1 0 0 1 263 1933)">
   <path d="M9.24805 0.830078Q10.8691 0.830078 12.2949 0.214844Q13.7207-0.400391 14.8096-1.49414Q15.8984-2.58789 16.5186-4.01367Q17.1387-5.43945 17.1387-7.05078Q17.1387-8.66211 16.5186-10.0879Q15.8984-11.5137 14.8047-12.6074Q13.7109-13.7012 12.2852-14.3164Q10.8594-14.9316 9.23828-14.9316Q7.62695-14.9316 6.20117-14.3164Q4.77539-13.7012 3.69141-12.6074Q2.60742-11.5137 1.9873-10.0879Q1.36719-8.66211 1.36719-7.05078Q1.36719-5.43945 1.9873-4.01367Q2.60742-2.58789 3.69629-1.49414Q4.78516-0.400391 6.21094 0.214844Q7.63672 0.830078 9.24805 0.830078ZM9.24805-0.654297Q7.91992-0.654297 6.7627-1.14746Q5.60547-1.64062 4.73145-2.51953Q3.85742-3.39844 3.36426-4.56055Q2.87109-5.72266 2.87109-7.05078Q2.87109-8.37891 3.35938-9.54102Q3.84766-10.7031 4.72168-11.582Q5.5957-12.4609 6.75293-12.9541Q7.91016-13.4473 9.23828-13.4473Q10.5762-13.4473 11.7334-12.9541Q12.8906-12.4609 13.7695-11.582Q14.6484-10.7031 15.1465-9.54102Q15.6445-8.37891 15.6445-7.05078Q15.6445-5.72266 15.1514-4.56055Q14.6582-3.39844 13.7842-2.51953Q12.9102-1.64062 11.748-1.14746Q10.5859-0.654297 9.24805-0.654297ZM5.6543-7.05078Q5.6543-6.72852 5.85938-6.52832Q6.06445-6.32812 6.40625-6.32812L8.51562-6.32812L8.51562-4.20898Q8.51562-3.88672 8.71094-3.67676Q8.90625-3.4668 9.23828-3.4668Q9.56055-3.4668 9.77051-3.67676Q9.98047-3.88672 9.98047-4.20898L9.98047-6.32812L12.0898-6.32812Q12.4219-6.32812 12.627-6.52832Q12.832-6.72852 12.832-7.05078Q12.832-7.38281 12.627-7.58789Q12.4219-7.79297 12.0898-7.79297L9.98047-7.79297L9.98047-9.90234Q9.98047-10.2344 9.77051-10.4443Q9.56055-10.6543 9.23828-10.6543Q8.90625-10.6543 8.71094-10.4443Q8.51562-10.2344 8.51562-9.90234L8.51562-7.79297L6.40625-7.79297Q6.06445-7.79297 5.85938-7.58789Q5.6543-7.38281 5.6543-7.05078Z"/>
  </g>
  <g transform="matrix(1 0 0 1 281.867 1933)">
   <path d="M11.709 2.91016Q13.75 2.91016 15.5518 2.12891Q17.3535 1.34766 18.7305-0.0292969Q20.1074-1.40625 20.8887-3.20801Q21.6699-5.00977 21.6699-7.05078Q21.6699-9.0918 20.8887-10.8936Q20.1074-12.6953 18.7305-14.0723Q17.3535-15.4492 15.5469-16.2305Q13.7402-17.0117 11.6992-17.0117Q9.6582-17.0117 7.85645-16.2305Q6.05469-15.4492 4.68262-14.0723Q3.31055-12.6953 2.5293-10.8936Q1.74805-9.0918 1.74805-7.05078Q1.74805-5.00977 2.5293-3.20801Q3.31055-1.40625 4.6875-0.0292969Q6.06445 1.34766 7.86621 2.12891Q9.66797 2.91016 11.709 2.91016ZM11.709 1.25Q9.98047 1.25 8.47656 0.605469Q6.97266-0.0390625 5.83496-1.17676Q4.69727-2.31445 4.05762-3.81836Q3.41797-5.32227 3.41797-7.05078Q3.41797-8.7793 4.05762-10.2832Q4.69727-11.7871 5.83008-12.9297Q6.96289-14.0723 8.4668-14.7119Q9.9707-15.3516 11.6992-15.3516Q13.4277-15.3516 14.9316-14.7119Q16.4355-14.0723 17.5781-12.9297Q18.7207-11.7871 19.3652-10.2832Q20.0098-8.7793 20.0098-7.05078Q20.0098-5.32227 19.3701-3.81836Q18.7305-2.31445 17.5928-1.17676Q16.4551-0.0390625 14.9463 0.605469Q13.4375 1.25 11.709 1.25ZM7.17773-7.05078Q7.17773-6.69922 7.41211-6.47461Q7.64648-6.25 8.01758-6.25L10.8887-6.25L10.8887-3.36914Q10.8887-2.99805 11.1133-2.76855Q11.3379-2.53906 11.6895-2.53906Q12.0605-2.53906 12.29-2.76855Q12.5195-2.99805 12.5195-3.36914L12.5195-6.25L15.4004-6.25Q15.7715-6.25 16.001-6.47461Q16.2305-6.69922 16.2305-7.05078Q16.2305-7.42188 16.001-7.65137Q15.7715-7.88086 15.4004-7.88086L12.5195-7.88086L12.5195-10.752Q12.5195-11.1328 12.29-11.3623Q12.0605-11.5918 11.6895-11.5918Q11.3379-11.5918 11.1133-11.3574Q10.8887-11.123 10.8887-10.752L10.8887-7.88086L8.01758-7.88086Q7.63672-7.88086 7.40723-7.65137Q7.17773-7.42188 7.17773-7.05078Z"/>
  </g>
  <g transform="matrix(1 0 0 1 305.646 1933)">
   <path d="M14.9707 5.66406Q17.0605 5.66406 18.96 5.01465Q20.8594 4.36523 22.4512 3.19336Q24.043 2.02148 25.2197 0.429688Q26.3965-1.16211 27.0459-3.06641Q27.6953-4.9707 27.6953-7.05078Q27.6953-9.14062 27.0459-11.04Q26.3965-12.9395 25.2197-14.5312Q24.043-16.123 22.4512-17.2998Q20.8594-18.4766 18.9551-19.126Q17.0508-19.7754 14.9609-19.7754Q12.8711-19.7754 10.9717-19.126Q9.07227-18.4766 7.48535-17.2998Q5.89844-16.123 4.72168-14.5312Q3.54492-12.9395 2.90039-11.04Q2.25586-9.14062 2.25586-7.05078Q2.25586-4.9707 2.90527-3.06641Q3.55469-1.16211 4.72656 0.429688Q5.89844 2.02148 7.49023 3.19336Q9.08203 4.36523 10.9814 5.01465Q12.8809 5.66406 14.9707 5.66406ZM14.9707 3.84766Q13.1641 3.84766 11.5283 3.2959Q9.89258 2.74414 8.53516 1.74805Q7.17773 0.751953 6.17676-0.610352Q5.17578-1.97266 4.62891-3.6084Q4.08203-5.24414 4.08203-7.05078Q4.08203-8.86719 4.62891-10.5029Q5.17578-12.1387 6.17188-13.501Q7.16797-14.8633 8.52539-15.8594Q9.88281-16.8555 11.5186-17.4023Q13.1543-17.9492 14.9609-17.9492Q16.7773-17.9492 18.4131-17.4023Q20.0488-16.8555 21.4111-15.8594Q22.7734-14.8633 23.7695-13.501Q24.7656-12.1387 25.3174-10.5029Q25.8691-8.86719 25.8691-7.05078Q25.8789-5.24414 25.332-3.6084Q24.7852-1.97266 23.7842-0.610352Q22.7832 0.751953 21.4209 1.74805Q20.0586 2.74414 18.4229 3.2959Q16.7871 3.84766 14.9707 3.84766ZM9.19922-7.05078Q9.19922-6.66992 9.45801-6.4209Q9.7168-6.17188 10.1172-6.17188L14.0625-6.17188L14.0625-2.2168Q14.0625-1.81641 14.3115-1.55762Q14.5605-1.29883 14.9512-1.29883Q15.3516-1.29883 15.6104-1.55273Q15.8691-1.80664 15.8691-2.2168L15.8691-6.17188L19.8242-6.17188Q20.2246-6.17188 20.4785-6.4209Q20.7324-6.66992 20.7324-7.05078Q20.7324-7.46094 20.4785-7.71484Q20.2246-7.96875 19.8242-7.96875L15.8691-7.96875L15.8691-11.9141Q15.8691-12.3242 15.6104-12.583Q15.3516-12.8418 14.9512-12.8418Q14.5605-12.8418 14.3115-12.583Q14.0625-12.3242 14.0625-11.9141L14.0625-7.96875L10.1172-7.96875Q9.70703-7.96875 9.45312-7.71484Q9.19922-7.46094 9.19922-7.05078Z"/>
  </g>
  <text style="stroke:none;fill:black;font-family:sans-serif;font-size:13;font-weight:bold;" transform="matrix(1 0 0 1 263 1953)">Design Variations</text>
  <text style="stroke:none;fill:black;font-family:sans-serif;font-size:13;" transform="matrix(1 0 0 1 263 1971)">Symbols are supported in up to nine weights and three scales.</text>
  <text style="stroke:none;fill:black;font-family:sans-serif;font-size:13;" transform="matrix(1 0 0 1 263 1989)">For optimal layout with text and other symbols, vertically align</text>
  <text style="stroke:none;fill:black;font-family:sans-serif;font-size:13;" transform="matrix(1 0 0 1 263 2007)">symbols with the adjacent text.</text>
  <line style="fill:none;stroke:#00AEEF;stroke-width:0.5;opacity:1.0;" x1="776" x2="776" y1="1919" y2="1933"/>
  <g transform="matrix(1 0 0 1 776 1933)">
   <path d="M3.31055 0.15625Q3.70117 0.15625 3.91602-0.00976562Q4.13086-0.175781 4.26758-0.585938L5.52734-4.0332L11.2891-4.0332L12.5488-0.585938Q12.6855-0.175781 12.9004-0.00976562Q13.1152 0.15625 13.4961 0.15625Q13.8867 0.15625 14.1162-0.0585938Q14.3457-0.273438 14.3457-0.644531Q14.3457-0.869141 14.2383-1.17188L9.6582-13.3691Q9.48242-13.8184 9.17969-14.043Q8.87695-14.2676 8.4082-14.2676Q7.5-14.2676 7.17773-13.3789L2.59766-1.16211Q2.49023-0.859375 2.49023-0.634766Q2.49023-0.263672 2.70996-0.0537109Q2.92969 0.15625 3.31055 0.15625ZM6.00586-5.51758L8.37891-12.0898L8.42773-12.0898L10.8008-5.51758Z"/>
  </g>
  <line style="fill:none;stroke:#00AEEF;stroke-width:0.5;opacity:1.0;" x1="793.197" x2="793.197" y1="1919" y2="1933"/>
  <text style="stroke:none;fill:black;font-family:sans-serif;font-size:13;font-weight:bold;" transform="matrix(1 0 0 1 776 1953)">Margins</text>
  <text style="stroke:none;fill:black;font-family:sans-serif;font-size:13;" transform="matrix(1 0 0 1 776 1971)">Leading and trailing margins on the left and right side of each symbol</text>
  <text style="stroke:none;fill:black;font-family:sans-serif;font-size:13;" transform="matrix(1 0 0 1 776 1989)">can be adjusted by modifying the x-location of the margin guidelines.</text>
  <text style="stroke:none;fill:black;font-family:sans-serif;font-size:13;" transform="matrix(1 0 0 1 776 2007)">Modifications are automatically applied proportionally to all</text>
  <text style="stroke:none;fill:black;font-family:sans-serif;font-size:13;" transform="matrix(1 0 0 1 776 2025)">scales and weights.</text>
  <g transform="matrix(1 0 0 1 1289 1933)">
   <path d="M2.8418 1.86523L4.54102 3.57422Q5.18555 4.22852 5.90332 4.17969Q6.62109 4.13086 7.31445 3.35938L18.0078-8.42773L17.041-9.4043L6.42578 2.27539Q6.16211 2.57812 5.89355 2.61719Q5.625 2.65625 5.27344 2.30469L4.10156 1.14258Q3.75 0.791016 3.79395 0.522461Q3.83789 0.253906 4.14062-0.0195312L15.6152-10.8203L14.6387-11.7871L3.04688-0.898438Q2.30469-0.214844 2.25098 0.498047Q2.19727 1.21094 2.8418 1.86523ZM9.25781-16.3281Q8.94531-16.0254 8.90625-15.6348Q8.86719-15.2441 9.04297-14.9512Q9.21875-14.6777 9.55566-14.541Q9.89258-14.4043 10.3809-14.5215Q11.4746-14.7754 12.5977-14.7314Q13.7207-14.6875 14.7949-13.9844L14.209-12.5293Q13.9551-11.9043 14.0674-11.4404Q14.1797-10.9766 14.5801-10.5664L16.875-8.25195Q17.2363-7.88086 17.5781-7.82227Q17.9199-7.76367 18.3398-7.8418L19.4043-8.03711L20.0684-7.36328L20.0293-6.80664Q20-6.43555 20.1221-6.12305Q20.2441-5.81055 20.6055-5.44922L21.3672-4.70703Q21.7285-4.3457 22.1533-4.33105Q22.5781-4.31641 22.9297-4.66797L25.8398-7.58789Q26.1914-7.93945 26.1816-8.35449Q26.1719-8.76953 25.8105-9.13086L25.0391-9.89258Q24.6875-10.2539 24.3799-10.3857Q24.0723-10.5176 23.7109-10.4883L23.1348-10.4395L22.4902-11.0742L22.7344-12.1973Q22.832-12.6172 22.6953-12.9834Q22.5586-13.3496 22.1191-13.7891L19.9219-15.9766Q18.6719-17.2168 17.2607-17.8369Q15.8496-18.457 14.4189-18.4814Q12.9883-18.5059 11.665-17.959Q10.3418-17.4121 9.25781-16.3281ZM10.752-15.957Q11.6602-16.6211 12.7002-16.9043Q13.7402-17.1875 14.8047-17.085Q15.8691-16.9824 16.8701-16.5137Q17.8711-16.0449 18.7012-15.2051L21.1328-12.793Q21.3086-12.6172 21.3525-12.4512Q21.3965-12.2852 21.3379-12.0312L21.0156-10.5469L22.5195-9.0625L23.5059-9.12109Q23.6914-9.13086 23.7891-9.09668Q23.8867-9.0625 24.0332-8.91602L24.6094-8.33984L22.168-5.89844L21.5918-6.47461Q21.4453-6.62109 21.4062-6.71875Q21.3672-6.81641 21.377-7.01172L21.4453-7.98828L19.9512-9.47266L18.4277-9.21875Q18.1836-9.16992 18.042-9.2041Q17.9004-9.23828 17.7148-9.41406L15.7129-11.416Q15.5176-11.5918 15.4932-11.7529Q15.4688-11.9141 15.5859-12.1875L16.4648-14.2773Q15.293-15.3711 13.8281-15.791Q12.3633-16.2109 10.8398-15.7617Q10.7227-15.7324 10.6885-15.8057Q10.6543-15.8789 10.752-15.957Z"/>
  </g>
  <text style="stroke:none;fill:black;font-family:sans-serif;font-size:13;font-weight:bold;" transform="matrix(1 0 0 1 1289 1953)">Exporting</text>
  <text style="stroke:none;fill:black;font-family:sans-serif;font-size:13;" transform="matrix(1 0 0 1 1289 1971)">Symbols should be outlined when exporting to ensure the</text>
  <text style="stroke:none;fill:black;font-family:sans-serif;font-size:13;" transform="matrix(1 0 0 1 1289 1989)">design is preserved when submitting to Xcode.</text>
  <text id="template-version" style="stroke:none;fill:black;font-family:sans-serif;font-size:13;text-anchor:end;" transform="matrix(1 0 0 1 3036 1933)">Template v.3.0</text>
  <text style="stroke:none;fill:black;font-family:sans-serif;font-size:13;text-anchor:end;" transform="matrix(1 0 0 1 3036 1951)">Requires Xcode 13 or greater</text>
  <text id="descriptive-name" style="stroke:none;fill:black;font-family:sans-serif;font-size:13;text-anchor:end;" transform="matrix(1 0 0 1 3036 1969)">Generated from clock.arrow.circlepath</text>
  <text style="stroke:none;fill:black;font-family:sans-serif;font-size:13;text-anchor:end;" transform="matrix(1 0 0 1 3036 1987)">Typeset at 100 points</text>
  <text style="stroke:none;fill:black;font-family:sans-serif;font-size:13;" transform="matrix(1 0 0 1 263 726)">Small</text>
  <text style="stroke:none;fill:black;font-family:sans-serif;font-size:13;" transform="matrix(1 0 0 1 263 1156)">Medium</text>
  <text style="stroke:none;fill:black;font-family:sans-serif;font-size:13;" transform="matrix(1 0 0 1 263 1586)">Large</text>
 </g>
 <g id="Guides">
  <g id="H-reference" style="fill:#27AAE1;stroke:none;" transform="matrix(1 0 0 1 339 696)">
   <path d="M0.993347 0L3.6377 0L29.3282-67.1326L30.0301-67.1326L30.0301-70.459L28.1227-70.459ZM11.6882-24.4797L46.9818-24.4797L46.2311-26.7288L12.4382-26.7288ZM55.1193 0L57.7637 0L30.6381-70.459L29.4327-70.459L29.4327-67.1326Z"/>
  </g>
  <line id="Baseline-S" style="fill:none;stroke:#27AAE1;opacity:1;stroke-width:0.5;" x1="263" x2="3036" y1="696" y2="696"/>
  <line id="Capline-S" style="fill:none;stroke:#27AAE1;opacity:1;stroke-width:0.5;" x1="263" x2="3036" y1="625.541" y2="625.541"/>
  <g id="H-reference" style="fill:#27AAE1;stroke:none;" transform="matrix(1 0 0 1 339 1126)">
   <path d="M0.993347 0L3.6377 0L29.3282-67.1326L30.0301-67.1326L30.0301-70.459L28.1227-70.459ZM11.6882-24.4797L46.9818-24.4797L46.2311-26.7288L12.4382-26.7288ZM55.1193 0L57.7637 0L30.6381-70.459L29.4327-70.459L29.4327-67.1326Z"/>
  </g>
  <line id="Baseline-M" style="fill:none;stroke:#27AAE1;opacity:1;stroke-width:0.5;" x1="263" x2="3036" y1="1126" y2="1126"/>
  <line id="Capline-M" style="fill:none;stroke:#27AAE1;opacity:1;stroke-width:0.5;" x1="263" x2="3036" y1="1055.54" y2="1055.54"/>
  <g id="H-reference" style="fill:#27AAE1;stroke:none;" transform="matrix(1 0 0 1 339 1556)">
   <path d="M0.993347 0L3.6377 0L29.3282-67.1326L30.0301-67.1326L30.0301-70.459L28.1227-70.459ZM11.6882-24.4797L46.9818-24.4797L46.2311-26.7288L12.4382-26.7288ZM55.1193 0L57.7637 0L30.6381-70.459L29.4327-70.459L29.4327-67.1326Z"/>
  </g>
  <line id="Baseline-L" style="fill:none;stroke:#27AAE1;opacity:1;stroke-width:0.5;" x1="263" x2="3036" y1="1556" y2="1556"/>
  <line id="Capline-L" style="fill:none;stroke:#27AAE1;opacity:1;stroke-width:0.5;" x1="263" x2="3036" y1="1485.54" y2="1485.54"/>
  <line id="left-margin-Regular-M" style="fill:none;stroke:#00AEEF;stroke-width:0.5;opacity:1.0;" x1="1386.59" x2="1386.59" y1="1030.79" y2="1150.12"/>
  <line id="right-margin-Regular-M" style="fill:none;stroke:#00AEEF;stroke-width:0.5;opacity:1.0;" x1="1513.1" x2="1513.1" y1="1030.79" y2="1150.12"/>
 </g>
 <g id="Symbols">
  <g id="Black-L" transform="matrix(1 0 0 1 2847.61 1556)">
   <path d="M90.15-70.4793Q87.1797-70.4793 85.0811-68.4008Q82.9826-66.3222 82.9826-63.3727L82.9826-32.2203Q82.9826-29.5752 84.8711-27.0702L98.2634-9.42837Q100.363-6.63563 103.312-6.15191Q106.262-5.66819 108.779-7.52865Q111.234-9.34988 111.481-12.3554Q111.728-15.361 109.905-17.742L90.8991-43.0887L97.2566-23.9302L97.2566-63.3727Q97.2566-66.3222 95.1879-68.4008Q93.1191-70.4793 90.15-70.4793ZM92.369 32.7257Q106.388 32.7257 118.714 27.4304Q131.039 22.1351 140.377 12.7568Q149.715 3.3785 155.021-8.90689Q160.327-21.1923 160.327-35.2113Q160.327-49.2303 155.021-61.5157Q149.715-73.8011 140.377-83.1794Q131.039-92.5577 118.714-97.853Q106.388-103.148 92.369-103.148Q78.468-103.148 66.2696-97.9406Q54.0712-92.7329 44.7331-83.511Q35.395-74.2892 30.0303-62.1498Q24.6656-50.0104 24.432-36.1666L44.6003-36.1666Q44.8339-45.9511 48.6097-54.4445Q52.3855-62.9379 58.8941-69.3292Q65.4028-75.7205 73.9936-79.3502Q82.5844-82.9799 92.369-82.9799Q102.291-82.9799 110.96-79.2626Q119.628-75.5452 126.205-69.008Q132.782-62.4707 136.471-53.7917Q140.16-45.1126 140.16-35.2113Q140.16-25.3099 136.471-16.6309Q132.782-7.95191 126.205-1.40422Q119.628 5.14347 110.96 8.86081Q102.291 12.5781 92.369 12.5781Q82.3146 12.5573 73.7965 8.76968Q65.2784 4.98202 58.4035-1.87347Q55.062-5.0346 50.8761-5.71879Q46.6903-6.40298 43.2371-3.22115Q40.1928-0.371827 40.2511 3.7701Q40.3094 7.91203 43.8898 11.9713Q49.2364 18.1534 57.2304 22.8142Q65.2244 27.4751 74.3811 30.1004Q83.5378 32.7257 92.369 32.7257ZM17.4283-50.3528Q14.3155-50.3528 12.7476-48.7036Q11.1796-47.0545 11.2588-44.689Q11.338-42.3234 12.9864-40.1169L32.2466-15.0648Q33.9806-12.8662 36.6701-12.8662Q39.3596-12.8662 41.0364-15.0648L60.237-40.1365Q61.8866-42.2858 61.945-44.6409Q62.0034-46.9961 60.475-48.6744Q58.9466-50.3528 55.8339-50.3528Z"/>
  </g>
  <g id="Heavy-L" transform="matrix(1 0 0 1 2551.95 1556)">
   <path d="M88.9333-70.8308Q86.1981-70.8308 84.2739-68.9194Q82.3497-67.008 82.3497-64.3029L82.3497-32.231Q82.3497-29.7398 84.1251-27.3793L98.0522-9.03387Q99.9938-6.44358 102.699-6.00265Q105.404-5.56172 107.755-7.27322Q110.016-8.93557 110.236-11.6741Q110.455-14.4127 108.758-16.6503L89.3578-42.576L95.4613-24.1046L95.4613-64.3029Q95.4613-67.008 93.5622-68.9194Q91.6631-70.8308 88.9333-70.8308ZM91.1932 31.7694Q104.998 31.7694 117.153 26.5469Q129.307 21.3244 138.525 12.0666Q147.743 2.80877 152.98-9.30591Q158.218-21.4206 158.218-35.2251Q158.218-49.0296 152.98-61.1442Q147.743-73.2589 138.525-82.5167Q129.307-91.7745 117.153-96.997Q104.998-102.22 91.1932-102.22Q77.4836-102.22 65.433-97.064Q53.3823-91.9084 44.1648-82.7773Q34.9472-73.6461 29.6622-61.643Q24.3772-49.6398 24.1987-35.9692L41.9707-35.9692Q42.1492-46.0868 46.0182-54.8835Q49.8872-63.6803 56.6054-70.3065Q63.3236-76.9327 72.1996-80.6901Q81.0755-84.4475 91.1932-84.4475Q101.43-84.4475 110.361-80.6231Q119.291-76.7988 126.067-70.061Q132.842-63.3233 136.647-54.3776Q140.451-45.432 140.451-35.2251Q140.451-25.0182 136.647-16.0725Q132.842-7.12688 126.067-0.374011Q119.291 6.37886 110.361 10.2032Q101.43 14.0275 91.1932 14.0275Q80.2824 13.9973 71.0594 9.63416Q61.8365 5.27099 54.8573-2.41291Q52-5.26075 48.3455-5.89999Q44.691-6.53924 41.6201-3.83712Q38.8615-1.41302 38.8181 2.25792Q38.7748 5.92886 41.862 9.48184Q47.3658 16.1117 55.3783 21.1239Q63.3907 26.1361 72.6613 28.9527Q81.9319 31.7694 91.1932 31.7694ZM16.9798-49.6271Q14.1026-49.6271 12.6433-48.158Q11.184-46.6888 11.2588-44.5442Q11.3336-42.3996 12.8733-40.3193L30.8911-16.4765Q32.5629-14.3122 35.0668-14.3122Q37.5706-14.3122 39.2032-16.4765L57.1709-40.3439Q58.7162-42.3851 58.7608-44.5147Q58.8054-46.6442 57.3835-48.1356Q55.9616-49.6271 53.0844-49.6271Z"/>
  </g>
  <g id="Bold-L" transform="matrix(1 0 0 1 2256.56 1556)">
   <path d="M87.4198-71.1197Q85.0063-71.1197 83.3159-69.4381Q81.6255-67.7565 81.6255-65.3809L81.6255-32.358Q81.6255-30.0739 83.2477-27.9125L97.8132-8.72106Q99.533-6.42145 101.909-6.04179Q104.284-5.66213 106.391-7.16683Q108.384-8.622 108.568-11.0003Q108.753-13.3786 107.24-15.4023L87.5266-41.7668L93.1586-24.6478L93.1586-65.3809Q93.1586-67.7565 91.4893-69.4381Q89.8201-71.1197 87.4198-71.1197ZM89.7333 30.5711Q103.276 30.5711 115.216 25.4407Q127.156 20.3104 136.22 11.2061Q145.284 2.10182 150.433-9.79778Q155.583-21.6974 155.583-35.2405Q155.583-48.7836 150.433-60.6832Q145.284-72.5828 136.22-81.6871Q127.156-90.7914 115.216-95.9217Q103.276-101.052 89.7333-101.052Q76.2619-101.052 64.3994-95.9655Q52.5368-90.879 43.4728-81.8668Q34.4089-72.8545 29.2237-61.0278Q24.0385-49.2011 23.9217-35.7456L38.7053-35.7456Q38.8221-46.2707 42.8101-55.4402Q46.7981-64.6097 53.7775-71.5241Q60.7569-78.4386 69.9826-82.3535Q79.2082-86.2685 89.7333-86.2685Q100.355-86.2685 109.612-82.3097Q118.869-78.3509 125.89-71.3635Q132.911-64.3761 136.862-55.1Q140.813-45.824 140.813-35.2405Q140.813-24.657 136.862-15.381Q132.911-6.10494 125.89 0.901554Q118.869 7.90805 109.612 11.8667Q100.355 15.8254 89.7333 15.8254Q77.7547 15.7875 67.6671 10.6949Q57.5794 5.60228 50.4622-3.12608Q48.1893-5.56723 45.1881-6.1415Q42.1869-6.71577 39.5997-4.59039Q37.217-2.67411 37.0692 0.401716Q36.9215 3.47754 39.409 6.40797Q45.0752 13.5762 53.107 19.0188Q61.1387 24.4615 70.5514 27.5163Q79.9642 30.5711 89.7333 30.5711ZM16.3817-48.7429Q13.8189-48.7429 12.5053-47.4967Q11.1917-46.2504 11.2588-44.3823Q11.3259-42.5143 12.7201-40.61L29.3053-18.1761Q30.8779-16.0878 33.1327-16.0878Q35.3874-16.0878 36.9437-18.1761L53.4868-40.6348Q54.8939-42.5229 54.9231-44.3721Q54.9524-46.2212 53.6723-47.4821Q52.3923-48.7429 49.8294-48.7429Z"/>
  </g>
  <g id="Semibold-L" transform="matrix(1 0 0 1 1960.75 1556)">
   <path d="M86.3763-71.3189Q84.1847-71.3189 82.6555-69.7957Q81.1263-68.2725 81.1263-66.1241L81.1263-32.4456Q81.1263-30.3042 82.6428-28.28L97.6485-8.5054Q99.2152-6.4062 101.364-6.06877Q103.512-5.73134 105.45-7.09348Q107.258-8.40582 107.419-10.5358Q107.58-12.6658 106.193-14.5419L86.2641-41.209L91.5711-25.0222L91.5711-66.1241Q91.5711-68.2725 90.0603-69.7957Q88.5495-71.3189 86.3763-71.3189ZM88.7269 29.745Q102.09 29.745 113.881 24.6782Q125.673 19.6113 134.631 10.6129Q143.589 1.61445 148.678-10.1369Q153.766-21.8882 153.766-35.2511Q153.766-48.6141 148.678-60.3654Q143.589-72.1167 134.631-81.1151Q125.673-90.1136 113.881-95.1804Q102.09-100.247 88.7269-100.247Q75.4198-100.247 63.6868-95.2083Q51.9539-90.1693 42.9958-81.2391Q34.0378-72.3088 28.9214-60.6038Q23.8051-48.8987 23.7308-35.5915L36.4541-35.5915Q36.5284-46.3975 40.5985-55.824Q44.6685-65.2504 51.8279-72.3636Q58.9874-79.4767 68.4542-83.5003Q77.9209-87.5239 88.7269-87.5239Q99.6133-87.5239 109.095-83.4725Q118.578-79.421 125.768-72.2614Q132.959-65.1018 137.01-55.598Q141.062-46.0943 141.062-35.2511Q141.062-24.408 137.01-14.9042Q132.959-5.40043 125.768 1.78092Q118.578 8.96227 109.095 13.0136Q99.6133 17.0649 88.7269 17.0649Q76.0122 17.0217 65.3284 11.4262Q54.6446 5.83067 47.4322-3.61773Q45.5623-5.77852 43.0114-6.308Q40.4606-6.83747 38.2069-5.10969Q36.0833-3.5435 35.8636-0.87794Q35.6439 1.78762 37.7179 4.28886Q43.4961 11.8282 51.5411 17.5676Q59.5862 23.307 69.0969 26.526Q78.6076 29.745 88.7269 29.745ZM15.9694-48.1334Q13.6233-48.1334 12.4102-47.0408Q11.197-45.9481 11.2588-44.2707Q11.3206-42.5933 12.6145-40.8104L28.212-19.3479Q29.7163-17.3118 31.7993-17.3118Q33.8823-17.3118 35.386-19.3479L50.947-40.8353Q52.2589-42.618 52.2775-44.2737Q52.2961-45.9295 51.1138-47.0315Q49.9315-48.1334 47.5854-48.1334Z"/>
  </g>
  <g id="Medium-L" transform="matrix(1 0 0 1 1664.73 1556)">
   <path d="M85.5851-71.4699Q83.5618-71.4699 82.1548-70.0668Q80.7478-68.6637 80.7478-66.6876L80.7478-32.512Q80.7478-30.4788 82.1842-28.5587L97.5236-8.34188Q98.9743-6.39463 100.95-6.08923Q102.926-5.78383 104.736-7.03786Q106.405-8.2419 106.547-10.1836Q106.69-12.1252 105.399-13.8895L85.3069-40.7861L90.3674-25.3061L90.3674-66.6876Q90.3674-68.6637 88.9768-70.0668Q87.5862-71.4699 85.5851-71.4699ZM87.9638 29.1186Q101.19 29.1186 112.869 24.0999Q124.548 19.0813 133.426 10.1631Q142.304 1.24491 147.347-10.394Q152.389-22.0329 152.389-35.2592Q152.389-48.4855 147.347-60.1244Q142.304-71.7633 133.426-80.6815Q124.548-89.5996 112.869-94.6183Q101.19-99.637 87.9638-99.637Q74.7812-99.637 63.1465-94.6341Q51.5119-89.6312 42.6341-80.7631Q33.7564-71.895 28.6922-60.2822Q23.6281-48.6694 23.586-35.4747L34.7472-35.4747Q34.7893-46.4936 38.9215-56.1149Q43.0537-65.7363 50.3497-73.0001Q57.6457-80.2639 67.2953-84.3699Q76.9449-88.4758 87.9638-88.4758Q99.0511-88.4758 108.704-84.3541Q118.357-80.2324 125.676-72.9423Q132.995-65.6521 137.123-55.9757Q141.25-46.2992 141.25-35.2592Q141.25-24.2192 137.123-14.5427Q132.995-4.86623 125.676 2.44769Q118.357 9.76162 108.704 13.8832Q99.0511 18.0047 87.9638 18.0047Q74.6909 17.9574 63.5551 11.9806Q52.4193 6.00385 45.1348-3.99052Q43.5703-5.93873 41.361-6.43424Q39.1516-6.92975 37.1508-5.50344Q35.2237-4.20271 34.9494-1.84823Q34.6751 0.506255 36.4356 2.68207Q42.2988 10.5028 50.3539 16.4673Q58.409 22.4317 67.994 25.7752Q77.579 29.1186 87.9638 29.1186ZM15.6568-47.6713Q13.475-47.6713 12.338-46.6951Q11.201-45.7189 11.2588-44.1861Q11.3166-42.6533 12.5344-40.9623L27.3831-20.2363Q28.8356-18.2399 30.7883-18.2399Q32.7411-18.2399 34.2049-20.2363L49.0212-40.9873Q50.2609-42.69 50.2714-44.1992Q50.2819-45.7084 49.1738-46.6898Q48.0657-47.6713 45.8839-47.6713Z"/>
  </g>
  <g id="Regular-L" transform="matrix(1 0 0 1 1368.92 1556)">
   <path d="M84.5531-71.6669Q82.7492-71.6669 81.5016-70.4204Q80.254-69.174 80.254-67.4226L80.254-32.5986Q80.254-30.7065 81.586-28.9222L97.3606-8.1286Q98.6601-6.37954 100.411-6.11591Q102.163-5.85228 103.806-6.96532Q105.291-8.0281 105.411-9.72415Q105.53-11.4202 104.364-13.0386L84.0583-40.2344L88.7974-25.6764L88.7974-67.4226Q88.7974-69.174 87.5635-70.4204Q86.3296-71.6669 84.5531-71.6669ZM86.9685 28.3016Q100.017 28.3016 111.549 23.3458Q123.082 18.3899 131.855 9.5764Q140.628 0.7629 145.61-10.7293Q150.592-22.2216 150.592-35.2697Q150.592-48.3178 145.61-59.8101Q140.628-71.3023 131.855-80.1158Q123.082-88.9293 111.549-93.8852Q100.017-98.841 86.9685-98.841Q73.9483-98.841 62.4418-93.8852Q50.9354-88.9293 42.1624-80.1423Q33.3893-71.3553 28.3932-59.8628Q23.3972-48.3703 23.3972-35.3222L32.5208-35.3222Q32.5208-46.619 36.7341-56.4945Q40.9475-66.3699 48.4216-73.8303Q55.8957-81.2906 65.7837-85.504Q75.6717-89.7174 86.9685-89.7174Q98.3178-89.7174 108.193-85.504Q118.069-81.2906 125.556-73.8303Q133.042-66.3699 137.27-56.4682Q141.497-46.5665 141.497-35.2697Q141.497-23.9729 137.27-14.0712Q133.042-4.16946 125.556 3.3174Q118.069 10.8042 108.193 15.0174Q98.3178 19.2306 86.9685 19.2306Q72.9675 19.178 61.2421 12.7039Q49.5167 6.22973 42.1381-4.47678Q40.9721-6.1477 39.2082-6.59891Q37.4443-7.05011 35.7733-6.01703Q34.1024-5.06255 33.757-3.11382Q33.4116-1.1651 34.7631 0.586251Q40.737 8.77405 48.8053 15.032Q56.8735 21.29 66.5555 24.7958Q76.2374 28.3016 86.9685 28.3016ZM15.249-47.0685Q13.2816-47.0685 12.2439-46.2442Q11.2062-45.4199 11.2588-44.0757Q11.3113-42.7314 12.4299-41.1605L26.3018-21.3951Q27.6867-19.4505 29.4696-19.4505Q31.2525-19.4505 32.6644-21.3951L46.5094-41.1857Q47.6548-42.784 47.6548-44.102Q47.6548-45.4199 46.6435-46.2442Q45.6321-47.0685 43.6646-47.0685Z"/>
  </g>
  <g id="Light-L" transform="matrix(1 0 0 1 1073.19 1556)">
   <path d="M83.4651-70.9227Q82.0813-70.9227 81.1104-69.9815Q80.1396-69.0403 80.1396-67.6897L80.1396-33.4192Q80.1396-31.7753 81.2807-30.2581L97.3414-9.04471Q98.3167-7.75355 99.6672-7.58548Q101.018-7.41741 102.241-8.24409Q103.364-9.09685 103.454-10.3539Q103.545-11.611 102.684-12.8478L83.2948-38.5548L86.6981-28.1576L86.6981-67.6897Q86.6981-69.0403 85.7503-69.9815Q84.8026-70.9227 83.4651-70.9227ZM85.9379 27.3855Q98.8334 27.3855 110.194 22.506Q121.555 17.6264 130.194 8.94647Q138.834 0.266525 143.73-11.0539Q148.626-22.3742 148.626-35.2697Q148.626-48.1652 143.73-59.4856Q138.834-70.8059 130.194-79.4859Q121.555-88.1658 110.194-93.0454Q98.8334-97.9249 85.9379-97.9249Q73.0895-97.9249 61.7452-93.0454Q50.4009-88.1658 41.7615-79.5029Q33.1222-70.84 28.2024-59.5192Q23.2827-48.1985 23.2827-35.303L30.2114-35.303Q30.2114-46.848 34.5298-56.962Q38.8482-67.076 46.513-74.7177Q54.1779-82.3594 64.2854-86.6778Q74.3929-90.9962 85.9379-90.9962Q97.5161-90.9962 107.63-86.6778Q117.744-82.3594 125.403-74.7177Q133.062-67.076 137.403-56.9453Q141.745-46.8147 141.745-35.2697Q141.745-23.7248 137.403-13.5941Q133.062-3.46337 125.403 4.19535Q117.744 11.8541 107.63 16.1721Q97.5161 20.4901 85.9379 20.4901Q71.1545 20.4568 58.8851 13.372Q46.6157 6.28713 39.0845-5.25918Q38.2237-6.52928 36.8797-6.87563Q35.5357-7.22198 34.2656-6.47493Q32.9955-5.74972 32.7169-4.28758Q32.4384-2.82545 33.4462-1.47492Q39.3248 6.97998 47.3835 13.5052Q55.4421 20.0304 65.2291 23.708Q75.016 27.3855 85.9379 27.3855ZM14.5619-46.5532Q12.9571-46.5532 12.0913-45.8816Q11.2255-45.2099 11.2588-44.0757Q11.2921-42.9415 12.2391-41.6184L25.8054-22.2538Q26.9806-20.5766 28.4677-20.5766Q29.9548-20.5766 31.1756-22.2538L44.6964-41.6054Q45.6889-42.9748 45.6889-44.0923Q45.6889-45.2099 44.8398-45.8816Q43.9906-46.5532 42.3858-46.5532Z"/>
  </g>
  <g id="Thin-L" transform="matrix(1 0 0 1 777.779 1556)">
   <path d="M82.0262-69.9383Q81.1979-69.9383 80.593-69.4009Q79.9882-68.8634 79.9882-68.043L79.9882-34.5044Q79.9882-33.1888 80.877-32.0249L97.316-10.2563Q97.8625-9.57079 98.6829-9.5291Q99.5033-9.4874 100.171-9.93538Q100.815-10.5103 100.867-11.1868Q100.92-11.8633 100.463-12.5955L82.2851-36.3334L83.9215-31.4393L83.9215-68.043Q83.9215-68.8634 83.3523-69.4009Q82.7831-69.9383 82.0262-69.9383ZM84.5749 26.1739Q97.2685 26.1739 108.402 21.3953Q119.535 16.6166 127.998 8.11334Q136.461-0.389971 141.244-11.483Q146.026-22.5761 146.026-35.2697Q146.026-47.9633 141.244-59.0564Q136.461-70.1494 127.998-78.6527Q119.535-87.1561 108.402-91.9347Q97.2685-96.7133 84.5749-96.7133Q71.9538-96.7133 60.8239-91.9347Q49.6939-87.1561 41.2314-78.6573Q32.7689-70.1585 27.9501-59.0648Q23.1313-47.9712 23.1313-35.2776L27.1571-35.2776Q27.1571-47.1508 31.6144-57.5803Q36.0717-68.0099 43.9888-75.8914Q51.906-83.7729 62.3038-88.2302Q72.7017-92.6875 84.5749-92.6875Q96.4559-92.6875 106.885-88.2302Q117.315-83.7729 125.201-75.8914Q133.087-68.0099 137.58-57.5764Q142.073-47.1429 142.073-35.2697Q142.073-23.3965 137.58-12.963Q133.087-2.52952 125.201 5.35652Q117.315 13.2426 106.885 17.6992Q96.4559 22.1559 84.5749 22.1559Q68.7567 22.1481 55.7678 14.2556Q42.7789 6.36304 35.0459-6.29396Q34.5888-7.03395 33.8002-7.24162Q33.0115-7.4493 32.2715-7.08053Q31.5315-6.65855 31.3414-5.83998Q31.1513-5.0214 31.7044-4.20099Q37.4571 4.60718 45.5031 11.4859Q53.549 18.3646 63.4748 22.2692Q73.4007 26.1739 84.5749 26.1739ZM13.653-45.8717Q12.5279-45.8717 11.8894-45.4019Q11.2509-44.9321 11.2588-44.0757Q11.2666-43.2192 11.9867-42.224L25.1489-23.3896Q26.0468-22.066 27.1426-22.066Q28.2385-22.066 29.2065-23.3896L42.2985-42.1605Q43.0888-43.2271 43.0888-44.0796Q43.0888-44.9321 42.4542-45.4019Q41.8197-45.8717 40.6945-45.8717Z"/>
  </g>
  <g id="Ultralight-L" transform="matrix(1 0 0 1 481.734 1556)">
   <path d="M81.2892-69.4342Q80.7455-69.4342 80.328-69.1035Q79.9106-68.7728 79.9106-68.224L79.9106-35.0603Q79.9106-33.9128 80.6702-32.9298L97.3029-10.8769Q97.6298-10.5016 98.1787-10.5246Q98.7276-10.5476 99.1105-10.8016Q99.5089-11.2343 99.542-11.6135Q99.5752-11.9926 99.325-12.4662L81.7679-35.1956L82.4994-33.1201L82.4994-68.224Q82.4994-68.7728 82.124-69.1035Q81.7487-69.4342 81.2892-69.4342ZM83.8767 25.5533Q96.4669 25.5533 107.484 20.8264Q118.501 16.0995 126.873 7.68661Q135.246-0.726225 139.97-11.7029Q144.695-22.6795 144.695-35.2697Q144.695-47.8599 139.97-58.8365Q135.246-69.8132 126.873-78.226Q118.501-86.6389 107.484-91.3658Q96.4669-96.0927 83.8767-96.0927Q71.3721-96.0927 60.352-91.3658Q49.3318-86.6389 40.9599-78.2241Q32.588-69.8094 27.8209-58.8321Q23.0537-47.8547 23.0537-35.2645L25.5927-35.2645Q25.5927-47.3058 30.1211-57.897Q34.6495-68.4882 42.696-76.4925Q50.7424-84.4969 61.2889-89.0253Q71.8354-93.5537 83.8767-93.5537Q95.9129-93.5537 106.504-89.0253Q117.095-84.4969 125.098-76.4925Q133.1-68.4882 137.671-57.8996Q142.241-47.311 142.241-35.2697Q142.241-23.2284 137.671-12.6398Q133.1-2.05121 125.098 5.95126Q117.095 13.9537 106.504 18.4814Q95.9129 23.0092 83.8767 23.0092Q67.5285 23.0143 54.1712 14.7081Q40.8138 6.40192 32.9773-6.82398Q32.7271-7.29244 32.2229-7.42908Q31.7186-7.56572 31.2502-7.39072Q30.7817-7.12405 30.6369-6.6351Q30.492-6.14616 30.8123-5.59727Q36.5005 3.39184 44.5399 10.4516Q52.5793 17.5113 62.5763 21.5323Q72.5733 25.5533 83.8767 25.5533ZM13.1876-45.5226Q12.3081-45.5226 11.786-45.1562Q11.264-44.7898 11.2588-44.0757Q11.2536-43.3615 11.8575-42.5342L24.8127-23.9713Q25.5685-22.8289 26.4639-22.8289Q27.3594-22.8289 28.198-23.9713L41.0704-42.4449Q41.757-43.3563 41.757-44.0731Q41.757-44.7898 41.2324-45.1562Q40.7078-45.5226 39.8283-45.5226Z"/>
  </g>
  <g id="Black-M" transform="matrix(1 0 0 1 2866.16 1126)">
   <path d="M70.7412-62.136Q68.2949-62.136 66.5567-60.4234Q64.8186-58.7108 64.8186-56.27L64.8186-33.0001Q64.8186-30.8522 66.353-28.8234L76.3077-15.7034Q78.0258-13.4278 80.4666-13.0292Q82.9075-12.6307 84.9437-14.1613Q86.9635-15.6803 87.1742-18.1788Q87.3848-20.6773 85.9058-22.5936L71.6445-41.5315L76.6072-26.6617L76.6072-56.27Q76.6072-58.7108 74.8975-60.4234Q73.1878-62.136 70.7412-62.136ZM72.433 18.116Q83.4578 18.116 93.1304 13.9613Q102.803 9.8066 110.123 2.45537Q117.443-4.89586 121.601-14.5373Q125.758-24.1788 125.758-35.2035Q125.758-46.2283 121.601-55.8698Q117.443-65.5112 110.123-72.8625Q102.803-80.2137 93.1304-84.3684Q83.4578-88.5231 72.433-88.5231Q61.5221-88.5231 51.9665-84.4541Q42.4108-80.385 35.0907-73.1792Q27.7706-65.9735 23.5562-56.4748Q19.3418-46.9761 19.1134-36.1226L36.5008-36.1226Q36.7292-43.4504 39.5885-49.8022Q42.4479-56.1541 47.3362-60.9283Q52.2244-65.7025 58.6648-68.4191Q65.1052-71.1358 72.433-71.1358Q79.8805-71.1358 86.4036-68.3335Q92.9268-65.5313 97.875-60.6143Q102.823-55.6973 105.597-49.1714Q108.37-42.6456 108.37-35.2035Q108.37-27.7615 105.597-21.2357Q102.823-14.7098 97.875-9.79007Q92.9268-4.87036 86.4036-2.0681Q79.8805 0.734151 72.433 0.734151Q65.2736 0.728658 59.2062-1.79393Q53.1389-4.31651 47.8816-9.02957Q44.918-11.6936 41.2753-12.2481Q37.6325-12.8026 34.683-9.96394Q32.1332-7.42207 32.2749-3.87429Q32.4165-0.326514 35.5675 3.19916Q39.5618 7.64005 45.7379 10.9853Q51.9141 14.3306 58.9245 16.2233Q65.9349 18.116 72.433 18.116ZM13.7948-47.5001Q11.2299-47.5001 9.94497-46.0883Q8.66007-44.6766 8.72266-42.6825Q8.78525-40.6885 10.1325-38.904L26.0804-18.5101Q27.449-16.8135 29.6521-16.8135Q31.8552-16.8135 33.1664-18.5101L49.0576-38.9098Q50.4045-40.6369 50.4616-42.6282Q50.5187-44.6195 49.2651-46.0598Q48.0115-47.5001 45.4466-47.5001Z"/>
  </g>
  <g id="Heavy-M" transform="matrix(1 0 0 1 2570.39 1126)">
   <path d="M69.6522-62.5483Q67.3969-62.5483 65.8037-60.971Q64.2104-59.3936 64.2104-57.1547L64.2104-32.9349Q64.2104-30.9145 65.6519-29.0024L76.103-15.2333Q77.6968-13.1133 79.9357-12.7478Q82.1747-12.3822 84.0873-13.7936Q85.9507-15.1767 86.1373-17.4547Q86.3239-19.7327 84.9397-21.544L70.2082-41.1852L75.0459-26.6033L75.0459-57.1547Q75.0459-59.3936 73.4756-60.971Q71.9053-62.5483 69.6522-62.5483ZM71.3786 17.2657Q82.2078 17.2657 91.7294 13.1751Q101.251 9.08448 108.466 1.83873Q115.68-5.40703 119.779-14.8974Q123.878-24.3879 123.878-35.217Q123.878-46.0462 119.779-55.5366Q115.68-65.027 108.466-72.2728Q101.251-79.5185 91.7294-83.6091Q82.2078-87.6997 71.3786-87.6997Q60.639-87.6997 51.2129-83.6745Q41.7867-79.6494 34.5721-72.5209Q27.3576-65.3924 23.214-56.011Q19.0704-46.6297 18.896-35.9314L34.1432-35.9314Q34.3177-43.5619 37.2585-50.1883Q40.1993-56.8146 45.2748-61.8018Q50.3504-66.789 57.0492-69.6207Q63.7481-72.4524 71.3786-72.4524Q79.1129-72.4524 85.8701-69.5553Q92.6273-66.6581 97.7535-61.5619Q102.88-56.4656 105.756-49.7002Q108.633-42.9348 108.633-35.217Q108.633-27.4992 105.756-20.7338Q102.88-13.9684 97.7535-8.86397Q92.6273-3.75953 85.8701-0.86238Q79.1129 2.03477 71.3786 2.03477Q63.4541 2.01838 56.748-1.01047Q50.0419-4.03932 44.6967-9.48474Q42.1783-11.8795 39.0162-12.3997Q35.8542-12.9199 33.2414-10.5239Q30.9339-8.37651 30.97-5.24427Q31.006-2.11202 33.7067 0.95571Q37.8635 5.80968 44.0585 9.47371Q50.2536 13.1377 57.3656 15.2017Q64.4777 17.2657 71.3786 17.2657ZM13.4197-46.8381Q11.0517-46.8381 9.85715-45.5883Q8.66264-44.3385 8.72266-42.541Q8.78267-40.7435 10.0395-39.0597L24.8012-19.811Q26.1282-18.1232 28.1771-18.1232Q30.2261-18.1232 31.5117-19.811L46.2275-39.0738Q47.4866-40.7163 47.5302-42.5056Q47.5738-44.2949 46.4093-45.5665Q45.2448-46.8381 42.8767-46.8381Z"/>
  </g>
  <g id="Bold-M" transform="matrix(1 0 0 1 2274.73 1126)">
   <path d="M68.434-63.0096Q66.3924-63.0096 64.9612-61.5835Q63.53-60.1574 63.53-58.1443L63.53-32.8619Q63.53-30.9843 64.8675-29.2026L75.874-14.7073Q77.3288-12.7615 79.3419-12.4329Q81.3549-12.1043 83.1292-13.3823Q84.8177-14.6134 84.9774-16.6447Q85.1371-18.676 83.859-20.3698L68.6016-40.7978L73.2993-26.538L73.2993-58.1443Q73.2993-60.1574 71.8849-61.5835Q70.4706-63.0096 68.434-63.0096ZM70.1992 16.3144Q80.8095 16.3144 90.1622 12.2955Q99.5148 8.27669 106.611 1.14892Q113.708-5.97884 117.741-15.3003Q121.774-24.6218 121.774-35.2321Q121.774-45.8424 117.741-55.1639Q113.708-64.4854 106.611-71.6131Q99.5148-78.7409 90.1622-82.7597Q80.8095-86.7786 70.1992-86.7786Q59.6511-86.7786 50.3699-82.8026Q41.0886-78.8265 33.992-71.7845Q26.8955-64.7424 22.8312-55.4923Q18.7669-46.2421 18.6527-35.7174L31.506-35.7174Q31.6202-43.6867 34.6521-50.6201Q37.684-57.5535 42.969-62.7789Q48.254-68.0043 55.242-70.9648Q62.23-73.9253 70.1992-73.9253Q78.2541-73.9253 85.2732-70.922Q92.2922-67.9186 97.6176-62.6219Q102.943-57.3251 105.935-50.2918Q108.926-43.2584 108.926-35.2321Q108.926-27.2058 105.935-20.1724Q102.943-13.1391 97.6176-7.82799Q92.2922-2.51691 85.2732 0.486393Q78.2541 3.4897 70.1992 3.4897Q61.4188 3.46112 53.9981-0.134069Q46.5773-3.72925 41.1339-9.9939Q39.1135-12.0874 36.4892-12.5693Q33.8649-13.0512 31.6287-11.1502Q29.5923-9.44419 29.5102-6.77678Q29.4282-4.10937 31.6252-1.55391Q35.9636 3.76215 42.1798 7.78278Q48.396 11.8034 55.6218 14.0589Q62.8476 16.3144 70.1992 16.3144ZM13.0002-46.0977Q10.8523-46.0977 9.75891-45.029Q8.66553-43.9604 8.72266-42.3828Q8.77979-40.8052 9.93556-39.2338L23.3702-21.2661Q24.6507-19.5883 26.5272-19.5883Q28.4037-19.5883 29.6606-21.2661L43.0617-39.2573Q44.2225-40.8052 44.251-42.3685Q44.2796-43.9318 43.2148-45.0147Q42.15-46.0977 40.002-46.0977Z"/>
  </g>
  <g id="Semibold-M" transform="matrix(1 0 0 1 1978.74 1126)">
   <path d="M67.5942-63.3276Q65.6999-63.3276 64.3804-62.0057Q63.061-60.6839 63.061-58.8266L63.061-32.8116Q63.061-31.0323 64.3268-29.3406L75.7162-14.3448Q77.0751-12.519 78.9324-12.2158Q80.7898-11.9126 82.4687-13.0988Q84.0366-14.225 84.1778-16.0863Q84.319-17.9476 83.1139-19.5603L67.4939-40.5307L72.0952-26.493L72.0952-58.8266Q72.0952-60.6839 70.7883-62.0057Q69.4815-63.3276 67.5942-63.3276ZM69.3861 15.6586Q79.8456 15.6586 89.0817 11.6892Q98.3179 7.7198 105.333 0.673376Q112.348-6.37304 116.336-15.578Q120.324-24.783 120.324-35.2425Q120.324-45.702 116.336-54.907Q112.348-64.1119 105.333-71.1584Q98.3179-78.2048 89.0817-82.1742Q79.8456-86.1436 69.3861-86.1436Q58.9701-86.1436 49.7887-82.2014Q40.6073-78.2592 33.5921-71.2768Q26.5769-64.2943 22.5673-55.1346Q18.5576-45.975 18.485-35.57L29.6879-35.57Q29.7605-43.7727 32.8552-50.9178Q35.9499-58.0629 41.3793-63.4525Q46.8088-68.8421 53.9961-71.8914Q61.1834-74.9407 69.3861-74.9407Q77.6621-74.9407 84.8617-71.8642Q92.0613-68.7876 97.5239-63.3526Q102.986-57.9177 106.057-50.6996Q109.128-43.4815 109.128-35.2425Q109.128-27.0035 106.057-19.7854Q102.986-12.5673 97.5239-7.11379Q92.0613-1.66026 84.8617 1.41623Q77.6621 4.49272 69.3861 4.49272Q60.0157 4.45573 52.1023 0.470119Q44.1889-3.51549 38.6778-10.3449Q37.0006-12.2307 34.747-12.6862Q32.4935-13.1417 30.5169-11.582Q28.6674-10.1802 28.5039-7.83329Q28.3405-5.48633 30.1902-3.28402Q34.6539 2.35059 40.8847 6.61705Q47.1155 10.8835 54.4197 13.2711Q61.7238 15.6586 69.3861 15.6586ZM12.711-45.5872Q10.7148-45.5872 9.69118-44.6434Q8.66751-43.6997 8.72266-42.2737Q8.7778-40.8476 9.86389-39.3538L22.3837-22.2693Q23.6321-20.5983 25.3897-20.5983Q27.1473-20.5983 28.3845-22.2693L40.8792-39.3838Q41.9722-40.8665 41.9904-42.274Q42.0086-43.6815 41.0125-44.6344Q40.0164-45.5872 38.0202-45.5872Z"/>
  </g>
  <g id="Medium-M" transform="matrix(1 0 0 1 1682.58 1126)">
   <path d="M66.9574-63.5687Q65.1748-63.5687 63.9401-62.3259Q62.7053-61.0832 62.7053-59.3439L62.7053-32.7734Q62.7053-31.0688 63.9168-29.4453L75.5965-14.0698Q76.8827-12.3351 78.622-12.0512Q80.3612-11.7674 81.9679-12.8838Q83.4444-13.9305 83.5715-15.6629Q83.6986-17.3952 82.549-18.9466L66.6541-40.3283L71.1822-26.4589L71.1822-59.3439Q71.1822-61.0832 69.9569-62.3259Q68.7315-63.5687 66.9574-63.5687ZM68.7696 15.1614Q79.1147 15.1614 88.2625 11.2295Q97.4103 7.29754 104.364 0.312797Q111.317-6.67194 115.271-15.7886Q119.225-24.9053 119.225-35.2504Q119.225-45.5955 115.271-54.7121Q111.317-63.8288 104.364-70.8135Q97.4103-77.7983 88.2625-81.7302Q79.1147-85.6621 68.7696-85.6621Q58.4537-85.6621 49.3481-81.7456Q40.2424-77.8291 33.2889-70.8918Q26.3354-63.9545 22.3672-54.8635Q18.399-45.7724 18.3578-35.4582L28.3093-35.4582Q28.3504-43.8379 31.4928-51.1435Q34.6351-58.4492 40.174-63.9633Q45.7129-69.4774 53.0514-72.594Q60.3898-75.7106 68.7696-75.7106Q77.2132-75.7106 84.5497-72.5786Q91.8861-69.4465 97.4528-63.9067Q103.02-58.3669 106.151-51.0088Q109.282-43.6507 109.282-35.2504Q109.282-26.8501 106.151-19.4919Q103.02-12.1338 97.4528-6.57225Q91.8861-1.01071 84.5497 2.12127Q77.2132 5.25325 68.7696 5.25325Q58.9518 5.20989 50.6649 0.928239Q42.3779-3.35341 36.8154-10.6111Q35.3986-12.3394 33.4261-12.7749Q31.4536-13.2103 29.6739-11.9094Q27.9661-10.7384 27.7409-8.63437Q27.5157-6.53039 29.1021-4.59587Q33.6608 1.28029 39.9026 5.73316Q46.1445 10.186 53.5081 12.6737Q60.8718 15.1614 68.7696 15.1614ZM12.4917-45.2002Q10.6106-45.2002 9.63983-44.3511Q8.66902-43.502 8.72266-42.1909Q8.77629-40.8799 9.80955-39.4449L21.6356-23.0299Q22.8598-21.3642 24.5272-21.3642Q26.1947-21.3642 27.4169-23.0299L39.2244-39.4797Q40.266-40.9129 40.2763-42.2023Q40.2866-43.4917 39.3426-44.3459Q38.3986-45.2002 36.5175-45.2002Z"/>
  </g>
  <g id="Regular-M" transform="matrix(1 0 0 1 1386.59 1126)">
   <path d="M66.1268-63.8832Q64.4899-63.8832 63.3657-62.7435Q62.2414-61.6039 62.2414-60.0187L62.2414-32.7237Q62.2414-31.1163 63.382-29.5818L75.4403-13.7112Q76.6318-12.0952 78.2171-11.8366Q79.8023-11.5779 81.3146-12.6033Q82.6719-13.5464 82.7807-15.1106Q82.8894-16.6747 81.8121-18.146L65.5586-40.0641L69.9914-26.4144L69.9914-60.0187Q69.9914-61.6039 68.8723-62.7435Q67.7533-63.8832 66.1268-63.8832ZM67.9654 14.5128Q78.1613 14.5128 87.1939 10.6298Q96.2265 6.74677 103.1-0.157525Q109.973-7.06182 113.882-16.0633Q117.791-25.0648 117.791-35.2606Q117.791-45.4565 113.882-54.458Q109.973-63.4595 103.1-70.3638Q96.2265-77.2681 87.1939-81.1511Q78.1613-85.0341 67.9654-85.0341Q57.7802-85.0341 48.7733-81.1511Q39.7664-77.2681 32.8934-70.3897Q26.0203-63.5113 22.1061-54.5098Q18.192-45.5082 18.192-35.3123L26.5112-35.3123Q26.5112-43.923 29.7156-51.438Q32.9201-58.9529 38.6018-64.6295Q44.2836-70.306 51.8192-73.5104Q59.3548-76.7149 67.9654-76.7149Q76.6277-76.7149 84.1427-73.5104Q91.6577-70.306 97.3602-64.6295Q103.063-58.9529 106.272-51.4121Q109.482-43.8713 109.482-35.2606Q109.482-26.65 106.272-19.1092Q103.063-11.5683 97.3602-5.8659Q91.6577-0.163465 84.1427 3.04089Q76.6277 6.24524 67.9654 6.24524Q57.5641 6.19357 48.7899 1.52579Q40.0158-3.142 34.3863-10.9582Q33.3089-12.4812 31.7031-12.8905Q30.0972-13.2998 28.5743-12.3364Q27.0513-11.4663 26.7456-9.67927Q26.4399-7.89222 27.6829-6.30697Q32.3654-0.115752 38.6217 4.58024Q44.878 9.27624 52.3192 11.8945Q59.7603 14.5128 67.9654 14.5128ZM12.2057-44.6953Q10.4747-44.6953 9.57285-43.9697Q8.67099-43.2441 8.72266-42.083Q8.77432-40.9219 9.73866-39.5636L20.66-24.0221Q21.8524-22.3631 23.4023-22.3631Q24.9521-22.3631 26.1549-24.0221L37.0659-39.6048Q38.0405-40.9735 38.0405-42.1088Q38.0405-43.2441 37.1645-43.9697Q36.2885-44.6953 34.5575-44.6953Z"/>
  </g>
  <g id="Light-M" transform="matrix(1 0 0 1 1090.76 1126)">
   <path d="M65.1514-63.2159Q63.8911-63.2159 63.0149-62.35Q62.1388-61.484 62.1388-60.2581L62.1388-33.4593Q62.1388-32.0745 63.1083-30.7794L75.4231-14.5326Q76.3239-13.3271 77.5498-13.1541Q78.7757-12.9811 79.9114-13.7498Q80.9439-14.5046 81.0269-15.6752Q81.1099-16.8458 80.3062-17.9749L64.8741-38.5583L68.1092-28.6389L68.1092-60.2581Q68.1092-61.484 67.2468-62.35Q66.3843-63.2159 65.1514-63.2159ZM67.0414 13.6914Q77.1005 13.6914 85.979 9.87685Q94.8575 6.06227 101.611-0.722288Q108.364-7.50684 112.196-16.3542Q116.028-25.2016 116.028-35.2606Q116.028-45.3197 112.196-54.1671Q108.364-63.0144 101.611-69.799Q94.8575-76.5836 85.979-80.3981Q77.1005-84.2127 67.0414-84.2127Q57.0103-84.2127 48.1487-80.3981Q39.2872-76.5836 32.534-69.8164Q25.7808-63.0493 21.9351-54.2017Q18.0894-45.3541 18.0894-35.2951L24.4407-35.2951Q24.4407-44.1282 27.7393-51.8571Q31.0379-59.586 36.8907-65.4251Q42.7435-71.2642 50.4759-74.5628Q58.2083-77.8614 67.0414-77.8614Q75.909-77.8614 83.6379-74.5628Q91.3668-71.2642 97.2233-65.4251Q103.08-59.586 106.392-51.8399Q109.704-44.0938 109.704-35.2606Q109.704-26.4275 106.392-18.6814Q103.08-10.9353 97.2233-5.07877Q91.3668 0.777759 83.6379 4.07612Q75.909 7.37448 67.0414 7.37448Q55.9387 7.34006 46.6768 2.12476Q37.4149-3.09054 31.6486-11.6597Q30.8449-12.8233 29.6155-13.1386Q28.3861-13.4539 27.2225-12.747Q26.0589-12.0824 25.8132-10.7316Q25.5674-9.38082 26.5022-8.15492Q31.0993-1.72423 37.347 3.21139Q43.5947 8.147 51.13 10.9192Q58.6653 13.6914 67.0414 13.6914ZM11.5896-44.2333Q10.1838-44.2333 9.436-43.6446Q8.68824-43.0558 8.72266-42.083Q8.75708-41.1102 9.56761-39.9741L20.2149-24.792Q21.2194-23.3727 22.504-23.3727Q23.7887-23.3727 24.8201-24.792L35.4404-39.9811Q36.2779-41.1446 36.2779-42.1002Q36.2779-43.0558 35.5474-43.6446Q34.8168-44.2333 33.411-44.2333Z"/>
  </g>
  <g id="Thin-M" transform="matrix(1 0 0 1 795.212 1126)">
   <path d="M63.8613-62.3334Q63.0991-62.3334 62.5511-61.8295Q62.003-61.3255 62.003-60.5749L62.003-34.4323Q62.003-33.3418 62.7464-32.3634L75.4003-15.6189Q75.9167-14.9564 76.6673-14.8966Q77.4179-14.8369 78.0556-15.2662Q78.6583-15.7719 78.7073-16.4219Q78.7563-17.072 78.3146-17.7487L63.9688-36.5667L65.6199-31.5811L65.6199-60.5749Q65.6199-61.3255 65.0968-61.8295Q64.5737-62.3334 63.8613-62.3334ZM65.8194 12.6051Q75.6975 12.6051 84.3722 8.88105Q93.0469 5.15696 99.642-1.46923Q106.237-8.09543 109.967-16.739Q113.697-25.3826 113.697-35.2606Q113.697-45.1387 109.967-53.7823Q106.237-62.4259 99.642-69.0521Q93.0469-75.6782 84.3722-79.4023Q75.6975-83.1264 65.8194-83.1264Q55.992-83.1264 47.3227-79.4023Q38.6533-75.6782 32.0587-69.0583Q25.4641-62.4383 21.7089-53.7943Q17.9536-45.1503 17.9536-35.2723L21.7024-35.2723Q21.7024-44.3997 25.1255-52.4115Q28.5486-60.4232 34.6276-66.4773Q40.7067-72.5314 48.6993-75.9546Q56.692-79.3777 65.8194-79.3777Q74.9585-79.3777 82.9702-75.9546Q90.982-72.5314 97.0423-66.4773Q103.103-60.4232 106.551-52.4057Q109.999-44.3881 109.999-35.2606Q109.999-26.1332 106.551-18.1156Q103.103-10.0981 97.0423-4.03773Q90.982 2.0226 82.9702 5.4453Q74.9585 8.86799 65.8194 8.86799Q53.7889 8.85639 43.882 2.91695Q33.975-3.02248 28.0277-12.5874Q27.586-13.2757 26.8545-13.4667Q26.123-13.6577 25.4347-13.2899Q24.7464-12.8972 24.5799-12.1234Q24.4134-11.3496 24.9406-10.599Q29.4248-3.85157 35.6611 1.40096Q41.8974 6.65349 49.5572 9.62932Q57.217 12.6051 65.8194 12.6051ZM10.7748-43.6223Q9.79899-43.6223 9.25502-43.2145Q8.71105-42.8068 8.72266-42.083Q8.73426-41.3592 9.34138-40.5171L19.6264-25.8102Q20.3821-24.7081 21.316-24.7081Q22.2499-24.7081 23.0547-25.8102L33.2907-40.4788Q33.9468-41.3708 33.9468-42.0888Q33.9468-42.8068 33.4086-43.2145Q32.8705-43.6223 31.8947-43.6223Z"/>
  </g>
  <g id="Ultralight-M" transform="matrix(1 0 0 1 499.098 1126)">
   <path d="M63.2005-61.8814Q62.6934-61.8814 62.3135-61.5628Q61.9335-61.2443 61.9335-60.7371L61.9335-34.9307Q61.9335-33.9909 62.561-33.1747L75.3886-16.1753Q75.7081-15.7909 76.2153-15.7892Q76.7225-15.7875 77.105-16.0428Q77.4877-16.421 77.5193-16.8044Q77.5508-17.1879 77.2946-17.6328L63.5051-35.5466L64.3449-33.0881L64.3449-60.7371Q64.3449-61.2443 63.9956-61.5628Q63.6463-61.8814 63.2005-61.8814ZM65.1935 12.0487Q74.9789 12.0487 83.5492 8.37101Q92.1195 4.69327 98.6335-1.85181Q105.147-8.39689 108.825-16.9361Q112.503-25.4753 112.503-35.2606Q112.503-45.046 108.825-53.5852Q105.147-62.1244 98.6335-68.6695Q92.1195-75.2146 83.5492-78.8923Q74.9789-82.57 65.1935-82.57Q55.4705-82.57 46.8996-78.8923Q38.3287-75.2146 31.8153-68.67Q25.3019-62.1254 21.593-53.5856Q17.8841-45.0459 17.8841-35.2606L20.2998-35.2606Q20.2998-44.5387 23.7867-52.6954Q27.2736-60.8521 33.4685-67.0163Q39.6634-73.1805 47.7894-76.6674Q55.9153-80.1543 65.1935-80.1543Q74.4716-80.1543 82.6282-76.6674Q90.7849-73.1805 96.9496-67.0163Q103.114-60.8521 106.632-52.6954Q110.149-44.5388 110.149-35.2606Q110.149-25.9825 106.632-17.8258Q103.114-9.66922 96.9496-3.50451Q90.7849 2.66021 82.6282 6.14658Q74.4716 9.63296 65.1935 9.63296Q52.6878 9.63304 42.4505 3.32271Q32.2132-2.98762 26.1731-13.0626Q25.9169-13.5075 25.4404-13.6348Q24.9639-13.7621 24.519-13.568Q24.0742-13.3146 23.9483-12.8363Q23.8224-12.358 24.1408-11.8508Q28.5672-4.94118 34.7976 0.473673Q41.028 5.88852 48.7516 8.96864Q56.4752 12.0487 65.1935 12.0487ZM10.3574-43.3093Q9.6019-43.3093 9.16232-42.9943Q8.72273-42.6792 8.72266-42.083Q8.72258-41.4868 9.22551-40.7952L19.3249-26.3317Q19.9533-25.392 20.7075-25.392Q21.4618-25.392 22.1505-26.3317L32.1896-40.7338Q32.7528-41.4867 32.7528-42.083Q32.7528-42.6792 32.3132-42.9943Q31.8736-43.3093 31.118-43.3093Z"/>
  </g>
  <g id="Black-S" transform="matrix(1 0 0 1 2880.47 696)">
   <path d="M55.7129-56.1523Q53.7598-56.1523 52.3682-54.7852Q50.9766-53.418 50.9766-51.4648L50.9766-33.5449Q50.9766-31.8359 52.1973-30.2246L59.8633-20.1172Q61.2305-18.3105 63.1836-17.9932Q65.1367-17.6758 66.748-18.8965Q68.3594-20.1172 68.5303-22.1191Q68.7012-24.1211 67.5293-25.6348L56.543-40.1855L60.4004-28.6621L60.4004-51.4648Q60.4004-53.418 59.0332-54.7852Q57.666-56.1523 55.7129-56.1523ZM57.0312 6.78711Q65.7227 6.78711 73.3398 3.51562Q80.957 0.244141 86.7188-5.54199Q92.4805-11.3281 95.752-18.9209Q99.0234-26.5137 99.0234-35.2051Q99.0234-43.8965 95.752-51.4893Q92.4805-59.082 86.7188-64.8682Q80.957-70.6543 73.3398-73.9258Q65.7227-77.1973 57.0312-77.1973Q48.4375-77.1973 40.918-73.999Q33.3984-70.8008 27.6367-65.1367Q21.875-59.4727 18.5547-52.002Q15.2344-44.5312 15.0391-35.9863L29.1992-35.9863Q29.3945-41.6504 31.6162-46.5576Q33.8379-51.4648 37.6221-55.1514Q41.4062-58.8379 46.3867-60.9375Q51.3672-63.0371 57.0312-63.0371Q62.793-63.0371 67.8467-60.8643Q72.9004-58.6914 76.7334-54.8828Q80.5664-51.0742 82.7148-46.0205Q84.8633-40.9668 84.8633-35.2051Q84.8633-29.4434 82.7148-24.3896Q80.5664-19.3359 76.7334-15.5273Q72.9004-11.7188 67.8467-9.5459Q62.793-7.37305 57.0312-7.37305Q51.6113-7.37305 47.0215-9.22852Q42.4316-11.084 38.3301-14.5996Q35.8887-16.748 32.9102-17.1875Q29.9316-17.627 27.5391-15.2832Q25.4883-13.1836 25.6348-10.3027Q25.7812-7.42188 28.3691-4.54102Q31.4453-1.17188 36.2793 1.36719Q41.1133 3.90625 46.582 5.34668Q52.0508 6.78711 57.0312 6.78711ZM10.8887-45.0195Q8.83789-45.0195 7.8125-43.8721Q6.78711-42.7246 6.83594-41.1133Q6.88477-39.502 7.95898-38.0859L20.8008-21.7773Q21.875-20.459 23.6328-20.459Q25.3906-20.459 26.416-21.7773L39.209-38.0859Q40.2832-39.4531 40.332-41.0645Q40.3809-42.6758 39.3799-43.8477Q38.3789-45.0195 36.3281-45.0195Z"/>
  </g>
  <g id="Heavy-S" transform="matrix(1 0 0 1 2584.45 696)">
   <path d="M54.9062-56.5903Q53.0683-56.5903 51.7689-55.3038Q50.4695-54.0172 50.4695-52.1909L50.4695-33.3951Q50.4695-31.7668 51.6326-30.2246L59.6904-19.6101Q60.9885-17.8841 62.8148-17.584Q64.6412-17.2839 66.1949-18.4355Q67.714-19.564 67.8676-21.4277Q68.0212-23.2913 66.8955-24.7589L55.402-40.0818L59.3056-28.3279L59.3056-52.1909Q59.3056-54.0172 58.0248-55.3038Q56.7441-56.5903 54.9062-56.5903ZM56.2476 6.16479Q64.7892 6.16479 72.2969 2.9394Q79.8046-0.285985 85.4914-5.99721Q91.1782-11.7084 94.4094-19.1917Q97.6405-26.675 97.6405-35.2166Q97.6405-43.7582 94.4094-51.2415Q91.1782-58.7248 85.4914-64.436Q79.8046-70.1472 72.2969-73.3726Q64.7892-76.598 56.2476-76.598Q47.7806-76.598 40.3533-73.4286Q32.9259-70.2591 27.2391-64.6469Q21.5523-59.0347 18.2839-51.6447Q15.0154-44.2547 14.8662-35.825L27.4475-35.825Q27.5967-41.7195 29.876-46.8342Q32.1553-51.9489 36.0778-55.7967Q40.0003-59.6446 45.1766-61.8306Q50.353-64.0167 56.2476-64.0167Q62.2283-64.0167 67.4548-61.7747Q72.6814-59.5327 76.647-55.5916Q80.6125-51.6504 82.8359-46.4181Q85.0592-41.1858 85.0592-35.2166Q85.0592-29.2474 82.8359-24.0151Q80.6125-18.7828 76.647-14.8359Q72.6814-10.889 67.4548-8.64699Q62.2283-6.40499 56.2476-6.40499Q50.263-6.41652 45.1891-8.63501Q40.1152-10.8535 35.956-14.8992Q33.8604-16.8633 31.2449-17.2855Q28.6294-17.7076 26.4788-15.7096Q24.5894-13.9212 24.6379-11.3399Q24.6864-8.75871 26.9286-6.22359Q30.1546-2.53176 35.0058 0.249314Q39.8571 3.03039 45.4008 4.59759Q50.9444 6.16479 56.2476 6.16479ZM10.6467-44.5125Q8.72265-44.5125 7.75488-43.486Q6.78711-42.4595 6.83594-40.9923Q6.88477-39.525 7.90136-38.1666L19.7636-22.7915Q20.8263-21.4501 22.4861-21.4501Q24.146-21.4501 25.1714-22.7915L36.9963-38.1781Q38.0129-39.4992 38.0502-40.9607Q38.0875-42.4222 37.1441-43.4673Q36.2008-44.5125 34.2768-44.5125Z"/>
  </g>
  <g id="Bold-S" transform="matrix(1 0 0 1 2288.51 696)">
   <path d="M54.0039-57.0801Q52.2949-57.0801 51.0986-55.8838Q49.9023-54.6875 49.9023-53.0029L49.9023-33.2275Q49.9023-31.6895 51.001-30.2246L59.4971-19.043Q60.7178-17.4072 62.4023-17.1265Q64.0869-16.8457 65.5762-17.9199Q66.9922-18.9453 67.1265-20.6543Q67.2607-22.3633 66.1865-23.7793L54.126-39.9658L58.0811-27.9541L58.0811-53.0029Q58.0811-54.6875 56.897-55.8838Q55.7129-57.0801 54.0039-57.0801ZM55.3711 5.46875Q63.7451 5.46875 71.1304 2.29492Q78.5156-0.878906 84.1187-6.50635Q89.7217-12.1338 92.9077-19.4946Q96.0938-26.8555 96.0938-35.2295Q96.0938-43.6035 92.9077-50.9644Q89.7217-58.3252 84.1187-63.9526Q78.5156-69.5801 71.1304-72.7539Q63.7451-75.9277 55.3711-75.9277Q47.0459-75.9277 39.7217-72.7905Q32.3975-69.6533 26.7944-64.0991Q21.1914-58.5449 17.981-51.2451Q14.7705-43.9453 14.6729-35.6445L25.4883-35.6445Q25.5859-41.7969 27.9297-47.1436Q30.2734-52.4902 34.3506-56.5186Q38.4277-60.5469 43.8232-62.8296Q49.2188-65.1123 55.3711-65.1123Q61.5967-65.1123 67.0166-62.793Q72.4365-60.4736 76.5503-56.3843Q80.6641-52.2949 82.9712-46.8628Q85.2783-41.4307 85.2783-35.2295Q85.2783-29.0283 82.9712-23.5962Q80.6641-18.1641 76.5503-14.0625Q72.4365-9.96094 67.0166-7.6416Q61.5967-5.32227 55.3711-5.32227Q48.7549-5.34668 43.1396-7.97119Q37.5244-10.5957 33.3008-15.2344Q31.5918-16.9922 29.3823-17.395Q27.1729-17.7979 25.293-16.1865Q23.584-14.7461 23.5229-12.5Q23.4619-10.2539 25.3174-8.10547Q28.7109-4.05273 33.5815-1.00098Q38.4521 2.05078 44.0796 3.75977Q49.707 5.46875 55.3711 5.46875ZM10.376-43.9453Q8.59375-43.9453 7.69043-43.0542Q6.78711-42.1631 6.83594-40.8569Q6.88477-39.5508 7.83691-38.2568L18.6035-23.9258Q19.6533-22.5586 21.2036-22.5586Q22.7539-22.5586 23.7793-23.9258L34.5215-38.2812Q35.4736-39.5508 35.498-40.8447Q35.5225-42.1387 34.6436-43.042Q33.7646-43.9453 31.9824-43.9453Z"/>
  </g>
  <g id="Semibold-S" transform="matrix(1 0 0 1 1992.34 696)">
   <path d="M53.3818-57.4178Q51.7617-57.4178 50.6365-56.2837Q49.5113-55.1496 49.5113-53.5628L49.5113-33.112Q49.5113-31.6361 50.5655-30.2246L59.3638-18.652Q60.5312-17.0784 62.118-16.811Q63.7048-16.5436 65.1496-17.5645Q66.4945-18.5188 66.6155-20.1211Q66.7364-21.7234 65.6978-23.1039L53.2462-39.8858L57.2368-27.6964L57.2368-53.5628Q57.2368-55.1496 56.1194-56.2837Q55.002-57.4178 53.3818-57.4178ZM54.7668 4.98887Q63.0253 4.98887 70.3261 1.85059Q77.627-1.2877 83.1722-6.85737Q88.7175-12.4271 91.8724-19.7035Q95.0273-26.9799 95.0273-35.2384Q95.0273-43.4969 91.8724-50.7733Q88.7175-58.0497 83.1722-63.6194Q77.627-69.1891 70.3261-72.3273Q63.0253-75.4656 54.7668-75.4656Q46.5394-75.4656 39.2862-72.3506Q32.0331-69.2356 26.4878-63.7214Q20.9426-58.2072 17.7721-50.9696Q14.6017-43.732 14.5396-35.5201L24.1375-35.5201Q24.1996-41.8502 26.5878-47.3568Q28.976-52.8635 33.1598-57.0162Q37.3436-61.1689 42.8901-63.5183Q48.4367-65.8677 54.7668-65.8677Q61.1612-65.8677 66.7145-63.495Q72.2677-61.1224 76.4836-56.9308Q80.6996-52.7393 83.0645-47.1694Q85.4294-41.5995 85.4294-35.2384Q85.4294-28.8772 83.0645-23.3074Q80.6996-17.7375 76.4836-13.5293Q72.2677-9.32109 66.7145-6.94844Q61.1612-4.57578 54.7668-4.57578Q47.7151-4.60908 41.7267-7.51353Q35.7382-10.418 31.4701-15.4654Q30.0277-17.0811 28.0982-17.4706Q26.1687-17.8601 24.4754-16.5153Q22.8908-15.3148 22.7542-13.2998Q22.6177-11.2848 24.2065-9.40293Q27.7156-5.10137 32.5996-1.86299Q37.4835 1.37539 43.1687 3.18213Q48.8539 4.98887 54.7668 4.98887ZM10.1894-43.5543Q8.50488-43.5543 7.646-42.7565Q6.78711-41.9587 6.83594-40.7636Q6.88477-39.5686 7.79248-38.319L17.8037-24.7078Q18.8446-23.3229 20.3194-23.3229Q21.7941-23.3229 22.8195-24.7078L32.8152-38.3523Q33.7229-39.5863 33.7385-40.7647Q33.754-41.9432 32.9195-42.7487Q32.0851-43.5543 30.4006-43.5543Z"/>
  </g>
  <g id="Medium-S" transform="matrix(1 0 0 1 1696.03 696)">
   <path d="M52.9102-57.6738Q51.3574-57.6738 50.2861-56.5869Q49.2148-55.5 49.2148-53.9873L49.2148-33.0244Q49.2148-31.5957 50.2354-30.2246L59.2627-18.3555Q60.3896-16.8291 61.9023-16.5718Q63.415-16.3145 64.8262-17.2949Q66.1172-18.1953 66.228-19.7168Q66.3389-21.2383 65.3271-22.5918L52.5791-39.8252L56.5967-27.501L56.5967-53.9873Q56.5967-55.5 55.5298-56.5869Q54.4629-57.6738 52.9102-57.6738ZM54.3086 4.625Q62.4795 4.625 69.7163 1.51367Q76.9531-1.59766 82.4546-7.12354Q87.9561-12.6494 91.0874-19.8618Q94.2188-27.0742 94.2188-35.2451Q94.2188-43.416 91.0874-50.6284Q87.9561-57.8408 82.4546-63.3667Q76.9531-68.8926 69.7163-72.0039Q62.4795-75.1152 54.3086-75.1152Q46.1553-75.1152 38.9561-72.0171Q31.7568-68.9189 26.2554-63.4351Q20.7539-57.9512 17.6138-50.7607Q14.4736-43.5703 14.4385-35.4258L23.1133-35.4258Q23.1484-41.8906 25.5703-47.5186Q27.9922-53.1465 32.2568-57.3936Q36.5215-61.6406 42.1826-64.0405Q47.8438-66.4404 54.3086-66.4404Q60.8311-66.4404 66.4854-64.0273Q72.1396-61.6143 76.4331-57.3452Q80.7266-53.0762 83.1353-47.4019Q85.5439-41.7275 85.5439-35.2451Q85.5439-28.7627 83.1353-23.0884Q80.7266-17.4141 76.4331-13.125Q72.1396-8.83594 66.4854-6.42285Q60.8311-4.00977 54.3086-4.00977Q46.9268-4.0498 40.6553-7.1665Q34.3838-10.2832 30.082-15.6406Q28.8418-17.1484 27.1245-17.5278Q25.4072-17.9072 23.8555-16.7646Q22.3652-15.7461 22.1714-13.9062Q21.9775-12.0664 23.3643-10.3867Q26.9609-5.89648 31.855-2.5166Q36.749 0.863281 42.478 2.74414Q48.207 4.625 54.3086 4.625ZM10.0479-43.2578Q8.4375-43.2578 7.6123-42.5308Q6.78711-41.8037 6.83594-40.6929Q6.88477-39.582 7.75879-38.3662L17.1973-25.3008Q18.2314-23.9023 19.6489-23.9023Q21.0664-23.9023 22.0918-25.3008L31.5215-38.4062Q32.3955-39.6133 32.4043-40.7041Q32.4131-41.7949 31.6123-42.5264Q30.8115-43.2578 29.2012-43.2578Z"/>
  </g>
  <g id="Regular-S" transform="matrix(1 0 0 1 1399.84 696)">
   <path d="M52.2949-58.0078Q50.8301-58.0078 49.8291-56.9824Q48.8281-55.957 48.8281-54.541L48.8281-32.9102Q48.8281-31.543 49.8047-30.2246L59.1309-17.9688Q60.2051-16.5039 61.6211-16.2598Q63.0371-16.0156 64.4043-16.9434Q65.625-17.7734 65.7227-19.1895Q65.8203-20.6055 64.8438-21.9238L51.709-39.7461L55.7617-27.2461L55.7617-54.541Q55.7617-55.957 54.7607-56.9824Q53.7598-58.0078 52.2949-58.0078ZM53.7109 4.15039Q61.7676 4.15039 68.9209 1.07422Q76.0742-2.00195 81.5186-7.4707Q86.9629-12.9395 90.0635-20.0684Q93.1641-27.1973 93.1641-35.2539Q93.1641-43.3105 90.0635-50.4395Q86.9629-57.5684 81.5186-63.0371Q76.0742-68.5059 68.9209-71.582Q61.7676-74.6582 53.7109-74.6582Q45.6543-74.6582 38.5254-71.582Q31.3965-68.5059 25.9521-63.0615Q20.5078-57.6172 17.4072-50.4883Q14.3066-43.3594 14.3066-35.3027L21.7773-35.3027Q21.7773-41.9434 24.2432-47.7295Q26.709-53.5156 31.0791-57.8857Q35.4492-62.2559 41.2598-64.7217Q47.0703-67.1875 53.7109-67.1875Q60.4004-67.1875 66.1865-64.7217Q71.9727-62.2559 76.3672-57.8857Q80.7617-53.5156 83.2275-47.7051Q85.6934-41.8945 85.6934-35.2539Q85.6934-28.6133 83.2275-22.8027Q80.7617-16.9922 76.3672-12.5977Q71.9727-8.20312 66.1865-5.7373Q60.4004-3.27148 53.7109-3.27148Q45.8984-3.32031 39.2578-6.71387Q32.6172-10.1074 28.2715-15.8691Q27.2949-17.2363 25.8545-17.6025Q24.4141-17.9688 23.0469-17.0898Q21.6797-16.3086 21.4111-14.6973Q21.1426-13.0859 22.2656-11.6699Q25.9766-6.93359 30.8838-3.36914Q35.791 0.195312 41.5771 2.17285Q47.3633 4.15039 53.7109 4.15039ZM9.86328-42.8711Q8.34961-42.8711 7.56836-42.2363Q6.78711-41.6016 6.83594-40.6006Q6.88477-39.5996 7.71484-38.4277L16.4062-26.0742Q17.4316-24.6582 18.7744-24.6582Q20.1172-24.6582 21.1426-26.0742L29.834-38.4766Q30.6641-39.6484 30.6641-40.625Q30.6641-41.6016 29.9072-42.2363Q29.1504-42.8711 27.6367-42.8711Z"/>
  </g>
  <g id="Light-S" transform="matrix(1 0 0 1 1103.91 696)">
   <path d="M51.432-57.4176Q50.3003-57.4176 49.5188-56.6343Q48.7373-55.851 48.7373-54.7529L48.7373-33.5609Q48.7373-32.3906 49.5626-31.2841L59.1156-18.6953Q59.9327-17.5936 61.0308-17.4253Q62.129-17.2569 63.163-17.9576Q64.0963-18.6211 64.1712-19.6889Q64.2461-20.7568 63.5117-21.7725L51.1035-38.414L54.0967-29.214L54.0967-54.7529Q54.0967-55.851 53.3227-56.6343Q52.5487-57.4176 51.432-57.4176ZM52.8936 3.42382Q60.8292 3.42382 67.8462 0.408173Q74.8632-2.60747 80.2016-7.9703Q85.54-13.3331 88.5724-20.3257Q91.6049-27.3183 91.6049-35.2539Q91.6049-43.1895 88.5724-50.1821Q85.54-57.1747 80.2016-62.5375Q74.8632-67.9003 67.8462-70.916Q60.8292-73.9316 52.8936-73.9316Q44.9732-73.9316 37.9729-70.916Q30.9725-67.9003 25.6343-62.5544Q20.296-57.2085 17.2559-50.2158Q14.2159-43.2231 14.2159-35.2875L19.9458-35.2875Q19.9458-42.1249 22.4949-48.1003Q25.044-54.0756 29.5654-58.5896Q34.0869-63.1035 40.0715-65.6526Q46.0561-68.2017 52.8936-68.2017Q59.7646-68.2017 65.7399-65.6526Q71.7153-63.1035 76.2461-58.5896Q80.777-54.0756 83.3336-48.0835Q85.8902-42.0914 85.8902-35.2539Q85.8902-28.4164 83.3336-22.4243Q80.777-16.4322 76.2461-11.9013Q71.7153-7.3705 65.7399-4.82152Q59.7646-2.27254 52.8936-2.27254Q44.4606-2.30611 37.3885-6.18401Q30.3164-10.0619 25.8497-16.4897Q25.1152-17.539 24.0078-17.822Q22.9004-18.1051 21.8511-17.453Q20.8018-16.8536 20.5863-15.6282Q20.3707-14.4028 21.2212-13.3046Q24.8566-8.35648 29.7562-4.58005Q34.6558-0.80363 40.5252 1.31009Q46.3946 3.42382 52.8936 3.42382ZM9.31829-42.4624Q8.09224-42.4624 7.44731-41.9487Q6.80237-41.435 6.83594-40.6006Q6.86951-39.7662 7.56353-38.7909L16.0126-26.7553Q16.8716-25.5514 17.9798-25.5514Q19.088-25.5514 19.9618-26.7553L28.3961-38.8095Q29.1049-39.7998 29.1049-40.6174Q29.1049-41.435 28.4767-41.9487Q27.8486-42.4624 26.6225-42.4624Z"/>
  </g>
  <g id="Thin-S" transform="matrix(1 0 0 1 808.233 696)">
   <path d="M50.2908-56.6369Q49.5997-56.6369 49.1085-56.1738Q48.6173-55.7107 48.6173-55.033L48.6173-34.4217Q48.6173-33.5116 49.2424-32.6853L59.0954-19.6563Q59.5725-19.0349 60.2502-18.9668Q60.9279-18.8987 61.5213-19.2989Q62.0745-19.7421 62.1193-20.3495Q62.1641-20.9569 61.7499-21.5724L50.3026-36.6522L51.8946-31.8166L51.8946-55.033Q51.8946-55.7107 51.4208-56.1738Q50.947-56.6369 50.2908-56.6369ZM51.8125 2.46287Q59.588 2.46287 66.4248-0.472727Q73.2615-3.40832 78.4598-8.63106Q83.6581-13.8538 86.6004-20.6661Q89.5427-27.4784 89.5427-35.2539Q89.5427-43.0294 86.6004-49.8417Q83.6581-56.654 78.4598-61.8768Q73.2615-67.0995 66.4248-70.0351Q59.588-72.9707 51.8125-72.9707Q44.0725-72.9707 37.2422-70.0351Q30.4118-67.0995 25.2138-61.8837Q20.0158-56.668 17.0558-49.8554Q14.0958-43.0428 14.0958-35.2673L17.5234-35.2673Q17.5234-42.3651 20.1827-48.5907Q22.8419-54.8163 27.5635-59.5204Q32.285-64.2245 38.4999-66.8838Q44.7147-69.5431 51.8125-69.5431Q58.9237-69.5431 65.1493-66.8838Q71.3749-64.2245 76.086-59.5204Q80.7972-54.8163 83.4738-48.584Q86.1505-42.3517 86.1505-35.2539Q86.1505-28.1561 83.4738-21.9238Q80.7972-15.6915 76.086-10.9804Q71.3749-6.26929 65.1493-3.61033Q58.9237-0.951361 51.8125-0.951361Q42.5588-0.964749 34.9161-5.48322Q27.2735-10.0017 22.6466-17.3104Q22.2324-17.9392 21.5654-18.1123Q20.8984-18.2853 20.2696-17.9333Q19.6407-17.5744 19.4953-16.8594Q19.3499-16.1444 19.8398-15.4667Q23.3753-10.2384 28.2648-6.18158Q33.1543-2.12481 39.1339 0.169028Q45.1134 2.46287 51.8125 2.46287ZM8.59749-41.9219Q7.75186-41.9219 7.2872-41.5683Q6.82255-41.2147 6.83594-40.6006Q6.84933-39.9865 7.3634-39.2712L15.4919-27.656Q16.131-26.7326 16.9289-26.7326Q17.7268-26.7326 18.4001-27.656L26.4944-39.2497Q27.0427-39.9999 27.0427-40.6073Q27.0427-41.2147 26.5847-41.5683Q26.1268-41.9219 25.2812-41.9219Z"/>
  </g>
  <g id="Ultralight-S" transform="matrix(1 0 0 1 512.05 696)">
   <path d="M49.7063-56.237Q49.2409-56.237 48.8983-55.938Q48.5558-55.6389 48.5558-55.1765L48.5558-34.8625Q48.5558-34.0858 49.0784-33.403L59.0851-20.1485Q59.388-19.7731 59.8503-19.7563Q60.3127-19.7395 60.6804-19.986Q61.039-20.3163 61.0683-20.6879Q61.0977-21.0594 60.8475-21.4699L49.8924-35.7498L50.7668-33.1497L50.7668-55.1765Q50.7668-55.6389 50.4467-55.938Q50.1266-56.237 49.7063-56.237ZM51.2589 1.97067Q58.9523 1.97067 65.6967-0.92392Q72.4411-3.81851 77.5677-8.9695Q82.6942-14.1205 85.5904-20.8405Q88.4865-27.5604 88.4865-35.2539Q88.4865-42.9474 85.5904-49.6674Q82.6942-56.3873 77.5677-61.5383Q72.4411-66.6893 65.6967-69.5839Q58.9523-72.4785 51.2589-72.4785Q43.6111-72.4785 36.8679-69.5839Q30.1247-66.6893 24.9985-61.5402Q19.8723-56.3911 16.9533-49.6708Q14.0343-42.9504 14.0343-35.257L16.2827-35.257Q16.2827-42.4881 18.9983-48.8419Q21.714-55.1956 26.5381-59.9972Q31.3622-64.7987 37.6949-67.5144Q44.0277-70.2301 51.2589-70.2301Q58.493-70.2301 64.8468-67.5144Q71.2006-64.7987 76.004-59.9972Q80.8075-55.1956 83.5457-48.8403Q86.2839-42.485 86.2839-35.2539Q86.2839-28.0228 83.5457-21.6675Q80.8075-15.3122 76.004-10.5087Q71.2006-5.70526 64.8468-2.98996Q58.493-0.274658 51.2589-0.274658Q41.5848-0.27771 33.6498-5.12428Q25.7149-9.97086 21.006-17.7307Q20.7558-18.1442 20.3144-18.261Q19.873-18.3777 19.4595-18.1793Q19.046-17.9436 18.9365-17.49Q18.8271-17.0364 19.1322-16.5741Q22.6166-11.2022 27.5009-7.00188Q32.3853-2.80151 38.4212-0.415421Q44.4572 1.97067 51.2589 1.97067ZM8.2283-41.6451Q7.57751-41.6451 7.2052-41.3734Q6.83289-41.1018 6.83594-40.6006Q6.83899-40.0993 7.26089-39.5172L15.2252-28.1174Q15.7516-27.3376 16.3906-27.3376Q17.0296-27.3376 17.6003-28.1174L25.5203-39.4753Q25.9865-40.1024 25.9865-40.6021Q25.9865-41.1018 25.6157-41.3734Q25.2449-41.6451 24.5941-41.6451Z"/>
  </g>
 </g>
</svg>
