<?xml version="1.0" encoding="UTF-8"?>
<!--Generator: Apple Native CoreSVG 175-->
<!DOCTYPE svg
PUBLIC "-//W3C//DTD SVG 1.1//EN"
       "http://www.w3.org/Graphics/SVG/1.1/DTD/svg11.dtd">
<svg version="1.1" xmlns="http://www.w3.org/2000/svg" xmlns:xlink="http://www.w3.org/1999/xlink" width="3300" height="2200">
 <!--glyph: "uni10025E.medium", point size: 100.0, font version: "17.3d3e1", template writer version: "65.1"-->
 <g id="Notes">
  <rect height="2200" id="artboard" style="fill:white;opacity:1" width="3300" x="0" y="0"/>
  <line style="fill:none;stroke:black;opacity:1;stroke-width:0.5;" x1="263" x2="3036" y1="292" y2="292"/>
  <text style="stroke:none;fill:black;font-family:sans-serif;font-size:13;font-weight:bold;" transform="matrix(1 0 0 1 263 322)">Weight/Scale Variations</text>
  <text style="stroke:none;fill:black;font-family:sans-serif;font-size:13;text-anchor:middle;" transform="matrix(1 0 0 1 559.711 322)">Ultralight</text>
  <text style="stroke:none;fill:black;font-family:sans-serif;font-size:13;text-anchor:middle;" transform="matrix(1 0 0 1 856.422 322)">Thin</text>
  <text style="stroke:none;fill:black;font-family:sans-serif;font-size:13;text-anchor:middle;" transform="matrix(1 0 0 1 1153.13 322)">Light</text>
  <text style="stroke:none;fill:black;font-family:sans-serif;font-size:13;text-anchor:middle;" transform="matrix(1 0 0 1 1449.84 322)">Regular</text>
  <text style="stroke:none;fill:black;font-family:sans-serif;font-size:13;text-anchor:middle;" transform="matrix(1 0 0 1 1746.56 322)">Medium</text>
  <text style="stroke:none;fill:black;font-family:sans-serif;font-size:13;text-anchor:middle;" transform="matrix(1 0 0 1 2043.27 322)">Semibold</text>
  <text style="stroke:none;fill:black;font-family:sans-serif;font-size:13;text-anchor:middle;" transform="matrix(1 0 0 1 2339.98 322)">Bold</text>
  <text style="stroke:none;fill:black;font-family:sans-serif;font-size:13;text-anchor:middle;" transform="matrix(1 0 0 1 2636.69 322)">Heavy</text>
  <text style="stroke:none;fill:black;font-family:sans-serif;font-size:13;text-anchor:middle;" transform="matrix(1 0 0 1 2933.4 322)">Black</text>
  <line style="fill:none;stroke:black;opacity:1;stroke-width:0.5;" x1="263" x2="3036" y1="1903" y2="1903"/>
  <g transform="matrix(1 0 0 1 263 1933)">
   <path d="M9.24805 0.830078Q10.8691 0.830078 12.2949 0.214844Q13.7207-0.400391 14.8096-1.49414Q15.8984-2.58789 16.5186-4.01367Q17.1387-5.43945 17.1387-7.05078Q17.1387-8.66211 16.5186-10.0879Q15.8984-11.5137 14.8047-12.6074Q13.7109-13.7012 12.2852-14.3164Q10.8594-14.9316 9.23828-14.9316Q7.62695-14.9316 6.20117-14.3164Q4.77539-13.7012 3.69141-12.6074Q2.60742-11.5137 1.9873-10.0879Q1.36719-8.66211 1.36719-7.05078Q1.36719-5.43945 1.9873-4.01367Q2.60742-2.58789 3.69629-1.49414Q4.78516-0.400391 6.21094 0.214844Q7.63672 0.830078 9.24805 0.830078ZM9.24805-0.654297Q7.91992-0.654297 6.7627-1.14746Q5.60547-1.64062 4.73145-2.51953Q3.85742-3.39844 3.36426-4.56055Q2.87109-5.72266 2.87109-7.05078Q2.87109-8.37891 3.35938-9.54102Q3.84766-10.7031 4.72168-11.582Q5.5957-12.4609 6.75293-12.9541Q7.91016-13.4473 9.23828-13.4473Q10.5762-13.4473 11.7334-12.9541Q12.8906-12.4609 13.7695-11.582Q14.6484-10.7031 15.1465-9.54102Q15.6445-8.37891 15.6445-7.05078Q15.6445-5.72266 15.1514-4.56055Q14.6582-3.39844 13.7842-2.51953Q12.9102-1.64062 11.748-1.14746Q10.5859-0.654297 9.24805-0.654297ZM5.6543-7.05078Q5.6543-6.72852 5.85938-6.52832Q6.06445-6.32812 6.40625-6.32812L8.51562-6.32812L8.51562-4.20898Q8.51562-3.88672 8.71094-3.67676Q8.90625-3.4668 9.23828-3.4668Q9.56055-3.4668 9.77051-3.67676Q9.98047-3.88672 9.98047-4.20898L9.98047-6.32812L12.0898-6.32812Q12.4219-6.32812 12.627-6.52832Q12.832-6.72852 12.832-7.05078Q12.832-7.38281 12.627-7.58789Q12.4219-7.79297 12.0898-7.79297L9.98047-7.79297L9.98047-9.90234Q9.98047-10.2344 9.77051-10.4443Q9.56055-10.6543 9.23828-10.6543Q8.90625-10.6543 8.71094-10.4443Q8.51562-10.2344 8.51562-9.90234L8.51562-7.79297L6.40625-7.79297Q6.06445-7.79297 5.85938-7.58789Q5.6543-7.38281 5.6543-7.05078Z"/>
  </g>
  <g transform="matrix(1 0 0 1 281.867 1933)">
   <path d="M11.709 2.91016Q13.75 2.91016 15.5518 2.12891Q17.3535 1.34766 18.7305-0.0292969Q20.1074-1.40625 20.8887-3.20801Q21.6699-5.00977 21.6699-7.05078Q21.6699-9.0918 20.8887-10.8936Q20.1074-12.6953 18.7305-14.0723Q17.3535-15.4492 15.5469-16.2305Q13.7402-17.0117 11.6992-17.0117Q9.6582-17.0117 7.85645-16.2305Q6.05469-15.4492 4.68262-14.0723Q3.31055-12.6953 2.5293-10.8936Q1.74805-9.0918 1.74805-7.05078Q1.74805-5.00977 2.5293-3.20801Q3.31055-1.40625 4.6875-0.0292969Q6.06445 1.34766 7.86621 2.12891Q9.66797 2.91016 11.709 2.91016ZM11.709 1.25Q9.98047 1.25 8.47656 0.605469Q6.97266-0.0390625 5.83496-1.17676Q4.69727-2.31445 4.05762-3.81836Q3.41797-5.32227 3.41797-7.05078Q3.41797-8.7793 4.05762-10.2832Q4.69727-11.7871 5.83008-12.9297Q6.96289-14.0723 8.4668-14.7119Q9.9707-15.3516 11.6992-15.3516Q13.4277-15.3516 14.9316-14.7119Q16.4355-14.0723 17.5781-12.9297Q18.7207-11.7871 19.3652-10.2832Q20.0098-8.7793 20.0098-7.05078Q20.0098-5.32227 19.3701-3.81836Q18.7305-2.31445 17.5928-1.17676Q16.4551-0.0390625 14.9463 0.605469Q13.4375 1.25 11.709 1.25ZM7.17773-7.05078Q7.17773-6.69922 7.41211-6.47461Q7.64648-6.25 8.01758-6.25L10.8887-6.25L10.8887-3.36914Q10.8887-2.99805 11.1133-2.76855Q11.3379-2.53906 11.6895-2.53906Q12.0605-2.53906 12.29-2.76855Q12.5195-2.99805 12.5195-3.36914L12.5195-6.25L15.4004-6.25Q15.7715-6.25 16.001-6.47461Q16.2305-6.69922 16.2305-7.05078Q16.2305-7.42188 16.001-7.65137Q15.7715-7.88086 15.4004-7.88086L12.5195-7.88086L12.5195-10.752Q12.5195-11.1328 12.29-11.3623Q12.0605-11.5918 11.6895-11.5918Q11.3379-11.5918 11.1133-11.3574Q10.8887-11.123 10.8887-10.752L10.8887-7.88086L8.01758-7.88086Q7.63672-7.88086 7.40723-7.65137Q7.17773-7.42188 7.17773-7.05078Z"/>
  </g>
  <g transform="matrix(1 0 0 1 305.646 1933)">
   <path d="M14.9707 5.66406Q17.0605 5.66406 18.96 5.01465Q20.8594 4.36523 22.4512 3.19336Q24.043 2.02148 25.2197 0.429688Q26.3965-1.16211 27.0459-3.06641Q27.6953-4.9707 27.6953-7.05078Q27.6953-9.14062 27.0459-11.04Q26.3965-12.9395 25.2197-14.5312Q24.043-16.123 22.4512-17.2998Q20.8594-18.4766 18.9551-19.126Q17.0508-19.7754 14.9609-19.7754Q12.8711-19.7754 10.9717-19.126Q9.07227-18.4766 7.48535-17.2998Q5.89844-16.123 4.72168-14.5312Q3.54492-12.9395 2.90039-11.04Q2.25586-9.14062 2.25586-7.05078Q2.25586-4.9707 2.90527-3.06641Q3.55469-1.16211 4.72656 0.429688Q5.89844 2.02148 7.49023 3.19336Q9.08203 4.36523 10.9814 5.01465Q12.8809 5.66406 14.9707 5.66406ZM14.9707 3.84766Q13.1641 3.84766 11.5283 3.2959Q9.89258 2.74414 8.53516 1.74805Q7.17773 0.751953 6.17676-0.610352Q5.17578-1.97266 4.62891-3.6084Q4.08203-5.24414 4.08203-7.05078Q4.08203-8.86719 4.62891-10.5029Q5.17578-12.1387 6.17188-13.501Q7.16797-14.8633 8.52539-15.8594Q9.88281-16.8555 11.5186-17.4023Q13.1543-17.9492 14.9609-17.9492Q16.7773-17.9492 18.4131-17.4023Q20.0488-16.8555 21.4111-15.8594Q22.7734-14.8633 23.7695-13.501Q24.7656-12.1387 25.3174-10.5029Q25.8691-8.86719 25.8691-7.05078Q25.8789-5.24414 25.332-3.6084Q24.7852-1.97266 23.7842-0.610352Q22.7832 0.751953 21.4209 1.74805Q20.0586 2.74414 18.4229 3.2959Q16.7871 3.84766 14.9707 3.84766ZM9.19922-7.05078Q9.19922-6.66992 9.45801-6.4209Q9.7168-6.17188 10.1172-6.17188L14.0625-6.17188L14.0625-2.2168Q14.0625-1.81641 14.3115-1.55762Q14.5605-1.29883 14.9512-1.29883Q15.3516-1.29883 15.6104-1.55273Q15.8691-1.80664 15.8691-2.2168L15.8691-6.17188L19.8242-6.17188Q20.2246-6.17188 20.4785-6.4209Q20.7324-6.66992 20.7324-7.05078Q20.7324-7.46094 20.4785-7.71484Q20.2246-7.96875 19.8242-7.96875L15.8691-7.96875L15.8691-11.9141Q15.8691-12.3242 15.6104-12.583Q15.3516-12.8418 14.9512-12.8418Q14.5605-12.8418 14.3115-12.583Q14.0625-12.3242 14.0625-11.9141L14.0625-7.96875L10.1172-7.96875Q9.70703-7.96875 9.45312-7.71484Q9.19922-7.46094 9.19922-7.05078Z"/>
  </g>
  <text style="stroke:none;fill:black;font-family:sans-serif;font-size:13;font-weight:bold;" transform="matrix(1 0 0 1 263 1953)">Design Variations</text>
  <text style="stroke:none;fill:black;font-family:sans-serif;font-size:13;" transform="matrix(1 0 0 1 263 1971)">Symbols are supported in up to nine weights and three scales.</text>
  <text style="stroke:none;fill:black;font-family:sans-serif;font-size:13;" transform="matrix(1 0 0 1 263 1989)">For optimal layout with text and other symbols, vertically align</text>
  <text style="stroke:none;fill:black;font-family:sans-serif;font-size:13;" transform="matrix(1 0 0 1 263 2007)">symbols with the adjacent text.</text>
  <line style="fill:none;stroke:#00AEEF;stroke-width:0.5;opacity:1.0;" x1="776" x2="776" y1="1919" y2="1933"/>
  <g transform="matrix(1 0 0 1 776 1933)">
   <path d="M3.31055 0.15625Q3.70117 0.15625 3.91602-0.00976562Q4.13086-0.175781 4.26758-0.585938L5.52734-4.0332L11.2891-4.0332L12.5488-0.585938Q12.6855-0.175781 12.9004-0.00976562Q13.1152 0.15625 13.4961 0.15625Q13.8867 0.15625 14.1162-0.0585938Q14.3457-0.273438 14.3457-0.644531Q14.3457-0.869141 14.2383-1.17188L9.6582-13.3691Q9.48242-13.8184 9.17969-14.043Q8.87695-14.2676 8.4082-14.2676Q7.5-14.2676 7.17773-13.3789L2.59766-1.16211Q2.49023-0.859375 2.49023-0.634766Q2.49023-0.263672 2.70996-0.0537109Q2.92969 0.15625 3.31055 0.15625ZM6.00586-5.51758L8.37891-12.0898L8.42773-12.0898L10.8008-5.51758Z"/>
  </g>
  <line style="fill:none;stroke:#00AEEF;stroke-width:0.5;opacity:1.0;" x1="793.197" x2="793.197" y1="1919" y2="1933"/>
  <text style="stroke:none;fill:black;font-family:sans-serif;font-size:13;font-weight:bold;" transform="matrix(1 0 0 1 776 1953)">Margins</text>
  <text style="stroke:none;fill:black;font-family:sans-serif;font-size:13;" transform="matrix(1 0 0 1 776 1971)">Leading and trailing margins on the left and right side of each symbol</text>
  <text style="stroke:none;fill:black;font-family:sans-serif;font-size:13;" transform="matrix(1 0 0 1 776 1989)">can be adjusted by modifying the x-location of the margin guidelines.</text>
  <text style="stroke:none;fill:black;font-family:sans-serif;font-size:13;" transform="matrix(1 0 0 1 776 2007)">Modifications are automatically applied proportionally to all</text>
  <text style="stroke:none;fill:black;font-family:sans-serif;font-size:13;" transform="matrix(1 0 0 1 776 2025)">scales and weights.</text>
  <g transform="matrix(1 0 0 1 1289 1933)">
   <path d="M2.8418 1.86523L4.54102 3.57422Q5.18555 4.22852 5.90332 4.17969Q6.62109 4.13086 7.31445 3.35938L18.0078-8.42773L17.041-9.4043L6.42578 2.27539Q6.16211 2.57812 5.89355 2.61719Q5.625 2.65625 5.27344 2.30469L4.10156 1.14258Q3.75 0.791016 3.79395 0.522461Q3.83789 0.253906 4.14062-0.0195312L15.6152-10.8203L14.6387-11.7871L3.04688-0.898438Q2.30469-0.214844 2.25098 0.498047Q2.19727 1.21094 2.8418 1.86523ZM9.25781-16.3281Q8.94531-16.0254 8.90625-15.6348Q8.86719-15.2441 9.04297-14.9512Q9.21875-14.6777 9.55566-14.541Q9.89258-14.4043 10.3809-14.5215Q11.4746-14.7754 12.5977-14.7314Q13.7207-14.6875 14.7949-13.9844L14.209-12.5293Q13.9551-11.9043 14.0674-11.4404Q14.1797-10.9766 14.5801-10.5664L16.875-8.25195Q17.2363-7.88086 17.5781-7.82227Q17.9199-7.76367 18.3398-7.8418L19.4043-8.03711L20.0684-7.36328L20.0293-6.80664Q20-6.43555 20.1221-6.12305Q20.2441-5.81055 20.6055-5.44922L21.3672-4.70703Q21.7285-4.3457 22.1533-4.33105Q22.5781-4.31641 22.9297-4.66797L25.8398-7.58789Q26.1914-7.93945 26.1816-8.35449Q26.1719-8.76953 25.8105-9.13086L25.0391-9.89258Q24.6875-10.2539 24.3799-10.3857Q24.0723-10.5176 23.7109-10.4883L23.1348-10.4395L22.4902-11.0742L22.7344-12.1973Q22.832-12.6172 22.6953-12.9834Q22.5586-13.3496 22.1191-13.7891L19.9219-15.9766Q18.6719-17.2168 17.2607-17.8369Q15.8496-18.457 14.4189-18.4814Q12.9883-18.5059 11.665-17.959Q10.3418-17.4121 9.25781-16.3281ZM10.752-15.957Q11.6602-16.6211 12.7002-16.9043Q13.7402-17.1875 14.8047-17.085Q15.8691-16.9824 16.8701-16.5137Q17.8711-16.0449 18.7012-15.2051L21.1328-12.793Q21.3086-12.6172 21.3525-12.4512Q21.3965-12.2852 21.3379-12.0312L21.0156-10.5469L22.5195-9.0625L23.5059-9.12109Q23.6914-9.13086 23.7891-9.09668Q23.8867-9.0625 24.0332-8.91602L24.6094-8.33984L22.168-5.89844L21.5918-6.47461Q21.4453-6.62109 21.4062-6.71875Q21.3672-6.81641 21.377-7.01172L21.4453-7.98828L19.9512-9.47266L18.4277-9.21875Q18.1836-9.16992 18.042-9.2041Q17.9004-9.23828 17.7148-9.41406L15.7129-11.416Q15.5176-11.5918 15.4932-11.7529Q15.4688-11.9141 15.5859-12.1875L16.4648-14.2773Q15.293-15.3711 13.8281-15.791Q12.3633-16.2109 10.8398-15.7617Q10.7227-15.7324 10.6885-15.8057Q10.6543-15.8789 10.752-15.957Z"/>
  </g>
  <text style="stroke:none;fill:black;font-family:sans-serif;font-size:13;font-weight:bold;" transform="matrix(1 0 0 1 1289 1953)">Exporting</text>
  <text style="stroke:none;fill:black;font-family:sans-serif;font-size:13;" transform="matrix(1 0 0 1 1289 1971)">Symbols should be outlined when exporting to ensure the</text>
  <text style="stroke:none;fill:black;font-family:sans-serif;font-size:13;" transform="matrix(1 0 0 1 1289 1989)">design is preserved when submitting to Xcode.</text>
  <text id="template-version" style="stroke:none;fill:black;font-family:sans-serif;font-size:13;text-anchor:end;" transform="matrix(1 0 0 1 3036 1933)">Template v.3.0</text>
  <text style="stroke:none;fill:black;font-family:sans-serif;font-size:13;text-anchor:end;" transform="matrix(1 0 0 1 3036 1951)">Requires Xcode 13 or greater</text>
  <text id="descriptive-name" style="stroke:none;fill:black;font-family:sans-serif;font-size:13;text-anchor:end;" transform="matrix(1 0 0 1 3036 1969)">Generated from bookmark</text>
  <text style="stroke:none;fill:black;font-family:sans-serif;font-size:13;text-anchor:end;" transform="matrix(1 0 0 1 3036 1987)">Typeset at 100 points</text>
  <text style="stroke:none;fill:black;font-family:sans-serif;font-size:13;" transform="matrix(1 0 0 1 263 726)">Small</text>
  <text style="stroke:none;fill:black;font-family:sans-serif;font-size:13;" transform="matrix(1 0 0 1 263 1156)">Medium</text>
  <text style="stroke:none;fill:black;font-family:sans-serif;font-size:13;" transform="matrix(1 0 0 1 263 1586)">Large</text>
 </g>
 <g id="Guides">
  <g id="H-reference" style="fill:#27AAE1;stroke:none;" transform="matrix(1 0 0 1 339 696)">
   <path d="M0.993347 0L3.6377 0L29.3282-67.1326L30.0301-67.1326L30.0301-70.459L28.1227-70.459ZM11.6882-24.4797L46.9818-24.4797L46.2311-26.7288L12.4382-26.7288ZM55.1193 0L57.7637 0L30.6381-70.459L29.4327-70.459L29.4327-67.1326Z"/>
  </g>
  <line id="Baseline-S" style="fill:none;stroke:#27AAE1;opacity:1;stroke-width:0.5;" x1="263" x2="3036" y1="696" y2="696"/>
  <line id="Capline-S" style="fill:none;stroke:#27AAE1;opacity:1;stroke-width:0.5;" x1="263" x2="3036" y1="625.541" y2="625.541"/>
  <g id="H-reference" style="fill:#27AAE1;stroke:none;" transform="matrix(1 0 0 1 339 1126)">
   <path d="M0.993347 0L3.6377 0L29.3282-67.1326L30.0301-67.1326L30.0301-70.459L28.1227-70.459ZM11.6882-24.4797L46.9818-24.4797L46.2311-26.7288L12.4382-26.7288ZM55.1193 0L57.7637 0L30.6381-70.459L29.4327-70.459L29.4327-67.1326Z"/>
  </g>
  <line id="Baseline-M" style="fill:none;stroke:#27AAE1;opacity:1;stroke-width:0.5;" x1="263" x2="3036" y1="1126" y2="1126"/>
  <line id="Capline-M" style="fill:none;stroke:#27AAE1;opacity:1;stroke-width:0.5;" x1="263" x2="3036" y1="1055.54" y2="1055.54"/>
  <g id="H-reference" style="fill:#27AAE1;stroke:none;" transform="matrix(1 0 0 1 339 1556)">
   <path d="M0.993347 0L3.6377 0L29.3282-67.1326L30.0301-67.1326L30.0301-70.459L28.1227-70.459ZM11.6882-24.4797L46.9818-24.4797L46.2311-26.7288L12.4382-26.7288ZM55.1193 0L57.7637 0L30.6381-70.459L29.4327-70.459L29.4327-67.1326Z"/>
  </g>
  <line id="Baseline-L" style="fill:none;stroke:#27AAE1;opacity:1;stroke-width:0.5;" x1="263" x2="3036" y1="1556" y2="1556"/>
  <line id="Capline-L" style="fill:none;stroke:#27AAE1;opacity:1;stroke-width:0.5;" x1="263" x2="3036" y1="1485.54" y2="1485.54"/>
  <line id="left-margin-Regular-M" style="fill:none;stroke:#00AEEF;stroke-width:0.5;opacity:1.0;" x1="1398.88" x2="1398.88" y1="1030.79" y2="1150.12"/>
  <line id="right-margin-Regular-M" style="fill:none;stroke:#00AEEF;stroke-width:0.5;opacity:1.0;" x1="1500.81" x2="1500.81" y1="1030.79" y2="1150.12"/>
 </g>
 <g id="Symbols">
  <g id="Black-L" transform="matrix(1 0 0 1 2861.09 1556)">
   <path d="M36.2516 39.6106Q39.6772 39.6106 42.4245 38.0947Q45.1717 36.5789 48.6366 33.1544L71.8532 9.8724Q72.3178 9.40783 72.7615 9.8724L96.0366 33.2129Q99.5586 36.6361 102.257 38.1233Q104.956 39.6106 108.383 39.6106Q114.151 39.6106 117.721 35.848Q121.292 32.0855 121.292 25.9161L121.292-85.7338Q121.292-96.4307 115.367-102.377Q109.443-108.323 98.7666-108.323L45.847-108.323Q35.1708-108.323 29.2463-102.377Q23.3218-96.4307 23.3218-85.7338L23.3218 25.9161Q23.3218 32.0855 26.9033 35.848Q30.4848 39.6106 36.2516 39.6106ZM45.0376 7.23676Q44.449 7.80448 43.9031 7.59505Q43.3571 7.38561 43.3571 6.5934L43.3571-83.1783Q43.3571-85.9354 44.5527-87.1113Q45.7483-88.2873 48.4482-88.2873L96.1666-88.2873Q98.9237-88.2873 100.091-87.1113Q101.258-85.9354 101.258-83.1783L101.258 6.5934Q101.258 7.38561 100.712 7.59505Q100.166 7.80448 99.5968 7.23676L79.0631-12.5569Q75.5781-15.9056 72.336-15.9056Q69.0939-15.9056 65.5504-12.5569Z"/>
  </g>
  <g id="Heavy-L" transform="matrix(1 0 0 1 2566.01 1556)">
   <path d="M34.7158 37.7704Q37.8463 37.7704 40.392 36.2722Q42.9377 34.7741 46.5218 31.2447L70.2004 7.5694Q70.6931 7.07669 71.1556 7.5694L94.8789 31.2893Q98.5021 34.8131 101.015 36.2917Q103.529 37.7704 106.665 37.7704Q111.784 37.7704 114.907 34.4421Q118.029 31.1138 118.029 25.5687L118.029-85.5065Q118.029-95.749 112.465-101.346Q106.902-106.942 96.6892-106.942L44.6613-106.942Q34.449-106.942 28.8854-101.346Q23.3218-95.749 23.3218-85.5065L23.3218 25.5687Q23.3218 31.1138 26.4619 34.4421Q29.602 37.7704 34.7158 37.7704ZM42.5647 9.31728Q41.9492 9.90266 41.385 9.70949Q40.8208 9.51631 40.8208 8.67392L40.8208-83.5162Q40.8208-86.6274 42.2533-88.0352Q43.6857-89.4431 46.7579-89.4431L94.5981-89.4431Q97.7093-89.4431 99.1223-88.0352Q100.535-86.6274 100.535-83.5162L100.535 8.67392Q100.535 9.51631 99.9711 9.70949Q99.407 9.90266 98.8159 9.31728L76.5926-12.1873Q73.5878-15.0782 70.6976-15.0782Q67.8073-15.0782 64.7579-12.1873Z"/>
  </g>
  <g id="Bold-L" transform="matrix(1 0 0 1 2271.29 1556)">
   <path d="M32.8774 35.5405Q35.6242 35.5405 37.9016 34.1064Q40.1789 32.6722 43.76 29.1538L68.1936 4.73355Q68.7098 4.21737 69.1879 4.73355L93.6507 29.183Q97.2479 32.6881 99.5083 34.1143Q101.769 35.5405 104.529 35.5405Q108.864 35.5405 111.455 32.7315Q114.047 29.9224 114.047 25.1534L114.047-85.2149Q114.047-94.874 108.918-100.048Q103.789-105.221 94.1673-105.221L43.2011-105.221Q33.5799-105.221 28.4508-100.048Q23.3218-94.874 23.3218-85.2149L23.3218 25.1534Q23.3218 29.9224 25.9387 32.7315Q28.5556 35.5405 32.8774 35.5405ZM39.5362 12.0033Q38.8824 12.6192 38.2952 12.4415Q37.7079 12.2638 37.7079 11.36L37.7079-83.8567Q37.7079-87.4282 39.4361-89.1317Q41.1643-90.8351 44.7199-90.8351L92.6616-90.8351Q96.2331-90.8351 97.9534-89.1317Q99.6737-87.4282 99.6737-83.8567L99.6737 11.36Q99.6737 12.2638 99.0865 12.4415Q98.4993 12.6192 97.8701 12.0033L73.6014-11.6667Q71.166-14.0189 68.6988-14.0189Q66.2316-14.0189 63.767-11.6667Z"/>
  </g>
  <g id="Semibold-L" transform="matrix(1 0 0 1 1975.96 1556)">
   <path d="M31.6101 34.0033Q34.0923 34.0033 36.1847 32.6133Q38.2771 31.2232 41.856 27.7123L66.8101 2.77854Q67.3425 2.24617 67.8314 2.77854L92.804 27.7309Q96.3833 31.2232 98.4694 32.6132Q100.555 34.0033 103.056 34.0033Q106.851 34.0033 109.076 31.5522Q111.301 29.1011 111.301 24.867L111.301-85.0139Q111.301-94.2707 106.472-99.1529Q101.642-104.035 92.4288-104.035L42.1944-104.035Q32.9808-104.035 28.1513-99.1529Q23.3218-94.2707 23.3218-85.0139L23.3218 24.867Q23.3218 29.1011 25.578 31.5522Q27.8342 34.0033 31.6101 34.0033ZM37.4483 13.8551Q36.7682 14.4919 36.165 14.3249Q35.5618 14.158 35.5618 13.2117L35.5618-84.0915Q35.5618-87.9803 37.4939-89.8875Q39.426-91.7947 43.3149-91.7947L91.3266-91.7947Q95.2154-91.7947 97.1476-89.8875Q99.0797-87.9803 99.0797-84.0915L99.0797 13.2117Q99.0797 14.158 98.4766 14.3249Q97.8736 14.4919 97.2181 13.8551L71.5393-11.3078Q69.4964-13.2886 67.3209-13.2886Q65.1454-13.2886 63.0839-11.3078Z"/>
  </g>
  <g id="Medium-L" transform="matrix(1 0 0 1 1680.28 1556)">
   <path d="M30.6491 32.8377Q32.9307 32.8377 34.8828 31.4811Q36.835 30.1245 40.4124 26.6194L65.7611 1.29616Q66.3058 0.751519 66.8028 1.29616L92.162 26.6299Q95.7277 30.1124 97.6816 31.475Q99.6355 32.8377 101.94 32.8377Q105.324 32.8377 107.272 30.658Q109.22 28.4784 109.22 24.6499L109.22-84.8614Q109.22-93.8133 104.618-98.4744Q100.015-103.136 91.1105-103.136L41.4311-103.136Q32.5265-103.136 27.9241-98.4744Q23.3218-93.8133 23.3218-84.8614L23.3218 24.6499Q23.3218 28.4784 25.3045 30.658Q27.2872 32.8377 30.6491 32.8377ZM35.8652 15.2591Q35.1652 15.9119 34.5499 15.753Q33.9346 15.5942 33.9346 14.6158L33.9346-84.2695Q33.9346-88.399 36.0213-90.4607Q38.108-92.5224 42.2496-92.5224L90.3144-92.5224Q94.4438-92.5224 96.5366-90.4607Q98.6293-88.399 98.6293-84.2695L98.6293 14.6158Q98.6293 15.5942 98.0142 15.753Q97.3991 15.9119 96.7237 15.2591L69.9757-11.0357Q68.2305-12.7349 66.2761-12.7349Q64.3217-12.7349 62.5659-11.0357Z"/>
  </g>
  <g id="Regular-L" transform="matrix(1 0 0 1 1384.93 1556)">
   <path d="M29.3956 31.3173Q31.4156 31.3173 33.1848 30.0044Q34.954 28.6914 38.5293 25.1938L64.3929-0.637372Q64.9535-1.19802 65.4611-0.637372L91.3247 25.1938Q94.8726 28.6636 96.6541 29.9904Q98.4356 31.3173 100.484 31.3173Q103.333 31.3173 104.919 29.4917Q106.505 27.6661 106.505 24.3667L106.505-84.6626Q106.505-93.2167 102.199-97.5895Q97.8926-101.962 89.3911-101.962L40.4355-101.962Q31.9339-101.962 27.6279-97.5895Q23.3218-93.2167 23.3218-84.6626L23.3218 24.3667Q23.3218 27.6661 24.9477 29.4917Q26.5737 31.3173 29.3956 31.3173ZM33.8003 17.0905Q33.0742 17.7641 32.4432 17.6158Q31.8121 17.4675 31.8121 16.4472L31.8121-84.5017Q31.8121-88.945 34.1005-91.2082Q36.3888-93.4715 40.86-93.4715L88.994-93.4715Q93.4373-93.4715 95.7396-91.2082Q98.0419-88.945 98.0419-84.5017L98.0419 16.4472Q98.0419 17.4675 97.4111 17.6158Q96.7803 17.7641 96.0789 17.0905L67.9363-10.6807Q66.5792-12.0126 64.9133-12.0126Q63.2474-12.0126 61.8903-10.6807Z"/>
  </g>
  <g id="Light-L" transform="matrix(1 0 0 1 1089.4 1556)">
   <path d="M28.5369 30.0959Q30.175 30.0959 31.6389 29.0979Q33.1029 28.0998 35.7047 25.5183L63.2667-2.48852Q63.7703-2.99209 64.2398-2.48852L91.8018 25.5183Q94.3573 28.0527 95.8143 29.0743Q97.2713 30.0959 98.9565 30.0959Q101.387 30.0959 102.762 28.5089Q104.138 26.9218 104.138 24.1759L104.138-84.3955Q104.138-92.415 100.052-96.5589Q95.9652-100.703 87.9789-100.703L39.4812-100.703Q31.495-100.703 27.4084-96.5589Q23.3218-92.415 23.3218-84.3955L23.3218 24.1759Q23.3218 26.9218 24.7379 28.5089Q26.1539 30.0959 28.5369 30.0959ZM31.9299 19.6481Q31.1467 20.3979 30.4965 20.2306Q29.8462 20.0632 29.8462 19.0047L29.8462-84.2346Q29.8462-89.1358 32.354-91.6567Q34.8619-94.1775 39.8102-94.1775L87.6963-94.1775Q92.5975-94.1775 95.1289-91.6567Q97.6603-89.1358 97.6603-84.2346L97.6603 19.0047Q97.6603 20.0632 97.0104 20.2306Q96.3605 20.3979 95.5636 19.6481L66.3141-9.91724Q65.186-11.0584 63.7301-11.0584Q62.2742-11.0584 61.1461-9.91724Z"/>
  </g>
  <g id="Thin-L" transform="matrix(1 0 0 1 794.257 1556)">
   <path d="M27.4012 28.4806Q28.5342 28.4806 29.5944 27.899Q30.6546 27.3174 31.9688 25.9475L61.7773-4.93681Q62.2054-5.36489 62.6244-4.93681L92.4329 25.9475Q93.6758 27.2448 94.7036 27.8627Q95.7314 28.4806 96.937 28.4806Q98.8119 28.4806 99.9102 27.209Q101.009 25.9375 101.009 23.9235L101.009-84.0422Q101.009-91.3548 97.2123-95.1959Q93.416-99.0369 86.1112-99.0369L38.2191-99.0369Q30.9144-99.0369 27.1181-95.1959Q23.3218-91.3548 23.3218-84.0422L23.3218 23.9235Q23.3218 25.9375 24.4603 27.209Q25.5988 28.4806 27.4012 28.4806ZM29.4561 23.0306Q28.5975 23.8814 27.9218 23.6888Q27.2461 23.4962 27.2461 22.3873L27.2461-83.8814Q27.2461-89.3881 30.0442-92.2498Q32.8423-95.1114 38.4217-95.1114L85.98-95.1114Q91.4868-95.1114 94.3212-92.2498Q97.1556-89.3881 97.1556-83.8814L97.1556 22.3873Q97.1556 23.4962 96.4805 23.6888Q95.8054 23.8814 94.8821 23.0306L64.1686-8.90747Q63.3433-9.79627 62.1652-9.79627Q60.987-9.79627 60.1617-8.90747Z"/>
  </g>
  <g id="Ultralight-L" transform="matrix(1 0 0 1 498.348 1556)">
   <path d="M26.8195 27.6532Q27.6938 27.6532 28.5472 27.2849Q29.4006 26.9166 30.0554 26.1673L61.0144-6.19081Q61.4038-6.58023 61.797-6.19081L92.7561 26.1673Q93.3267 26.831 94.1347 27.2421Q94.9427 27.6532 95.9026 27.6532Q97.4932 27.6532 98.4493 26.5433Q99.4055 25.4333 99.4055 23.7943L99.4055-83.8612Q99.4055-90.8118 95.7579-94.4977Q92.1103-98.1837 85.1546-98.1837L37.5727-98.1837Q30.617-98.1837 26.9694-94.4977Q23.3218-90.8118 23.3218-83.8612L23.3218 23.7943Q23.3218 25.4333 24.3181 26.5433Q25.3145 27.6532 26.8195 27.6532ZM28.1891 24.7632Q27.2918 25.6656 26.603 25.4601Q25.9143 25.2546 25.9143 24.1198L25.9143-83.7004Q25.9143-89.5174 28.8611-92.5535Q31.8079-95.5897 37.7105-95.5897L85.1009-95.5897Q90.9179-95.5897 93.9075-92.5535Q96.8971-89.5174 96.8971-83.7004L96.8971 24.1198Q96.8971 25.2546 96.2091 25.4601Q95.5211 25.6656 94.533 24.7632L63.0697-8.39027Q62.3995-9.14982 61.3636-9.14982Q60.3278-9.14982 59.6576-8.39027Z"/>
  </g>
  <g id="Black-M" transform="matrix(1 0 0 1 2876.14 1126)">
   <path d="M29.2892 24.1683Q32.145 24.1683 34.4053 23.0214Q36.6657 21.8744 39.1156 19.4357L56.9356 1.44129Q57.2636 1.11329 57.5861 1.44129L75.4632 19.4928Q77.9705 21.9317 80.1766 23.05Q82.3827 24.1683 85.2383 24.1683Q90.2075 24.1683 93.3305 20.9124Q96.4536 17.6565 96.4536 12.4153L96.4536-74.5164Q96.4536-83.1219 91.5831-87.9977Q86.7127-92.8735 78.1126-92.8735L36.4093-92.8735Q27.8092-92.8735 22.9388-87.9977Q18.0684-83.1219 18.0684-74.5164L18.0684 12.4153Q18.0684 17.6565 21.194 20.9124Q24.3197 24.1683 29.2892 24.1683ZM36.7643-3.77065Q36.3238-3.33565 35.9139-3.51446Q35.504-3.69328 35.504-4.26908L35.504-72.0508Q35.504-73.9446 36.2564-74.6912Q37.0088-75.4379 38.8453-75.4379L75.6764-75.4379Q77.5702-75.4379 78.2939-74.6912Q79.0176-73.9446 79.0176-72.0508L79.0176-4.26908Q79.0176-3.69328 78.6077-3.51446Q78.1978-3.33565 77.7631-3.77065L63.157-17.8783Q60.0752-20.8402 57.2895-20.8402Q54.5038-20.8402 51.3649-17.8783Z"/>
  </g>
  <g id="Heavy-M" transform="matrix(1 0 0 1 2580.91 1126)">
   <path d="M27.8671 22.4821Q30.4697 22.4821 32.5611 21.3234Q34.6525 20.1647 37.3089 17.5388L55.4238-0.639272Q55.7845-1.00004 56.1289-0.639272L74.2874 17.5824Q76.9852 20.206 79.04 21.344Q81.0948 22.4821 83.6997 22.4821Q88.0737 22.4821 90.7778 19.6287Q93.482 16.7753 93.482 12.0933L93.482-74.3189Q93.482-82.5295 88.9442-87.0849Q84.4063-91.6403 76.2121-91.6403L35.3383-91.6403Q27.1441-91.6403 22.6062-87.0849Q18.0684-82.5295 18.0684-74.3189L18.0684 12.0933Q18.0684 16.7753 20.7819 19.6287Q23.4954 22.4821 27.8671 22.4821ZM34.5195-1.97274Q34.0579-1.52752 33.6319-1.68868Q33.206-1.84984 33.206-2.47118L33.206-72.4058Q33.206-74.6035 34.1697-75.5531Q35.1334-76.5026 37.2898-76.5026L74.2629-76.5026Q76.4606-76.5026 77.4036-75.5531Q78.3467-74.6035 78.3467-72.4058L78.3467-2.47118Q78.3467-1.84984 77.9207-1.68868Q77.4948-1.52752 77.0473-1.97274L60.8915-17.5874Q58.2581-20.1194 55.797-20.1194Q53.3359-20.1194 50.6589-17.5874Z"/>
  </g>
  <g id="Bold-M" transform="matrix(1 0 0 1 2285.86 1126)">
   <path d="M26.2763 20.5957Q28.5955 20.5957 30.498 19.4239Q32.4004 18.2521 35.2878 15.4169L53.7326-2.96668Q54.13-3.36412 54.4988-2.96668L72.9722 15.4454Q75.8829 18.2755 77.7686 19.4356Q79.6542 20.5957 81.9786 20.5957Q85.6867 20.5957 87.9223 18.1926Q90.1579 15.7895 90.1579 11.7331L90.1579-74.098Q90.1579-81.8667 85.9921-86.0637Q81.8263-90.2607 74.0862-90.2607L34.1401-90.2607Q26.4-90.2607 22.2342-86.0637Q18.0684-81.8667 18.0684-74.098L18.0684 11.7331Q18.0684 15.7895 20.3208 18.1926Q22.5733 20.5957 26.2763 20.5957ZM32.0083 0.0384758Q31.5231 0.495138 31.0792 0.353726Q30.6353 0.212315 30.6353-0.459962L30.6353-72.8029Q30.6353-75.3405 31.8354-76.5171Q33.0355-77.6937 35.5497-77.6937L72.6816-77.6937Q75.2193-77.6937 76.4077-76.5171Q77.5961-75.3405 77.5961-72.8029L77.5961-0.459962Q77.5961 0.212315 77.1522 0.353726Q76.7084 0.495138 76.2465 0.0384758L58.3572-17.262Q56.2254-19.3132 54.1274-19.3132Q52.0294-19.3132 49.869-17.262Z"/>
  </g>
  <g id="Semibold-M" transform="matrix(1 0 0 1 1990.3 1126)">
   <path d="M25.1796 19.2953Q27.3035 19.2953 29.0757 18.1145Q30.8479 16.9336 33.8944 13.954L52.5667-4.57118Q52.9894-4.9939 53.375-4.57118L72.0654 13.9722Q75.1231 16.9446 76.892 18.12Q78.661 19.2953 80.7921 19.2953Q84.0412 19.2953 85.9537 17.2026Q87.8663 15.1099 87.8663 11.4848L87.8663-73.9457Q87.8663-81.4098 83.957-85.3597Q80.0476-89.3097 72.6205-89.3097L33.3141-89.3097Q25.887-89.3097 21.9777-85.3597Q18.0684-81.4098 18.0684-73.9457L18.0684 11.4848Q18.0684 15.1099 20.003 17.2026Q21.9376 19.2953 25.1796 19.2953ZM30.2771 1.425Q29.7756 1.88954 29.3193 1.76175Q28.863 1.63395 28.863 0.926559L28.863-73.0766Q28.863-75.8486 30.2261-77.1818Q31.5892-78.5149 34.3501-78.5149L71.5916-78.5149Q74.3635-78.5149 75.7211-77.1818Q77.0787-75.8486 77.0787-73.0766L77.0787 0.926559Q77.0787 1.63395 76.6225 1.76175Q76.1662 1.88954 75.6945 1.425L56.6101-17.0376Q54.8241-18.7574 52.9764-18.7574Q51.1287-18.7574 49.3245-17.0376Z"/>
  </g>
  <g id="Medium-M" transform="matrix(1 0 0 1 1694.46 1126)">
   <path d="M24.348 18.3093Q26.3238 18.3093 27.9973 17.1216Q29.6707 15.9339 32.8379 12.8448L51.6827-5.78778Q52.1245-6.22966 52.5229-5.78778L71.3779 12.8551Q74.5469 15.9355 76.2274 17.1224Q77.9079 18.3093 79.8924 18.3093Q82.7934 18.3093 84.4611 16.4519Q86.1287 14.5946 86.1287 11.2965L86.1287-73.8302Q86.1287-81.0633 82.4138-84.8259Q78.699-88.5885 71.5093-88.5885L32.6878-88.5885Q25.4981-88.5885 21.7832-84.8259Q18.0684-81.0633 18.0684-73.8302L18.0684 11.2965Q18.0684 14.5946 19.762 16.4519Q21.4556 18.3093 24.348 18.3093ZM28.9645 2.47631Q28.4506 2.94684 27.9849 2.82937Q27.5192 2.7119 27.5192 1.97788L27.5192-73.2842Q27.5192-76.2339 29.0059-77.6857Q30.4925-79.1375 33.4406-79.1375L70.765-79.1375Q73.7147-79.1375 75.2005-77.6857Q76.6863-76.2339 76.6863-73.2842L76.6863 1.97788Q76.6863 2.7119 76.2207 2.82937Q75.7551 2.94684 75.2759 2.47631L55.2854-16.8675Q53.7616-18.3359 52.1037-18.3359Q50.4457-18.3359 48.9117-16.8675Z"/>
  </g>
  <g id="Regular-M" transform="matrix(1 0 0 1 1398.88 1126)">
   <path d="M23.2634 17.0231Q25.046 17.0231 26.5906 15.8265Q28.1352 14.6299 31.4599 11.398L50.5296-7.37465Q50.9965-7.84153 51.4115-7.37465L70.4812 11.398Q73.7954 14.6192 75.3605 15.8212Q76.9257 17.0231 78.7189 17.0231Q81.166 17.0231 82.5141 15.4728Q83.8623 13.9224 83.8623 11.0509L83.8623-73.6796Q83.8623-80.6114 80.4011-84.1297Q76.9399-87.6479 70.0597-87.6479L31.8709-87.6479Q24.9907-87.6479 21.5295-84.1297Q18.0684-80.6114 18.0684-73.6796L18.0684 11.0509Q18.0684 13.9224 19.4476 15.4728Q20.8269 17.0231 23.2634 17.0231ZM27.2523 3.8476Q26.7223 4.32592 26.2444 4.22192Q25.7665 4.11791 25.7665 3.34916L25.7665-73.555Q25.7665-76.7364 27.4143-78.343Q29.0621-79.9496 32.2542-79.9496L69.6869-79.9496Q72.8683-79.9496 74.5215-78.343Q76.1746-76.7364 76.1746-73.555L76.1746 3.34916Q76.1746 4.11791 75.6968 4.22192Q75.2189 4.32592 74.73 3.8476L53.5575-16.6456Q52.3757-17.7862 50.9653-17.7862Q49.555-17.7862 48.3731-16.6456Z"/>
  </g>
  <g id="Light-M" transform="matrix(1 0 0 1 1103.23 1126)">
   <path d="M22.4935 15.9281Q23.9337 15.9281 25.2046 15.0138Q26.4756 14.0995 28.9275 11.689L49.5199-9.0343Q49.9356-9.45001 50.3165-9.0343L70.9089 11.689Q73.3334 14.0716 74.6076 14.9998Q75.8818 15.9281 77.3499 15.9281Q79.4207 15.9281 80.5806 14.5916Q81.7406 13.2552 81.7406 10.8798L81.7406-73.4401Q81.7406-79.8927 78.4762-83.2057Q75.2118-86.5187 68.7937-86.5187L31.0153-86.5187Q24.5971-86.5187 21.3328-83.2057Q18.0684-79.8927 18.0684-73.4401L18.0684 10.8798Q18.0684 13.2552 19.2595 14.5916Q20.4506 15.9281 22.4935 15.9281ZM25.5754 6.14057Q24.9943 6.68732 24.4991 6.56621Q24.0039 6.4451 24.0039 5.64214L24.0039-73.3155Q24.0039-76.9075 25.8485-78.7451Q27.6931-80.5827 31.313-80.5827L68.5234-80.5827Q72.1154-80.5827 73.974-78.7451Q75.8325-76.9075 75.8325-73.3155L75.8325 5.64214Q75.8325 6.4451 75.3376 6.56621Q74.8426 6.68732 74.268 6.14057L52.1031-15.9611Q51.1265-16.9307 49.9045-16.9307Q48.6824-16.9307 47.7059-15.9611Z"/>
  </g>
  <g id="Thin-M" transform="matrix(1 0 0 1 807.921 1126)">
   <path d="M21.4752 14.4798Q22.4626 14.4798 23.3716 13.9389Q24.2805 13.398 25.5781 12.0738L48.1846-11.2293Q48.5326-11.5773 48.8682-11.2293L71.4747 12.0738Q72.7224 13.3473 73.6118 13.9135Q74.5012 14.4798 75.5393 14.4798Q77.1123 14.4798 78.0235 13.4263Q78.9346 12.3727 78.9346 10.6536L78.9346-73.1234Q78.9346-78.9421 75.9305-81.9837Q72.9263-85.0252 67.1192-85.0252L29.8838-85.0252Q24.0766-85.0252 21.0725-81.9837Q18.0684-78.9421 18.0684-73.1234L18.0684 10.6536Q18.0684 12.3727 19.0106 13.4263Q19.9529 14.4798 21.4752 14.4798ZM23.3576 9.17322Q22.7087 9.81046 22.1908 9.66672Q21.6728 9.52299 21.6728 8.67478L21.6728-72.9988Q21.6728-77.1337 23.7776-79.2768Q25.8825-81.4199 30.0681-81.4199L66.9847-81.4199Q71.1196-81.4199 73.2498-79.2768Q75.38-77.1337 75.38-72.9988L75.38 8.67478Q75.38 9.52299 74.8625 9.66672Q74.3449 9.81046 73.657 9.17322L50.1796-15.0558Q49.4745-15.7991 48.5015-15.7991Q47.5285-15.7991 46.8234-15.0558Z"/>
  </g>
  <g id="Ultralight-M" transform="matrix(1 0 0 1 511.928 1126)">
   <path d="M20.9537 13.738Q21.7091 13.738 22.4327 13.3883Q23.1563 13.0386 23.8626 12.2709L47.5006-12.3536Q47.814-12.667 48.1264-12.3536L71.7645 12.2709Q72.4094 12.9763 73.1018 13.3571Q73.7941 13.738 74.6119 13.738Q75.93 13.738 76.7137 12.8294Q77.4973 11.9207 77.4973 10.5377L77.4973-72.9612Q77.4973-78.4553 74.6265-81.3577Q71.7557-84.2602 66.2615-84.2602L29.3042-84.2602Q23.81-84.2602 20.9392-81.3577Q18.0684-78.4553 18.0684-72.9612L18.0684 10.5377Q18.0684 11.9207 18.8832 12.8294Q19.698 13.738 20.9537 13.738ZM22.2216 10.7265Q21.5381 11.4101 21.0084 11.2548Q20.4788 11.0995 20.4788 10.2281L20.4788-72.8365Q20.4788-77.2496 22.7169-79.5492Q24.9551-81.8487 29.4305-81.8487L66.1965-81.8487Q70.6096-81.8487 72.8789-79.5492Q75.1483-77.2496 75.1483-72.8365L75.1483 10.2281Q75.1483 11.0995 74.6191 11.2548Q74.09 11.4101 73.344 10.7265L49.1943-14.5921Q48.6283-15.2196 47.7829-15.2196Q46.9374-15.2196 46.3714-14.5921Z"/>
  </g>
  <g id="Black-S" transform="matrix(1 0 0 1 2888.14 696)">
   <path d="M23.3398 11.7676Q25.6348 11.7676 27.4414 10.8887Q29.248 10.0098 31.0547 8.20312L45.0195-5.95703Q45.2637-6.20117 45.5078-5.95703L59.5215 8.25195Q61.377 10.0586 63.1348 10.9131Q64.8926 11.7676 67.1875 11.7676Q71.2402 11.7676 73.8037 9.10645Q76.3672 6.44531 76.3672 2.19727L76.3672-66.0645Q76.3672-72.9004 72.4609-76.8066Q68.5547-80.7129 61.7188-80.7129L28.8086-80.7129Q21.9727-80.7129 18.0664-76.8066Q14.1602-72.9004 14.1602-66.0645L14.1602 2.19727Q14.1602 6.44531 16.7236 9.10645Q19.2871 11.7676 23.3398 11.7676ZM29.3945-10.9863Q29.0527-10.6445 28.7354-10.791Q28.418-10.9375 28.418-11.377L28.418-63.9648Q28.418-65.3809 28.9551-65.918Q29.4922-66.4551 30.8594-66.4551L59.668-66.4551Q61.084-66.4551 61.5967-65.918Q62.1094-65.3809 62.1094-63.9648L62.1094-11.377Q62.1094-10.9375 61.792-10.791Q61.4746-10.6445 61.1328-10.9863L50.0977-21.6797Q47.5586-24.1211 45.2881-24.1211Q43.0176-24.1211 40.4297-21.6797Z"/>
  </g>
  <g id="Heavy-S" transform="matrix(1 0 0 1 2592.56 696)">
   <path d="M22.222 10.4653Q24.344 10.4653 26.0412 9.54031Q27.7383 8.61531 29.8331 6.5436L43.8556-7.52436Q44.1343-7.80307 44.4015-7.52436L58.4612 6.58091Q60.5933 8.65261 62.2589 9.55896Q63.9245 10.4653 66.0466 10.4653Q69.6383 10.4653 71.8676 8.1211Q74.0969 5.77689 74.0969 1.94373L74.0969-65.9262Q74.0969-72.4855 70.4499-76.144Q66.803-79.8025 60.2551-79.8025L28.0019-79.8025Q21.4541-79.8025 17.8071-76.144Q14.1602-72.4855 14.1602-65.9262L14.1602 1.94373Q14.1602 5.77689 16.3952 8.1211Q18.6302 10.4653 22.222 10.4653ZM27.6889-9.74169Q27.3356-9.39989 27.0067-9.52909Q26.6778-9.65828 26.6778-10.1323L26.6778-64.2991Q26.6778-65.9225 27.3705-66.6037Q28.0632-67.2848 29.6493-67.2848L58.6077-67.2848Q60.2312-67.2848 60.9052-66.6037Q61.5792-65.9225 61.5792-64.2991L61.5792-10.1323Q61.5792-9.65828 61.2503-9.52909Q60.9214-9.39989 60.5796-9.74169L48.3459-21.5183Q46.1641-23.614 44.1472-23.614Q42.1302-23.614 39.9111-21.5183Z"/>
  </g>
  <g id="Bold-S" transform="matrix(1 0 0 1 2297.12 696)">
   <path d="M20.9717 9.00879Q22.9004 9.00879 24.4751 8.03223Q26.0498 7.05566 28.4668 4.6875L42.5537-9.27734Q42.8711-9.59473 43.1641-9.27734L57.2754 4.71191Q59.7168 7.08008 61.2793 8.04443Q62.8418 9.00879 64.7705 9.00879Q67.8467 9.00879 69.7021 7.01904Q71.5576 5.0293 71.5576 1.66016L71.5576-65.7715Q71.5576-72.0215 68.2007-75.4028Q64.8438-78.7842 58.6182-78.7842L27.0996-78.7842Q20.874-78.7842 17.5171-75.4028Q14.1602-72.0215 14.1602-65.7715L14.1602 1.66016Q14.1602 5.0293 16.0278 7.01904Q17.8955 9.00879 20.9717 9.00879ZM25.7812-8.34961Q25.415-8.00781 25.0732-8.11768Q24.7314-8.22754 24.7314-8.74023L24.7314-64.6729Q24.7314-66.5283 25.5981-67.3706Q26.4648-68.2129 28.2959-68.2129L57.4219-68.2129Q59.2773-68.2129 60.1318-67.3706Q60.9863-66.5283 60.9863-64.6729L60.9863-8.74023Q60.9863-8.22754 60.6445-8.11768Q60.3027-8.00781 59.9609-8.34961L46.3867-21.3379Q44.6045-23.0469 42.8711-23.0469Q41.1377-23.0469 39.3311-21.3379Z"/>
  </g>
  <g id="Semibold-S" transform="matrix(1 0 0 1 2001.28 696)">
   <path d="M20.1097 8.00459Q21.9051 8.00459 23.3954 6.99248Q24.8856 5.98037 27.5248 3.40781L41.6562-10.4859Q42.0002-10.83 42.3109-10.4859L56.4578 3.42334Q59.1125 5.9959 60.6039 7.00024Q62.0953 8.00459 63.8907 8.00459Q66.6114 8.00459 68.2092 6.25923Q69.8069 4.51387 69.8069 1.46465L69.8069-65.6648Q69.8069-71.7016 66.65-74.8918Q63.493-78.0821 57.4896-78.0821L26.4775-78.0821Q20.4741-78.0821 17.3171-74.8918Q14.1602-71.7016 14.1602-65.6648L14.1602 1.46465Q14.1602 4.51387 15.7746 6.25923Q17.389 8.00459 20.1097 8.00459ZM24.466-7.38984Q24.0909-7.04805 23.7402-7.14458Q23.3896-7.24111 23.3896-7.78047L23.3896-64.9306Q23.3896-66.946 24.3762-67.8994Q25.3629-68.8527 27.3628-68.8527L56.6043-68.8527Q58.6197-68.8527 59.5986-67.8994Q60.5775-66.946 60.5775-64.9306L60.5775-7.78047Q60.5775-7.24111 60.2269-7.14458Q59.8762-7.04805 59.5344-7.38984L45.0359-21.2135Q43.5292-22.6559 41.9913-22.6559Q40.4534-22.6559 38.9312-21.2135Z"/>
  </g>
  <g id="Medium-S" transform="matrix(1 0 0 1 1705.24 696)">
   <path d="M19.4561 7.24316Q21.1504 7.24316 22.5767 6.2041Q24.0029 5.16504 26.8105 2.4375L40.9756-11.4023Q41.3398-11.7666 41.6641-11.4023L55.8379 2.44629Q58.6543 5.17383 60.0918 6.2085Q61.5293 7.24316 63.2236 7.24316Q65.6748 7.24316 67.0771 5.68311Q68.4795 4.12305 68.4795 1.31641L68.4795-65.584Q68.4795-71.459 65.4741-74.5044Q62.4688-77.5498 56.6338-77.5498L26.0059-77.5498Q20.1709-77.5498 17.1655-74.5044Q14.1602-71.459 14.1602-65.584L14.1602 1.31641Q14.1602 4.12305 15.5825 5.68311Q17.0049 7.24316 19.4561 7.24316ZM23.4688-6.66211Q23.0869-6.32031 22.7295-6.40674Q22.3721-6.49316 22.3721-7.05273L22.3721-65.126Q22.3721-67.2627 23.4497-68.3003Q24.5273-69.3379 26.6553-69.3379L55.9844-69.3379Q58.1211-69.3379 59.1943-68.3003Q60.2676-67.2627 60.2676-65.126L60.2676-7.05273Q60.2676-6.49316 59.9102-6.40674Q59.5527-6.32031 59.2109-6.66211L44.0117-21.1191Q42.7139-22.3594 41.3242-22.3594Q39.9346-22.3594 38.6279-21.1191Z"/>
  </g>
  <g id="Regular-S" transform="matrix(1 0 0 1 1409.39 696)">
   <path d="M18.6035 6.25Q20.166 6.25 21.5088 5.17578Q22.8516 4.10156 25.8789 1.17188L40.0879-12.5977Q40.4785-12.9883 40.8203-12.5977L55.0293 1.17188Q58.0566 4.10156 59.4238 5.17578Q60.791 6.25 62.3535 6.25Q64.4531 6.25 65.6006 4.93164Q66.748 3.61328 66.748 1.12305L66.748-65.4785Q66.748-71.1426 63.9404-73.999Q61.1328-76.8555 55.5176-76.8555L25.3906-76.8555Q19.7754-76.8555 16.9678-73.999Q14.1602-71.1426 14.1602-65.4785L14.1602 1.12305Q14.1602 3.61328 15.332 4.93164Q16.5039 6.25 18.6035 6.25ZM22.168-5.71289Q21.7773-5.37109 21.4111-5.44434Q21.0449-5.51758 21.0449-6.10352L21.0449-65.3809Q21.0449-67.6758 22.2412-68.8232Q23.4375-69.9707 25.7324-69.9707L55.1758-69.9707Q57.4707-69.9707 58.667-68.8232Q59.8633-67.6758 59.8633-65.3809L59.8633-6.10352Q59.8633-5.51758 59.4971-5.44434Q59.1309-5.37109 58.7891-5.71289L42.6758-20.9961Q41.6504-21.9727 40.4541-21.9727Q39.2578-21.9727 38.2324-20.9961Z"/>
  </g>
  <g id="Light-S" transform="matrix(1 0 0 1 1113.62 696)">
   <path d="M17.9225 5.28132Q19.1821 5.28132 20.2827 4.45684Q21.3834 3.63235 23.6387 1.42924L39.1947-14.0658Q39.5401-14.4112 39.8516-14.0658L55.4077 1.42924Q57.648 3.6171 58.7578 4.44921Q59.8676 5.28132 61.1425 5.28132Q62.9092 5.28132 63.8902 4.15217Q64.8712 3.02302 64.8712 0.971731L64.8712-65.2667Q64.8712-70.5068 62.2377-73.1817Q59.6041-75.8565 54.3976-75.8565L24.6338-75.8565Q19.4272-75.8565 16.7937-73.1817Q14.1602-70.5068 14.1602-65.2667L14.1602 0.971731Q14.1602 3.02302 15.1656 4.15217Q16.171 5.28132 17.9225 5.28132ZM20.6846-3.68449Q20.2487-3.28217 19.8672-3.37054Q19.4857-3.45891 19.4857-4.07511L19.4857-65.169Q19.4857-67.8271 20.8561-69.1789Q22.2265-70.5307 24.8998-70.5307L54.1466-70.5307Q56.8047-70.5307 58.1827-69.1789Q59.5606-67.8271 59.5606-65.169L59.5606-4.07511Q59.5606-3.45891 59.1793-3.37054Q58.798-3.28217 58.3804-3.68449L41.3892-20.3906Q40.5454-21.2158 39.5157-21.2158Q38.486-21.2158 37.6422-20.3906Z"/>
  </g>
  <g id="Thin-S" transform="matrix(1 0 0 1 818.148 696)">
   <path d="M17.0217 4.00017Q17.8807 4.00017 18.6612 3.50598Q19.4417 3.01179 20.6758 1.76963L38.0135-16.0076Q38.299-16.293 38.5705-16.0076L55.9082 1.76963Q57.1074 2.97635 57.8769 3.48826Q58.6463 4.00017 59.5408 4.00017Q60.8672 4.00017 61.6281 3.12126Q62.389 2.24235 62.389 0.771603L62.389-64.9865Q62.389-69.6659 59.9856-72.1006Q57.5823-74.5353 52.9163-74.5353L23.6328-74.5353Q18.9668-74.5353 16.5635-72.1006Q14.1602-69.6659 14.1602-64.9865L14.1602 0.771603Q14.1602 2.24235 14.9454 3.12126Q15.7307 4.00017 17.0217 4.00017ZM18.7226-1.00176Q18.2269-0.519389 17.8252-0.627776Q17.4236-0.736163 17.4236-1.39239L17.4236-64.8888Q17.4236-68.0272 19.0242-69.6493Q20.6248-71.2713 23.7986-71.2713L52.7854-71.2713Q55.9238-71.2713 57.5421-69.6493Q59.1604-68.0272 59.1604-64.8888L59.1604-1.39239Q59.1604-0.736163 58.759-0.627776Q58.3577-0.519389 57.8399-1.00176L39.6876-19.5897Q39.084-20.2148 38.2746-20.2148Q37.4652-20.2148 36.8615-19.5897Z"/>
  </g>
  <g id="Ultralight-S" transform="matrix(1 0 0 1 522.072 696)">
   <path d="M16.5604 3.34396Q17.2142 3.34396 17.8307 3.01895Q18.4471 2.69394 19.1582 1.94397L37.4084-17.0021Q37.6633-17.2569 37.9143-17.0021L56.1646 1.94397Q56.8306 2.64816 57.4257 2.99606Q58.0208 3.34396 58.7204 3.34396Q59.8213 3.34396 60.4694 2.59323Q61.1176 1.8425 61.1176 0.669098L61.1176-64.843Q61.1176-69.2352 58.8322-71.5469Q56.5468-73.8586 52.1576-73.8586L23.1201-73.8586Q18.7309-73.8586 16.4455-71.5469Q14.1602-69.2352 14.1602-64.843L14.1602 0.669098Q14.1602 1.8425 14.8327 2.59323Q15.5052 3.34396 16.5604 3.34396ZM17.7177 0.372314Q17.1913 0.895691 16.7793 0.777054Q16.3673 0.658417 16.3673-0.0183105L16.3673-64.7453Q16.3673-68.1297 18.0859-69.8902Q19.8044-71.6507 23.2346-71.6507L52.0882-71.6507Q55.4726-71.6507 57.214-69.8902Q58.9554-68.1297 58.9554-64.7453L58.9554-0.0183105Q58.9554 0.658417 58.5438 0.777054Q58.1322 0.895691 57.563 0.372314L38.8161-19.1795Q38.3354-19.7021 37.6389-19.7021Q36.9423-19.7021 36.4616-19.1795Z"/>
  </g>
 </g>
</svg>
